<svg xmlns="http://www.w3.org/2000/svg" viewBox="0 0 370.13 242.8"><title>CLN</title><g id="b540f507-dfa3-4b02-9a1a-69c5c2cf9bf3" data-name="Layer 2"><g id="e5b5ecf6-2689-4f48-8e9e-17bffe0e042d" data-name="Layer 1"><path d="M344.55,114.25c-1.14-.48-2.61-.18-3.94-.18q-50.16,0-100.3,0-88.06,0-176.13-.07a1.69,1.69,0,0,0,.18.85H64.2c0-.28,0-.56,0-.84a30.81,30.81,0,0,0-10-1,1.19,1.19,0,0,0-.94-.13h0a27.48,27.48,0,0,0-9-1.92h0c-2.69-.4-5.46-.54-7.83-2.12h0a9.68,9.68,0,0,0-5.16-2h0c-1.19-1-2.38-1.92-4.05-1.85h0l-3.91-1.28c-1.92-1.39-3.36-3.48-5.88-3.95h0l-2-1.94h0c-1-2.59-2.39-4.8-5-6L8.18,86.93c-.21.63-.41.9-.6,1a2.91,2.91,0,0,1,.6-1Q5.65,80.41,3.1,73.86a31.24,31.24,0,0,0-1.81-9.13c-.14-1.45.63-3.07-1.12-4.93v7.06h0c-.11,3.47-.62,7,.92,10.3h0c-.39,2.68.85,5.13,1.1,7.72-.28,3.67.65,6.87,3.64,9.26A2.31,2.31,0,0,0,6.31,94,5.7,5.7,0,0,0,9.08,98c.24,1.92,1.65,2.92,3.07,3.9.82,2,2.88,2.63,4.32,3.94L19.24,108l-.08-.29,2.2.93c0,.12.06.23.1.35a2.76,2.76,0,0,0,2.87,1.63c.91,2.84,3.05,3,5.6,2.14a3,3,0,0,0,1.79,1.15c.78.13,1.58.2,2.37.26a28.34,28.34,0,0,0,4,1.1l2.15.79a1.06,1.06,0,0,1,.19-.06c.15.26.29.53.44.8,3.16,2.35,6.54,3.57,10.45,2a5,5,0,0,1,1.1-.39l2.27,1a2.29,2.29,0,0,0,.1.23,2.25,2.25,0,0,0,1.27.81,4.44,4.44,0,0,0,1.5,0,16.91,16.91,0,0,1,2.69-.38l6.22,1.19a12.74,12.74,0,0,1,1.9,1.16,6.07,6.07,0,0,0,3.65.24,12.39,12.39,0,0,0,1.46-.35,2.87,2.87,0,0,0,2.58.13,2.35,2.35,0,0,0,.39.79,14.32,14.32,0,0,0,7.62,1,7.35,7.35,0,0,1,1.29-.84l4.81.51h0c0,.28,0,.55,0,.83l5.28-.11h0l3.76.29c1.59,1.4,3.46.67,5.22.7h0l1.73.18c1.91,1.72,4.18.7,6.3.84h0l4.28.05a13.4,13.4,0,0,1,2.43.76c1-.08,1.92-.23,2.89-.22.08.12.17.23.24.36l17,1.53,6.6.71h0c14,1.88,28,3.74,42.15,4.74h0l3,.21h0a319.46,319.46,0,0,0,34.06,3.86l2.67.22a3.74,3.74,0,0,0,1.26.3,46,46,0,0,0,12.09,1.4h0l2.88.22c2.23,1.29,4.68.89,7.08.92h0c3.53,1.4,7.24.92,10.9,1.08h0c10.25,2.11,20.71,2.57,31,4a10.47,10.47,0,0,0,10.19-3.79,2.55,2.55,0,0,0-.24-.31h0l.23.31a41.91,41.91,0,0,0,9.22-6.07h0c1.88-1.38,4.16-2.23,5.58-4.21,1.49.31,2.26-.73,3.09-1.65h0a83.85,83.85,0,0,0,15-10.14c3.05-1,5.4-3.18,7.89-5.1h0C344.9,115.52,345.65,114.71,344.55,114.25ZM241.42,137.41c-.2-.2-.36-.4-.34-.57a2.34,2.34,0,0,0,.38.09A2.21,2.21,0,0,1,241.42,137.41Zm-24.33-4.57Zm64,10h0Zm-216.85-28,0,0h0ZM104,125h0l.25-.25h0l-.23.29ZM230,138.3c0,.13.08.26.13.4l-.19,0C230,138.58,230,138.43,230,138.3Z" style="fill:#119fa4"/><path d="M11.1,76.06c.16.93.31,1.85.47,2.78h0c.46,1.38.37,3,1.67,4a6,6,0,0,0,2.87,4.22h0l1,.91c.63,1,.63,2.4,1.95,2.92,1.13,1.57,2.14,3.25,4.1,3.95h0c2.89,2.71,6.39,4.4,9.95,6h0c2.16,2.28,5.38,1.93,8,3.19h0c1.2,1.16,2.67.72,4.08.7h0l.44.13h.47c8.14,3.26,16.61,2.13,25,1.81a21.53,21.53,0,0,0,10.11-1.78h0a16.58,16.58,0,0,0,8-2h0a6.9,6.9,0,0,0,5-2h0c1.78-.35,3.55-.7,4.92-2h0c3.21-1.67,6.57-3.14,9-6h0c2.63-1.36,4.92-3.08,6.17-5.88h0a3.37,3.37,0,0,0,1.85-2.06h0a16.94,16.94,0,0,0,5.17-8h0a3.79,3.79,0,0,0,1.76-4h0c.32-1.93-1-2.14-2.39-2.25-5.86-.48-11.6-2.26-17.56-1.67h0l-1.72-.21c-2.78-.86-5.56-1.78-8.31.08h0c-1.81,2.79-3.52,5.66-6,8h0l-7,4.27h0C73,83.8,65.71,84.77,58.16,83h0a2.48,2.48,0,0,0-.93-.18h0a10,10,0,0,0-5-2h0l-5.06-4h0c-.44-.89-.86-1.78-2.06-1.79l-1.2-2.17h0c-.92-2.66-1.84-5.33-2.75-8-.13-8.22-.23-16.42,3.72-24l5-8L56.31,27v0h0c3.63-.64,6.59-2.88,10-4.11h.45l.43-.12h0l2-.09h0a51.58,51.58,0,0,1,15,.17h0l5,2L94.1,30h0l.91,1h0c.57,4.94,3,7.32,8.14,5.76l2-.07a29.07,29.07,0,0,0,9-1.32,1.63,1.63,0,0,0,1.07-.39l5.87-.17h0c7.17.36,7.77-.46,5.16-7h0l-1-.83h0c.07-3.35-1.61-5.86-3.9-8.08a5.78,5.78,0,0,0-4.08-4.21h0c-1.58-2.9-4.24-4.44-7.13-5.7h0c-9-6.56-19.28-8-30-8L78.41.8A11.37,11.37,0,0,0,70,.82h0L66.24,1C60.15.55,54.68,2.82,49.17,4.89h0c-3.13,1-6.37,1.81-9,4h0L39,9.85h0l-1,1h0c-1.05,0-2.18-.14-2.87,1h0A10.48,10.48,0,0,0,30.22,15h0c-3.3,2.37-6.74,4.6-8.11,8.76h0c-2.58.93-3.19,3.62-4.81,5.4h0c-1.7,1.54-3.12,3.23-3.15,5.69h0C7.59,48.18,6,61.87,11.1,76.06Zm92.05-51.3v.07l0,0,0-.07Zm2-13.86h0Zm-34.94-6h0v0Zm-22,2h0l0-.09S48.24,6.89,48.2,6.9Z" style="fill:#119fa4"/><path d="M222.15,199.53c-4.59-1.74-9.25-3.31-13.88-4.95h0a31.43,31.43,0,0,0-9.2-3.65h0a.74.74,0,0,0-.77-.2,6.3,6.3,0,0,0-4.18-1.81c-3.52-1.81-7.09-3.5-11.07-4.09h0a117.34,117.34,0,0,0-20.64-8.11,9.13,9.13,0,0,0-5.2-2.09h0a34.09,34.09,0,0,0-9.88-3.88,30.78,30.78,0,0,0-10.16-4,28.46,28.46,0,0,0-10-3.92h0a.39.39,0,0,0-.58-.17,5.46,5.46,0,0,0-4.42-1.74,33.57,33.57,0,0,0-10.67-4.3h0c-4.56-2.47-9.46-4-14.33-5.72h0l-7-2.75h0l-6.73-2.46h0a24.71,24.71,0,0,0-7.2-2.89,3.69,3.69,0,0,1-.18-.65c-2.23-.6-4.35-1.74-6.76-1.49-.63-1.26-1.87-1.58-3-2a6.21,6.21,0,0,0-4-2.81,10.56,10.56,0,0,0-2.1-.24,7.29,7.29,0,0,0-1.75-.06,20.14,20.14,0,0,0-3-.8c.14-1.46-1-2-2-2.56a14.71,14.71,0,0,0-2.76-.78c-2.3-.66-4.28-2.05-6.53-2.82-3.3-.64-6.31-2.45-9.73-2.63a2.48,2.48,0,0,0-.9-1.15c-1.43-.82-2.86-1.31-4.29,0,0,1.93,1.75,2.38,2.91,3.33a23,23,0,0,0,5.88,5h0c2.2,2.18,4.26,4.51,7.05,6h0a9,9,0,0,0,4.27,3.58l1.22,1.15A49.45,49.45,0,0,0,61,153a23.09,23.09,0,0,0,7,6h0a9.21,9.21,0,0,0,4.3,3.74,12.63,12.63,0,0,0,4.8,4.26c.31,1,1.18.82,1.94.84a2,2,0,0,0,.38.91c2.62,3.73,6.45,6.13,9.87,9,1.13,1.94,3.25,2.76,4.81,4.22h0l1,.84a5.33,5.33,0,0,0,3,2.3h0c2.06,2.16,4,4.48,6.77,5.81h0c.9,1.86,2.57,2.89,4.28,3.88h0c2.35,2.44,4.48,5.16,8,6.11h0l1,.92c.72,2.64,3,3.76,5,5,2.9,3.21,5.91,6.29,10,8.05a1.09,1.09,0,0,0,.29.79h0c1.1,1.76,2.47,3.11,4.69,3.24-.19,1.6.94,2.21,2.1,2.8l8.06,7a15.76,15.76,0,0,0,4.78,4.08h0l4.11,4h0l3.87,3h0l1.05.95c2,3.11,4,2.15,6-.05h0c3.46-2.51,7.63-4.12,10.14-7.85a4,4,0,0,0,4-2.09c4.12-2,7.61-5,11.13-7.85h0a4.48,4.48,0,0,0,3-2.08h0c8.88-5.62,17.39-11.76,25.74-18.13C224.85,201.76,224.86,200.55,222.15,199.53Zm-16.06,1.28h0l0,0h0Zm-79.95-32s0,0,0-.07l.21.08Zm0,0h0l.15.16Zm35,57.93,0,0h0l.06-.05Zm49.8-28-.21-.1.32-.17,0,.2Z" style="fill:#119fa4"/><path d="M136.14,106.92h0l80.93,0c2.18,1.34,3.46.51,4-1.76.46-2.09.75-4.22,1.12-6.33h0c1-4.64,2.81-9.15,2.71-14-.93-1.45-2.37-.78-3.61-.79q-23.55-.16-47.09-.27h0c0-1.27,0-2.54.05-3.81h0c1.2-1.46,1-3.22,1.07-4.92h0l-.05-.08c1.86-2,1.92-4.56,1.88-7.11a1.74,1.74,0,0,0,.22-.92,10.16,10.16,0,0,0,1.58-6h0q1-5,2.05-10.07h0c.12-.91.23-1.81.35-2.72h0c2.24-1.91,1.75-4.55,1.89-7C185.8,30.74,188.44,20.37,191,10c.33-1.35.71-3.22-1.87-2.93h0l-4,0h0l-21-.16h0l-3,.15h0c-4.23-1.1-6.55.41-6.78,4.89a26.83,26.83,0,0,1-.46,2.92h0c-1.3,1.45-.69,3.25-.85,4.9a12.24,12.24,0,0,0-1.88,7.16h0c0,.58-.09,1.16-.14,1.74a18.33,18.33,0,0,0-1.95,8.13,2,2,0,0,0-.38,1.13c-2.18,6.48-3.27,13.22-4.6,19.91a.87.87,0,0,0-.29.72,40.49,40.49,0,0,0-2.66,12.35h0a.65.65,0,0,0-.13.69c-2.6,7.6-4.14,15.46-5.7,23.32h0c-.06.66-.13,1.32-.19,2-.67,2.32-1.46,4.62-2,7S133.79,107.19,136.14,106.92Zm11-28h0l0,0h0v0l0,0Zm1,15.85.1.06-.07.08Zm71,10.11v-.2a1.57,1.57,0,0,0,.3-.12A3,3,0,0,1,219.09,104.83Z" style="fill:#119fa4"/><path d="M367.05,7.06h0l-24,0h0c-1.78.29-4.4-1.67-5,1.86h0c-1.23,1.8-1,3.89-1.16,5.89-1.37,2.53-1.35,5.38-1.88,8.11-1.23,1-1,2.54-1.28,3.87h0L331.27,38h0L331,40.83h0a59.29,59.29,0,0,0-3.82,16h0c-.85,3.23-2.4,6.29-2.31,9.74a2.18,2.18,0,0,1-2.94.39v0h0l0,0c-1.17-2.11-1.59-4.7-3.89-6.09h0l-2.19-4a5.53,5.53,0,0,0-1.78-4.06h0a2.22,2.22,0,0,0-1-2h0c-.54-2.82-2.31-4.94-3.95-7.14h0l-4-7h0c-.05-.77-.12-1.52-1-1.89h0c-2.62-5.61-5-11.38-9-16.23-1.1-2.72-1.52-5.8-4.07-7.76h0c-.68-5.46-4.73-3.83-8-3.8h0l-18,0h0l-5.94,0h0c-1.65-.35-2.54.47-2.86,2-1.43,6.59-2.82,13.18-4.23,19.76a1.89,1.89,0,0,0-.19.49c-1.22,3.05-1.36,6.34-2.05,9.51-1,1.19-.76,2.66-.81,4.05h0l0,0c-2.28,4-2.2,8.5-3,12.81h0c-2.52,6.18-3.19,12.82-4.73,19.24h0c-1.41,6.65-3.7,13.1-4.44,19.89-1.65,2.11-.67,4.83-1.65,7.09-2.13,4.37-.65,5.94,3.94,5.09l2,0h0l3,0c6.47,0,12.94.1,19.41.11,1.6,0,3.52.35,3.59-2.21h0a27.41,27.41,0,0,0,2.12-8.77h0c2.54-7.91,4-16.07,5.66-24.18.09-1,.19-2,.28-3a9.11,9.11,0,0,0,1.79-6.07h0q.94-4,1.91-8c.13-1.21.26-2.42.4-3.63h0l1.8-4.52c3.69.5,3.29,4.82,5.91,6.31h0l0,0h0c.52,4,2.83,7,5.05,10.14h0a1.25,1.25,0,0,0,.16.76h0l.64,1.13h0l4.46,8.86h0L298,74.9h0a12.43,12.43,0,0,0,2.92,5.23h0l4.08,7h0c.37.59.74,1.18,1.1,1.77h0c1.43,5.1,4.06,9.62,6.93,14,.32,2.92,1.93,4.29,4.88,4.22,3.72-.1,7.44-.13,11.17-.18h0c3.79,0,7.58.13,11.38.14,7.78,0,7.78,0,8.67-8.14h0a17.13,17.13,0,0,0,1.85-8.1h0a13.77,13.77,0,0,0,1.29-5.65h0a312.43,312.43,0,0,0,8-34.27c1.12-1.15.62-2.66.86-4h0a43.58,43.58,0,0,0,3-11.94,33.74,33.74,0,0,0,2.86-12.06h0l1.8-7.09c.44-1.93,1-3.84,1.32-5.78C370.47,7.68,369.54,6.54,367.05,7.06Zm-110,25.87s0,0,0,0h0s0,0,0,0Zm93.95,25h0v-.12h.05A1.17,1.17,0,0,0,351,57.88Zm-56-3Zm-7.77-1.59-.37-.33A.91.91,0,0,1,287.28,53.29Z" style="fill:#119fa4"/><path d="M281,152.91h0l-1.84-.15h0c-2.06-1.25-4.38-.88-6.61-1.09,0-.15,0-.23-.1,0a6.74,6.74,0,0,0-4.43-.67l-3.72-.25h0a208.72,208.72,0,0,0-28.26-3.89h0a.59.59,0,0,0-.76-.1,61.38,61.38,0,0,0-13.94-2.06A45.89,45.89,0,0,0,209.11,143l-1,0-2.5-.2a3.1,3.1,0,0,0-.52-.15,49.1,49.1,0,0,0-13.86-1.82h0a53.49,53.49,0,0,0-14.07-1.95,38.29,38.29,0,0,0-13-1.85h0l-2.84-.2a5.25,5.25,0,0,0-1.17-.34,36.18,36.18,0,0,0-12-1.48.89.89,0,0,0-.91-.15h0l-27.12-4.18.1.43-6.15-.86h0l-3.57-.5h0c-2-1.06-4.15-.77-6.28-.63h0l-2.1-.2-2-1c-1.53-1.68-3.48-.83-5.28-.86l-3.7,0h-2l-2-.18h0a3.22,3.22,0,0,1-.2-.69l-5.89.06h0c-.88-1.65-2.66-.9-3.94-1.46-2.14-1.73-4.64-.59-7-.89h0c-5.46.35-10.76-.79-16.06-1.83h0l.08-.39-6-.81c-1.1-1.33-2.65-.84-4-1h0c-1.24-2-3.86,0-5.17-1.79l-4.85-1.11h0a.85.85,0,0,0-.76-.21h-.06a4.46,4.46,0,0,0,.07-.51c-1.1-1.78-2.93-1.94-4.75-2.12a23,23,0,0,1-2.37-.17,32.09,32.09,0,0,0-4.07-1.7,6.89,6.89,0,0,1-.83-.87,8.1,8.1,0,0,0-2-1.82,2.9,2.9,0,0,0-1.34-.1l-.65.25-2-.89c-.19-.8-.2-1.73-1.29-1.92h0l-4.76-4.08c-1.26-1.41-1.48-3.89-4.09-3.88,0,2.46,1.55,4.18,3,6h0l2.87,3.26h0c.26.29.51.59.77.89h0c.22,1.93,1.86,2.26,3.24,2.88.23.36.47.72.7,1.09,1,2.32,3.27,3.11,5.32,4.14h0c1.89,2.31,4.88,3,7.11,4.74a2.18,2.18,0,0,0,2.66,1.46,2.18,2.18,0,0,0,.6-.43L33.2,124a1.6,1.6,0,0,0,1.08,0l3,1.58h0L44.19,128c2.25-.1,4.07,1.1,6,2l2-.11h0a3.06,3.06,0,0,0,3,1.91l5.9,1.15h0l2.4,1.7.78.13a2.83,2.83,0,0,1,.27.71c.87,1.49,2.65.42,3.72,1.32,3.43,0,6.29,2.48,9.77,2.22.1.24.18.49.27.74L83.92,141h0c2.32,2,5.35,2.1,8.11,2.93h0c.79,1.06,2,.88,3.06.94a7.43,7.43,0,0,0,5.08,1.88h0l.37.2.41,0c1.44,1.36,3.29,1.72,5.12,2.11a11.33,11.33,0,0,0,6,1.86,10.56,10.56,0,0,0,6,2.08,46.39,46.39,0,0,0,10.07,3.68h0l1.76.37h0c5.5,2.46,11,4.84,17,5.9a6.14,6.14,0,0,0,4.2,1.79h0l.47.16.5,0a10.62,10.62,0,0,0,6,2h0a35.71,35.71,0,0,0,11,4h0a43.32,43.32,0,0,0,12,4.1h0a5.79,5.79,0,0,0,4.06,1.65c4.26,1.58,8.36,3.63,12.9,4.4h0v0a10,10,0,0,0,5.11,1.77l.36.21.41,0a8.09,8.09,0,0,0,5.25,1.86l.29.24h.37c2.12,1.73,4.89,1.82,7.26,2.93,1,1.63,2.66.57,4,1a9.08,9.08,0,0,0,6,2h0c3.39,2,6.78,4.35,10.16,0h0l8.85-6.24a3.86,3.86,0,0,0,3-1.84h0l.07,0a12.86,12.86,0,0,0,5.22-3.69h.1a18,18,0,0,0,5.77-4,4.89,4.89,0,0,0,3.09-2.15h0l1.93-1.94h0c3.84-.78,6.42-3.41,9-6.09a1.82,1.82,0,0,0,.86-.21,38.56,38.56,0,0,0,11.26-7.73.79.79,0,0,0,.76-.27,3.78,3.78,0,0,0,2.74-2.57C287,152.66,284,152.81,281,152.91Zm-29,9.92h0Zm20-11.05a2.7,2.7,0,0,0-.43.12C271.58,151.72,271.83,151.63,272,151.78Zm-46.89-4.73a.47.47,0,0,1-.06-.19h.13A1.46,1.46,0,0,1,225.14,147.05Zm-139-10.21c0,.09,0,.16-.06.24l-.18-.22Zm67,4,0,0h0Zm-72-14h0s0-.06,0-.09Zm70.24,35.65a4.08,4.08,0,0,0-.25.33H151ZM181,174.93l.3.14a.68.68,0,0,1-.3-.14Z" style="fill:#119fa4"/></g></g></svg>