<svg xmlns="http://www.w3.org/2000/svg" viewBox="0 0 163.51 26.11"><title>HITACHI</title><g id="f813925c-6553-43ce-be31-45d054eb3183" data-name="Layer 2"><g id="b8ac8a98-1618-4e04-b47d-b9a78bd4456d" data-name="Layer 1"><polygon points="124.64 0.45 131.29 0.45 131.29 10.51 144.75 10.51 144.75 0.45 151.4 0.45 151.4 25.57 144.75 25.57 144.75 14.49 131.29 14.49 131.29 25.57 124.64 25.57 124.64 0.45 124.64 0.45" style="fill:#ef3e42;fill-rule:evenodd"/><polygon points="0 0.45 6.65 0.45 6.65 10.51 20.11 10.51 20.11 0.45 26.8 0.45 26.8 25.57 20.11 25.57 20.11 14.49 6.65 14.49 6.65 25.57 0 25.57 0 0.45 0 0.45" style="fill:#ef3e42;fill-rule:evenodd"/><polygon points="32.3 0.45 39.03 0.45 39.03 25.57 32.3 25.57 32.3 0.45 32.3 0.45" style="fill:#ef3e42;fill-rule:evenodd"/><polygon points="156.78 0.45 163.51 0.45 163.51 25.57 156.78 25.57 156.78 0.45 156.78 0.45" style="fill:#ef3e42;fill-rule:evenodd"/><polygon points="41.49 0.45 67.64 0.45 67.64 4.64 57.87 4.64 57.87 25.57 51.26 25.57 51.26 4.64 41.49 4.64 41.49 0.45 41.49 0.45" style="fill:#ef3e42;fill-rule:evenodd"/><path d="M73.38,16,78,4.76,82.62,16ZM84.3,20l2.3,5.62h7.51L82.25.49H73.83L61.89,25.57h7.47L71.7,20Z" style="fill:#ef3e42;fill-rule:evenodd"/><path d="M114.34,9h6.82c-.09-4.56-4-8.91-13.18-9-6.81,0-15.06,2.75-15.1,13s8.37,13.3,15.1,13.13c6.2-.2,13.09-1.93,13.38-9.56l-6.85,0c-.21,4.76-4,5.71-6.53,5.75s-7.88-.54-8-9.24c-.08-8.21,4.76-9.35,8-9.35S114.3,5.25,114.34,9Z" style="fill:#ef3e42;fill-rule:evenodd"/></g></g></svg>