<svg xmlns="http://www.w3.org/2000/svg" viewBox="0 0 89.26 44.14"><title>logotipoMiniarte</title><g id="fa803e90-ac81-4b5f-8b56-d47ca74e90c1" data-name="Layer 2"><g id="a7d2900f-b327-4ae5-91ca-92b61f7b3ac1" data-name="logotipo"><path d="M15.3,3h-.05L12.2,11.4H10.66L7.62,3h0L7.8,8V9.8L9,10V11.4H4.29V10L5.51,9.8V1.61L4.29,1.38V0h4.2L11.4,8.4h0L14.37,0h4.22V1.38l-1.22.23V9.8l1.22.23V11.4H13.86V10l1.22-.23V8Z" style="fill:#4b81c2"/><path d="M19.39,1.38V0h4.73V1.38l-1.23.23V9.8l1.23.23V11.4H19.39V10l1.23-.23V1.61Z" style="fill:#4b81c2"/><path d="M36.64,0V1.38l-1.22.23V11.4H33.14L28.53,3.73h0V9.8l1.22.23V11.4H25V10L26.2,9.8V1.61L25,1.38V0h3.5l4.6,7.67h0V1.61l-1.22-.23V0h4.72Z" style="fill:#4b81c2"/><path d="M37.37,1.38V0h4.72V1.38l-1.22.23V9.8l1.22.23V11.4H37.37V10l1.22-.23V1.61Z" style="fill:#4b81c2"/><path d="M42.84,10l.82-.12L47.13,0h2.34l3.44,9.91.82.12V11.4H49.84V10l.79-.14-.5-1.57H46.44l-.51,1.57.8.14V11.4H42.84ZM47,6.64h2.61l-1.28-4h-.05Z" style="fill:#4b81c2"/><path d="M59.6,0a4.75,4.75,0,0,1,3,.89,3,3,0,0,1,1.1,2.45,2.45,2.45,0,0,1-.46,1.5,3.34,3.34,0,0,1-1.36,1,2.4,2.4,0,0,1,1.46,1,3.16,3.16,0,0,1,.44,1.72v.58a1,1,0,0,0,.15.58.67.67,0,0,0,.49.25l.28,0V11.4H63.57A1.84,1.84,0,0,1,62,10.8a2.47,2.47,0,0,1-.46-1.56V8.59a1.8,1.8,0,0,0-.44-1.3,1.69,1.69,0,0,0-1.25-.5H58v3L59.2,10V11.4H54.48V10l1.21-.23V1.61l-1.21-.23V0H59.6ZM58,5h1.58A2.14,2.14,0,0,0,61,4.62a1.45,1.45,0,0,0,.48-1.17A1.65,1.65,0,0,0,61,2.22a1.92,1.92,0,0,0-1.4-.46H58Z" style="fill:#4b81c2"/><path d="M75.15,0V3H73.4l-.09-1.28h-2.1v8l1.22.23V11.4H67.7V10l1.22-.23v-8H66.83L66.74,3H65V0Z" style="fill:#4b81c2"/><path d="M83.26,6.39H79.4V9.65h3.68l.1-1.36h1.74V11.4h-9V10l1.21-.23V1.61L75.9,1.38V0h9V3.12H83.15l-.1-1.36H79.4V4.63h3.86Z" style="fill:#4b81c2"/><path d="M4.53,42.24a1.48,1.48,0,0,1-.61.26,3.84,3.84,0,0,1-.78.07,2.71,2.71,0,0,1-1-.17,2.13,2.13,0,0,1-.77-.53A2.45,2.45,0,0,1,.9,41a3.92,3.92,0,0,1-.19-1.3,3.77,3.77,0,0,1,.21-1.34,2.7,2.7,0,0,1,.56-.9,2.39,2.39,0,0,1,.78-.51,2.74,2.74,0,0,1,.89-.16,4.11,4.11,0,0,1,.78.06,2,2,0,0,1,.52.14l-.16.59a2.47,2.47,0,0,0-1.1-.19,1.81,1.81,0,0,0-.64.12,1.49,1.49,0,0,0-.58.39,1.94,1.94,0,0,0-.4.71,3.44,3.44,0,0,0-.16,1.09,3.11,3.11,0,0,0,.15,1,2.08,2.08,0,0,0,.4.72,1.48,1.48,0,0,0,.59.43,1.81,1.81,0,0,0,.74.15,2.35,2.35,0,0,0,.63-.08,1.56,1.56,0,0,0,.45-.18Z" style="fill:#4b81c2"/><path d="M5.22,39.67a3.39,3.39,0,0,1,.59-2.16,2,2,0,0,1,1.69-.75,2.34,2.34,0,0,1,1,.21,2,2,0,0,1,.72.59,2.59,2.59,0,0,1,.42.92,4.82,4.82,0,0,1,.13,1.19,3.44,3.44,0,0,1-.59,2.15,2.06,2.06,0,0,1-1.71.75,2.25,2.25,0,0,1-1-.21,1.88,1.88,0,0,1-.72-.59,2.54,2.54,0,0,1-.42-.91A4.88,4.88,0,0,1,5.22,39.67Zm.7,0a4.17,4.17,0,0,0,.09.88,2.53,2.53,0,0,0,.29.73,1.59,1.59,0,0,0,.49.51,1.46,1.46,0,0,0,1.88-.38,2.86,2.86,0,0,0,.43-1.74A4.17,4.17,0,0,0,9,38.79a2.6,2.6,0,0,0-.29-.74,1.49,1.49,0,0,0-.5-.5,1.29,1.29,0,0,0-.72-.19,1.38,1.38,0,0,0-1.16.56A3,3,0,0,0,5.92,39.67Z" style="fill:#4b81c2"/><path d="M12.08,38.8,11.65,38h0l.08.81v3.67h-.63v-5.7h.35l2.69,3.75.42.77h0l-.09-.77V36.86h.62v5.7h-.35Z" style="fill:#4b81c2"/><path d="M19.14,41.05a.77.77,0,0,0-.2-.55,2.19,2.19,0,0,0-.5-.38,6.8,6.8,0,0,0-.66-.31,3.13,3.13,0,0,1-.65-.35,1.7,1.7,0,0,1-.5-.5,1.32,1.32,0,0,1-.2-.77,1.3,1.3,0,0,1,.45-1,2,2,0,0,1,1.3-.39,4.74,4.74,0,0,1,.89.08,2.29,2.29,0,0,1,.63.18l-.2.59a3.18,3.18,0,0,0-.54-.17,3.37,3.37,0,0,0-.81-.08,1.18,1.18,0,0,0-.79.23.74.74,0,0,0-.07,1.08,2.19,2.19,0,0,0,.5.38c.2.11.42.21.66.32a4.56,4.56,0,0,1,.65.37,1.87,1.87,0,0,1,.5.51,1.26,1.26,0,0,1,.2.74,1.51,1.51,0,0,1-.13.65,1.39,1.39,0,0,1-.37.5,1.91,1.91,0,0,1-.6.32,2.88,2.88,0,0,1-.81.11,4.52,4.52,0,0,1-1-.09,2.51,2.51,0,0,1-.61-.21l.23-.59a2.6,2.6,0,0,0,.54.2,3.32,3.32,0,0,0,.81.1,2,2,0,0,0,.5-.06,1.2,1.2,0,0,0,.4-.16,1,1,0,0,0,.27-.3A.86.86,0,0,0,19.14,41.05Z" style="fill:#4b81c2"/><path d="M24.62,37.45H22.87v5h-.66v-5H20.46v-.59h4.16Z" style="fill:#4b81c2"/><path d="M25.59,36.92a5.75,5.75,0,0,1,.7-.09l.72,0a2.64,2.64,0,0,1,.7.08,1.59,1.59,0,0,1,.59.26,1.26,1.26,0,0,1,.4.48,1.47,1.47,0,0,1,.16.72,1.56,1.56,0,0,1-.36,1.07,1.84,1.84,0,0,1-.92.55l.39.29,1.39,2.22h-.78L27,40.05l-.79-.12v2.54h-.66Zm1.44.45H26.6l-.2,0-.15,0v2.07h.63a1.47,1.47,0,0,0,.91-.27,1,1,0,0,0,.36-.85,1,1,0,0,0-.3-.72A1.16,1.16,0,0,0,27,37.37Z" style="fill:#4b81c2"/><path d="M33.72,36.86h.64v3.75a2.84,2.84,0,0,1-.13.87,1.51,1.51,0,0,1-.38.6,1.41,1.41,0,0,1-.59.35,2.29,2.29,0,0,1-.76.12A2.19,2.19,0,0,1,31,42.1a1.74,1.74,0,0,1-.51-1.37V36.86h.67v3.56a3,3,0,0,0,.08.72,1.13,1.13,0,0,0,.26.47.91.91,0,0,0,.42.26,1.72,1.72,0,0,0,.59.08,1.14,1.14,0,0,0,.93-.35,2,2,0,0,0,.28-1.18Z" style="fill:#4b81c2"/><path d="M39.45,42.24a1.19,1.19,0,0,1-.51.23,3.5,3.5,0,0,1-.67.09l-.13.26a.89.89,0,0,1,.48.21.5.5,0,0,1,.15.39.65.65,0,0,1-.26.52,1.16,1.16,0,0,1-.72.2h-.18l-.18,0,.07-.31h.17a1,1,0,0,0,.28,0,.52.52,0,0,0,.15-.07.18.18,0,0,0,.06-.1.52.52,0,0,0,0-.11c0-.15-.23-.25-.69-.29l.33-.65a2.23,2.23,0,0,1-.86-.22,1.92,1.92,0,0,1-.7-.54,2.63,2.63,0,0,1-.47-.88,4.19,4.19,0,0,1-.16-1.24,3.77,3.77,0,0,1,.21-1.34,2.7,2.7,0,0,1,.56-.9,2.2,2.2,0,0,1,.78-.51,2.68,2.68,0,0,1,.88-.16,4.23,4.23,0,0,1,.79.06,2.17,2.17,0,0,1,.52.14l-.16.59a2.5,2.5,0,0,0-1.1-.19,1.87,1.87,0,0,0-.65.12,1.53,1.53,0,0,0-.57.39,2.11,2.11,0,0,0-.41.71,3.43,3.43,0,0,0-.15,1.08,3.07,3.07,0,0,0,.15,1,1.91,1.91,0,0,0,.39.72,1.58,1.58,0,0,0,.6.43,1.78,1.78,0,0,0,.74.15,2.38,2.38,0,0,0,.63-.07,1.91,1.91,0,0,0,.45-.18Z" style="fill:#4b81c2"/><path d="M43,40.92H41l-.56,1.55h-.67l2.13-5.7h.3l2.13,5.7h-.7Zm-2.26-4.74a1.6,1.6,0,0,1,.46-.35,1,1,0,0,1,.41-.09.92.92,0,0,1,.29,0,2.29,2.29,0,0,1,.28.09,2.67,2.67,0,0,0,.26.09.77.77,0,0,0,.25,0,.57.57,0,0,0,.4-.17l.2.35a1.58,1.58,0,0,1-.41.28,1,1,0,0,1-.36.07.92.92,0,0,1-.29,0L42,36.4a1.34,1.34,0,0,0-.26-.09.73.73,0,0,0-.25,0,.6.6,0,0,0-.26,0,.81.81,0,0,0-.26.19Zm.42,4.16h1.64l-.62-1.71-.2-.85h0l-.19.87Z" style="fill:#4b81c2"/><path d="M44.74,39.67a3.39,3.39,0,0,1,.6-2.16A2,2,0,0,1,47,36.76a2.37,2.37,0,0,1,1,.21,2,2,0,0,1,.71.59,2.59,2.59,0,0,1,.42.92,4.37,4.37,0,0,1,.14,1.19,3.38,3.38,0,0,1-.6,2.15,2,2,0,0,1-1.7.75,2.32,2.32,0,0,1-1-.21,1.92,1.92,0,0,1-.71-.59,2.54,2.54,0,0,1-.42-.91A4.86,4.86,0,0,1,44.74,39.67Zm.71,0a4.17,4.17,0,0,0,.09.88,2.28,2.28,0,0,0,.29.73,1.5,1.5,0,0,0,.49.51,1.46,1.46,0,0,0,1.88-.38,2.94,2.94,0,0,0,.42-1.74,4.17,4.17,0,0,0-.09-.88,2.12,2.12,0,0,0-.29-.74,1.47,1.47,0,0,0-.49-.5,1.29,1.29,0,0,0-.72-.19,1.38,1.38,0,0,0-1.16.56A3,3,0,0,0,45.45,39.67Z" style="fill:#4b81c2"/><path d="M56.47,42.24a1.54,1.54,0,0,1-.61.26,4,4,0,0,1-.79.07,2.66,2.66,0,0,1-.94-.17,2,2,0,0,1-.77-.53,2.32,2.32,0,0,1-.52-.9,3.9,3.9,0,0,1-.2-1.3,3.55,3.55,0,0,1,.22-1.34,2.55,2.55,0,0,1,.56-.9,2.2,2.2,0,0,1,.78-.51,2.68,2.68,0,0,1,.88-.16,4.3,4.3,0,0,1,.79.06,2.3,2.3,0,0,1,.52.14l-.16.59a2.53,2.53,0,0,0-1.1-.19,1.82,1.82,0,0,0-.65.12,1.46,1.46,0,0,0-.57.39,2,2,0,0,0-.41.71,3.87,3.87,0,0,0,0,2.1,2.08,2.08,0,0,0,.4.72,1.63,1.63,0,0,0,.59.43,1.86,1.86,0,0,0,.75.15,2.22,2.22,0,0,0,.62-.08,1.77,1.77,0,0,0,.46-.18Z" style="fill:#4b81c2"/><path d="M57.74,36.86h.67v5.61h-.67Z" style="fill:#4b81c2"/><path d="M61.52,40.72l.19.85h0l.21-.87,1.35-3.84H64l-2.12,5.7h-.3l-2.17-5.7h.73Z" style="fill:#4b81c2"/><path d="M64.9,36.86h.67v5.61H64.9Z" style="fill:#4b81c2"/><path d="M70.54,42.47H67.22V36.86h.67v5h2.65Z" style="fill:#4b81c2"/><path d="M71.22,42.13a.41.41,0,0,1,.12-.31.48.48,0,0,1,.33-.12.52.52,0,0,1,.41.17.79.79,0,0,1,.15.52,1.28,1.28,0,0,1-.08.5,1.18,1.18,0,0,1-.49.63,1.05,1.05,0,0,1-.3.15l-.2-.31a.89.89,0,0,0,.43-.35,1,1,0,0,0,.14-.48.34.34,0,0,1-.14,0,.39.39,0,0,1-.27-.1A.46.46,0,0,1,71.22,42.13Z" style="fill:#4b81c2"/><path d="M78.42,42.47H75.1V36.86h.66v5h2.66Z" style="fill:#4b81c2"/><path d="M79.38,36.86l.34,0h1.16a3.18,3.18,0,0,1,1.17.2,2.21,2.21,0,0,1,.81.59,2.45,2.45,0,0,1,.48.89,4.16,4.16,0,0,1,.15,1.15,4.34,4.34,0,0,1-.14,1.09,2.72,2.72,0,0,1-.47.93,2.37,2.37,0,0,1-.84.65,2.88,2.88,0,0,1-1.24.25h-.75l-.41,0-.26,0Zm1.52.53h-.7l-.15,0v4.49h.77a2.07,2.07,0,0,0,.94-.19,1.71,1.71,0,0,0,.61-.52,2,2,0,0,0,.32-.74,3.67,3.67,0,0,0,0-1.66,2.11,2.11,0,0,0-.3-.72,1.78,1.78,0,0,0-.59-.53A1.91,1.91,0,0,0,80.9,37.39Z" style="fill:#4b81c2"/><path d="M87.23,40.92H85.17l-.56,1.55h-.67l2.13-5.7h.3l2.14,5.7H87.8Zm-1.85-.58H87l-.63-1.71-.2-.85h0l-.2.87Z" style="fill:#4b81c2"/><path d="M15.15,14v9h.29V14Z" style="fill:#4b81c2;stroke:#fff;stroke-miterlimit:10"/><path d="M15.49,23H15.1V14h.39Zm-.29-.1h.19V14.06H15.2Z" style="fill:#4b81c2;stroke:#fff;stroke-miterlimit:10"/><path d="M15.44,22.68v.14h29v-.14ZM15.15,14v9h29.6V14Zm.29.29h29v8.38h-29Zm0,8.38v.14h29v-.14Z" style="fill:#4b81c2;stroke:#fff;stroke-miterlimit:10"/><path d="M44.8,23H15.1V14H44.8Zm-29.6-.1H44.7V14.06H15.2Zm29.31,0H15.39V14.25H44.51Zm-29-.1H44.41v0H15.49Zm0-.14H44.41V14.35H15.49Z" style="fill:#4b81c2;stroke:#fff;stroke-miterlimit:10"/><rect x="15.3" y="14.16" width="29.31" height="8.66" style="fill:#4b81c2;stroke:#fff;stroke-miterlimit:10"/><path d="M44.66,22.87H15.25V14.11H44.66Zm-29.31-.1H44.56V14.21H15.35Z" style="fill:#4b81c2;stroke:#fff;stroke-miterlimit:10"/><rect x="44.61" y="14.16" width="29.31" height="8.66" style="fill:#4b81c2;stroke:#fff;stroke-miterlimit:10"/><path d="M74,22.87H44.56V14.11H74Zm-29.31-.1H73.87V14.21H44.66Z" style="fill:#4b81c2;stroke:#fff;stroke-miterlimit:10"/><path d="M44.75,22.68v.14h29v-.14ZM44.46,14v9h29.6V14Zm.29.29h29v8.38h-29Zm0,8.38v.14h29v-.14Z" style="fill:#4b81c2;stroke:#fff;stroke-miterlimit:10"/><path d="M74.11,23H44.41V14h29.7Zm-29.6-.1H74V14.06H44.51Zm29.31,0H44.7V14.25H73.82Zm-29-.1H73.72v0H44.8Zm0-.14H73.72V14.35H44.8Z" style="fill:#4b81c2;stroke:#fff;stroke-miterlimit:10"/><path d="M73.77,14v9h.29V14Z" style="fill:#4b81c2;stroke:#fff;stroke-miterlimit:10"/><path d="M74.11,23h-.39V14h.39Zm-.29-.1H74V14.06h-.19Z" style="fill:#4b81c2;stroke:#fff;stroke-miterlimit:10"/><rect x="0.64" y="22.82" width="29.31" height="8.66" style="fill:#4b81c2;stroke:#fff;stroke-miterlimit:10"/><path d="M30,31.53H.59V22.77H30ZM.69,31.43H29.9V22.87H.69Z" style="fill:#4b81c2;stroke:#fff;stroke-miterlimit:10"/><path d="M.5,22.68v9H30.1V22.68Zm29.31,8.66H.79V23h29Z" style="fill:#4b81c2;stroke:#fff;stroke-miterlimit:10"/><rect x="29.95" y="22.82" width="29.31" height="8.66" style="fill:#4b81c2;stroke:#fff;stroke-miterlimit:10"/><path d="M59.31,31.53H29.9V22.77H59.31ZM30,31.43H59.21V22.87H30Z" style="fill:#4b81c2;stroke:#fff;stroke-miterlimit:10"/><path d="M30.1,22.82V23h29v-.14Zm-.29-.14v9h29.6V22.68Zm29.31,8.66h-29V23h29Zm-29-8.52V23h29v-.14Z" style="fill:#4b81c2;stroke:#fff;stroke-miterlimit:10"/><path d="M59.46,31.68H29.76v-9h29.7Zm-29.6-.1h29.5V22.73H29.86Zm29.31-.19H30.05V22.77H59.17Zm-29-.1H59.07V23H30.15Zm0-8.38H59.07v0H30.15Z" style="fill:#4b81c2;stroke:#fff;stroke-miterlimit:10"/><rect x="59.26" y="22.82" width="29.31" height="8.66" style="fill:#4b81c2;stroke:#fff;stroke-miterlimit:10"/><path d="M88.62,31.53H59.21V22.77H88.62Zm-29.31-.1H88.52V22.87H59.31Z" style="fill:#4b81c2;stroke:#fff;stroke-miterlimit:10"/><path d="M59.41,22.82V23h29v-.14Zm-.29-.14v9H88.71V22.68Zm29.31,8.66h-29V23h29Zm-29-8.52V23h29v-.14Z" style="fill:#4b81c2;stroke:#fff;stroke-miterlimit:10"/><path d="M88.76,31.68H59.07v-9H88.76Zm-29.59-.1H88.66V22.73H59.17Zm29.31-.19H59.36V22.77H88.48Zm-29-.1H88.38V23H59.46Zm0-8.38H88.38v0H59.46Z" style="fill:#4b81c2;stroke:#fff;stroke-miterlimit:10"/><path d="M88.43,22.68v9h.28V22.68Z" style="fill:#4b81c2;stroke:#fff;stroke-miterlimit:10"/><path d="M88.76,31.68h-.38v-9h.38Zm-.28-.1h.18V22.73h-.18Z" style="fill:#4b81c2;stroke:#fff;stroke-miterlimit:10"/></g></g></svg>