<svg id="a5f502e0-eac6-4884-aadb-0a5f6ffef3fa" data-name="Layer 1" xmlns="http://www.w3.org/2000/svg" viewBox="0 0 974.68 487.32"><title>logotipoMiniarte</title><path d="M216.15,329.11l-.52-.09-33.72,93.2H165l-33.54-92.85-.52.08,2.42,55.25v19.8l13.49,2.59v15.13H94.67V407.09l13.4-2.59V314.15l-13.4-2.59V296.34H141l32.08,92.77h.52L206,296.34h46.51v15.22L239,314.15V404.5l13.49,2.59v15.13H200.33V407.09l13.4-2.59V384.7Z" transform="translate(-52.53 -296.34)" style="fill:#4183d7"/><path d="M261.37,311.56V296.34H313.5v15.22L300,314.15V404.5l13.49,2.59v15.13H261.37V407.09l13.48-2.59V314.15Z" transform="translate(-52.53 -296.34)" style="fill:#4183d7"/><path d="M451.75,296.34v15.22l-13.49,2.59V422.22H413.1l-50.84-84.73-.51.09V404.5l13.48,2.59v15.13H323.1V407.09l13.4-2.59V314.15l-13.4-2.59V296.34h38.65l50.83,84.73.52-.09V314.15l-13.48-2.59V296.34h52.13Z" transform="translate(-52.53 -296.34)" style="fill:#4183d7"/><path d="M459.79,311.56V296.34h52.14v15.22l-13.49,2.59V404.5l13.49,2.59v15.13H459.79V407.09l13.49-2.59V314.15Z" transform="translate(-52.53 -296.34)" style="fill:#4183d7"/><path d="M520.23,407.09l9-1.29,38.3-109.46h25.85l38,109.46,9,1.29v15.13H597.52V407.09l8.73-1.55-5.53-17.29H559.91l-5.53,17.29,8.73,1.55v15.13H520.23Zm45.65-37.43h28.88L580.58,325.3h-.52Z" transform="translate(-52.53 -296.34)" style="fill:#4183d7"/><path d="M705.25,296.34q21.43,0,33.63,9.81t12.19,27.11a27.29,27.29,0,0,1-5.1,16.51q-5.1,7-15,11.33,11.15,3.28,16,10.93t4.89,19v6.4a10.93,10.93,0,0,0,1.64,6.44q1.63,2.29,5.45,2.72l3.11.44v15.21h-13q-12.37,0-17.38-6.65t-5-17.21v-7.18q0-9.15-4.88-14.39T708,371.3H687.35v33.2l13.49,2.59v15.13H648.71V407.09l13.4-2.59V314.15l-13.4-2.59V296.34h56.54Zm-17.9,55.51h17.47q10.54,0,15.82-4.5t5.27-13q0-8.47-5.23-13.53t-15.43-5.06h-17.9Z" transform="translate(-52.53 -296.34)" style="fill:#4183d7"/><path d="M877,296.34v33.55H857.59l-1-14.1H833.38V404.5l13.49,2.59v15.13H794.65V407.09l13.49-2.59V315.79H785.05l-1,14.1H764.73V296.34Z" transform="translate(-52.53 -296.34)" style="fill:#4183d7"/><path d="M966.44,366.89H923.82v36h40.64l1.12-15.05h19.19v34.41h-99.6V407.09l13.4-2.59V314.15l-13.4-2.59V296.34H984.6v34.5H965.23l-1.12-15H923.82v31.65h42.62Z" transform="translate(-52.53 -296.34)" style="fill:#4183d7"/><path d="M97.32,762.68a16,16,0,0,1-6.73,2.83,45.24,45.24,0,0,1-8.68.8,28.39,28.39,0,0,1-10.44-1.91,22.8,22.8,0,0,1-8.5-5.79,28,28,0,0,1-5.76-10,43.86,43.86,0,0,1-2.12-14.39,41,41,0,0,1,2.34-14.74,28.19,28.19,0,0,1,6.2-9.92A23.88,23.88,0,0,1,72.26,704,27.89,27.89,0,0,1,82,702.21a53.75,53.75,0,0,1,8.68.57,28.07,28.07,0,0,1,5.75,1.55l-1.77,6.55q-4.25-2.11-12.13-2.12a20.17,20.17,0,0,0-7.17,1.33A16.47,16.47,0,0,0,69,714.42a22,22,0,0,0-4.47,7.89,36.92,36.92,0,0,0-1.68,12,35.32,35.32,0,0,0,1.59,11.15,23,23,0,0,0,4.39,8,17.72,17.72,0,0,0,6.55,4.78,20.81,20.81,0,0,0,8.19,1.6,27,27,0,0,0,7-.8,19.15,19.15,0,0,0,5-2Z" transform="translate(-52.53 -296.34)" style="fill:#4183d7"/><path d="M104.85,734.26q0-15.5,6.55-23.77t18.68-8.28a25.94,25.94,0,0,1,11.33,2.3,21.17,21.17,0,0,1,7.92,6.51A28.27,28.27,0,0,1,154,721.11a52.85,52.85,0,0,1,1.51,13.15q0,15.5-6.6,23.77t-18.81,8.28a25.3,25.3,0,0,1-11.2-2.31,21.26,21.26,0,0,1-7.88-6.5,28.32,28.32,0,0,1-4.65-10.1A53.2,53.2,0,0,1,104.85,734.26Zm7.79,0a45,45,0,0,0,1,9.74,26.11,26.11,0,0,0,3.14,8.09,16.64,16.64,0,0,0,5.44,5.59,14.54,14.54,0,0,0,7.84,2.08A15.24,15.24,0,0,0,143,753.51q4.69-6.24,4.7-19.25a45.13,45.13,0,0,0-1-9.7,25.68,25.68,0,0,0-3.19-8.14,17.13,17.13,0,0,0-5.49-5.58,14.57,14.57,0,0,0-7.92-2.08,15.09,15.09,0,0,0-12.8,6.24Q112.65,721.24,112.64,734.26Z" transform="translate(-52.53 -296.34)" style="fill:#4183d7"/><path d="M180.63,724.7l-4.78-9h-.35l.88,9v40.55h-6.9v-63h3.89L203,743.64l4.6,8.5h.45l-1-8.5V703.27H214v63h-3.9Z" transform="translate(-52.53 -296.34)" style="fill:#4183d7"/><path d="M258.54,749.48a8.5,8.5,0,0,0-2.21-6.06,22.19,22.19,0,0,0-5.54-4.16,71.15,71.15,0,0,0-7.21-3.41,38.86,38.86,0,0,1-7.22-3.85,20.39,20.39,0,0,1-5.53-5.58,14.9,14.9,0,0,1-2.21-8.46,14.26,14.26,0,0,1,5-11.5q5.06-4.25,14.34-4.25a55.85,55.85,0,0,1,9.83.79,26.24,26.24,0,0,1,6.91,2l-2.22,6.55a28.89,28.89,0,0,0-6-1.92,39.49,39.49,0,0,0-8.9-.91q-5.85,0-8.76,2.61a8.22,8.22,0,0,0-.71,11.91,22.77,22.77,0,0,0,5.53,4.12q3.31,1.82,7.22,3.58a44.43,44.43,0,0,1,7.21,4.12,21.71,21.71,0,0,1,5.53,5.62,14.19,14.19,0,0,1,2.22,8.15,17.42,17.42,0,0,1-1.42,7.17,15.12,15.12,0,0,1-4.16,5.49,19.42,19.42,0,0,1-6.64,3.54,29.38,29.38,0,0,1-8.85,1.24,49.12,49.12,0,0,1-11-1,29.85,29.85,0,0,1-6.73-2.26l2.48-6.55a28.38,28.38,0,0,0,6,2.2,34.23,34.23,0,0,0,8.94,1.08,25.26,25.26,0,0,0,5.49-.58,12.42,12.42,0,0,0,4.43-1.86,9.64,9.64,0,0,0,3-3.23A9.15,9.15,0,0,0,258.54,749.48Z" transform="translate(-52.53 -296.34)" style="fill:#4183d7"/><path d="M319.1,709.82H299.8v55.43h-7.35V709.82h-19.3v-6.55h46Z" transform="translate(-52.53 -296.34)" style="fill:#4183d7"/><path d="M329.72,703.89a77,77,0,0,1,7.75-1q4.38-.36,8-.36a33,33,0,0,1,7.75.89,17.9,17.9,0,0,1,6.46,2.92,14.88,14.88,0,0,1,4.47,5.31,17.32,17.32,0,0,1,1.68,8q0,7.26-4,11.77a19.19,19.19,0,0,1-10.09,6l4.24,3.28,15.41,24.53h-8.59l-17.08-26.74-8.68-1.33v28.07h-7.35Zm15.94,5h-2.39c-.83,0-1.63,0-2.39.09l-2.17.18a8.83,8.83,0,0,0-1.64.27v22.84H344a16.27,16.27,0,0,0,10.1-3q4-3,4-9.39a10.4,10.4,0,0,0-3.27-7.88Q351.5,708.94,345.66,708.93Z" transform="translate(-52.53 -296.34)" style="fill:#4183d7"/><path d="M419.49,703.27h7.09v41.35a28.67,28.67,0,0,1-1.46,9.64A17.26,17.26,0,0,1,421,761a16.68,16.68,0,0,1-6.5,3.85A27,27,0,0,1,406,766q-11,0-16.56-5T383.9,746V703.27h7.35v39.31a29,29,0,0,0,.93,7.92,12.63,12.63,0,0,0,2.79,5.23,10.8,10.8,0,0,0,4.65,2.88,21.89,21.89,0,0,0,6.5.88q7.19,0,10.27-3.94t3.1-13Z" transform="translate(-52.53 -296.34)" style="fill:#4183d7"/><path d="M482.79,762.68a14.83,14.83,0,0,1-5.66,2.57,39.85,39.85,0,0,1-7.35,1l-1.51,2.83a10.42,10.42,0,0,1,5.36,2.3,5.8,5.8,0,0,1,1.64,4.34,7,7,0,0,1-2.83,5.71q-2.83,2.26-8,2.26-1,0-2-.09c-.65-.06-1.33-.15-2-.26l.8-3.46a5.83,5.83,0,0,0,1,.09h.89a10.58,10.58,0,0,0,3.05-.35,5.2,5.2,0,0,0,1.69-.84,2,2,0,0,0,.7-1.11,5.53,5.53,0,0,0,.14-1.15q0-2.49-7.62-3.28l3.72-7.08a26.6,26.6,0,0,1-9.56-2.44,22.3,22.3,0,0,1-7.7-6,28.24,28.24,0,0,1-5.14-9.74,45.4,45.4,0,0,1-1.86-13.72,41,41,0,0,1,2.35-14.74,28,28,0,0,1,6.2-9.92,23.71,23.71,0,0,1,8.63-5.62,27.85,27.85,0,0,1,9.74-1.77,53.62,53.62,0,0,1,8.67.57,28,28,0,0,1,5.76,1.55l-1.77,6.55q-4.25-2.11-12.13-2.12a20.38,20.38,0,0,0-7.17,1.32,16.49,16.49,0,0,0-6.33,4.34,21.86,21.86,0,0,0-4.47,7.86,36.81,36.81,0,0,0-1.69,11.93,35.24,35.24,0,0,0,1.6,11.14,23,23,0,0,0,4.38,8,18.12,18.12,0,0,0,6.55,4.77,20.84,20.84,0,0,0,8.19,1.59,27.5,27.5,0,0,0,6.95-.78,19.23,19.23,0,0,0,5-2Z" transform="translate(-52.53 -296.34)" style="fill:#4183d7"/><path d="M522.14,748.07H499.41l-6.17,17.18h-7.35l23.46-63h3.37l23.55,63h-7.79Zm-25-52.33a16.92,16.92,0,0,1,5.09-3.85,11.16,11.16,0,0,1,4.47-1,12.07,12.07,0,0,1,3.28.44,30.27,30.27,0,0,1,3,1q1.46.58,2.88,1a9,9,0,0,0,2.74.45,6.67,6.67,0,0,0,4.43-1.86l2.21,3.8a14.91,14.91,0,0,1-4.52,3.06,10.82,10.82,0,0,1-4,.84,11.49,11.49,0,0,1-3.19-.44c-1-.3-2-.64-3-1s-1.93-.72-2.88-1a9.28,9.28,0,0,0-2.83-.44,7.18,7.18,0,0,0-2.79.57,9.29,9.29,0,0,0-2.88,2.09Zm4.65,46h18.14l-6.87-18.85-2.2-9.39h-.09l-2.2,9.56Z" transform="translate(-52.53 -296.34)" style="fill:#4183d7"/><path d="M541.23,734.26q0-15.5,6.55-23.77t18.68-8.28a25.91,25.91,0,0,1,11.33,2.3,21.28,21.28,0,0,1,7.93,6.51,28.61,28.61,0,0,1,4.65,10.09,53.34,53.34,0,0,1,1.5,13.15q0,15.5-6.6,23.77t-18.81,8.28a25.3,25.3,0,0,1-11.2-2.31,21.26,21.26,0,0,1-7.88-6.5,28.66,28.66,0,0,1-4.65-10.1A53.2,53.2,0,0,1,541.23,734.26Zm7.79,0a45,45,0,0,0,1,9.74,26.11,26.11,0,0,0,3.14,8.09,16.73,16.73,0,0,0,5.44,5.59,14.54,14.54,0,0,0,7.84,2.08,15.27,15.27,0,0,0,12.93-6.25q4.68-6.24,4.69-19.25a45.13,45.13,0,0,0-1-9.7,25.68,25.68,0,0,0-3.19-8.14,17,17,0,0,0-5.49-5.58,14.57,14.57,0,0,0-7.92-2.08A15.06,15.06,0,0,0,553.67,715Q549,721.24,549,734.26Z" transform="translate(-52.53 -296.34)" style="fill:#4183d7"/><path d="M670.67,762.68a16.08,16.08,0,0,1-6.73,2.83,45.31,45.31,0,0,1-8.68.8,28.45,28.45,0,0,1-10.45-1.91,22.88,22.88,0,0,1-8.5-5.79,28,28,0,0,1-5.75-10,43.6,43.6,0,0,1-2.12-14.39,41,41,0,0,1,2.34-14.74,28,28,0,0,1,6.2-9.92,23.8,23.8,0,0,1,8.63-5.62,27.85,27.85,0,0,1,9.74-1.77,53.84,53.84,0,0,1,8.68.57,28.07,28.07,0,0,1,5.75,1.55L668,710.88q-4.25-2.11-12.13-2.12a20.17,20.17,0,0,0-7.17,1.33,16.47,16.47,0,0,0-6.33,4.33,22,22,0,0,0-4.47,7.89,36.92,36.92,0,0,0-1.68,12,35.32,35.32,0,0,0,1.59,11.15,22.85,22.85,0,0,0,4.38,8,17.8,17.8,0,0,0,6.55,4.78,20.84,20.84,0,0,0,8.19,1.6,27,27,0,0,0,6.95-.8,18.86,18.86,0,0,0,5-2Z" transform="translate(-52.53 -296.34)" style="fill:#4183d7"/><path d="M684.74,703.27h7.35v62h-7.35Z" transform="translate(-52.53 -296.34)" style="fill:#4183d7"/><path d="M726.44,745.86l2.12,9.38h.09l2.3-9.56,15-42.41h7.35l-23.47,63h-3.27l-23.91-63h8.06Z" transform="translate(-52.53 -296.34)" style="fill:#4183d7"/><path d="M763.8,703.27h7.35v62H763.8Z" transform="translate(-52.53 -296.34)" style="fill:#4183d7"/><path d="M826,765.25H789.39v-62h7.34v55.42H826Z" transform="translate(-52.53 -296.34)" style="fill:#4183d7"/><path d="M833.48,761.44a4.54,4.54,0,0,1,1.41-3.46,5.13,5.13,0,0,1,3.63-1.32,5.69,5.69,0,0,1,4.47,2,8.21,8.21,0,0,1,1.73,5.66,16.05,16.05,0,0,1-.89,5.58,14,14,0,0,1-5.4,6.95,13.3,13.3,0,0,1-3.36,1.63L832.86,775a9.15,9.15,0,0,0,4.73-3.85,10.24,10.24,0,0,0,1.55-5.27,4.67,4.67,0,0,1-1.5.27,4,4,0,0,1-3-1.2A4.7,4.7,0,0,1,833.48,761.44Z" transform="translate(-52.53 -296.34)" style="fill:#4183d7"/><path d="M913,765.25H876.33v-62h7.34v55.42H913Z" transform="translate(-52.53 -296.34)" style="fill:#4183d7"/><path d="M923.61,703.27c1.12-.18,2.37-.31,3.76-.4s2.83-.14,4.33-.17l4.43-.09c1.45,0,2.79-.05,4-.05a33,33,0,0,1,12.88,2.3,24,24,0,0,1,9,6.42,26.72,26.72,0,0,1,5.27,9.88,46.38,46.38,0,0,1,.08,24.74,29.08,29.08,0,0,1-5.17,10.27,25.5,25.5,0,0,1-9.21,7.17,31.7,31.7,0,0,1-13.72,2.7c-.95,0-2.17,0-3.68,0s-3.05-.09-4.65-.18-3.07-.16-4.42-.22a21,21,0,0,1-2.92-.27Zm16.73,5.84h-2.52c-.92,0-1.82,0-2.71.09l-2.43.18c-.74.06-1.31.12-1.73.18v49.58a15,15,0,0,0,1.69.13l2.56.09,2.57.08,1.68,0a22.85,22.85,0,0,0,10.4-2.13,17.83,17.83,0,0,0,6.73-5.71,22.94,22.94,0,0,0,3.59-8.23,42.89,42.89,0,0,0,1.06-9.61,40.18,40.18,0,0,0-1-8.72,22.79,22.79,0,0,0-3.37-7.92,18.54,18.54,0,0,0-6.41-5.8A20.61,20.61,0,0,0,940.34,709.11Z" transform="translate(-52.53 -296.34)" style="fill:#4183d7"/><path d="M1010.22,748.07H987.49l-6.16,17.18H974l23.46-63h3.37l23.55,63h-7.8Zm-20.35-6.38H1008l-6.87-18.85-2.2-9.39h-.09l-2.2,9.56Z" transform="translate(-52.53 -296.34)" style="fill:#4183d7"/><path d="M214.57,451.05v98.82h3.18V451.05Z" transform="translate(-52.53 -296.34)" style="fill:#4183d7"/><path d="M218.31,550.42H214V450.49h4.3Zm-3.19-1.11h2.08V451.6h-2.08Z" transform="translate(-52.53 -296.34)" style="fill:#fff"/><path d="M217.75,546.68v1.6H538.13v-1.6Zm-3.18-95.63v98.82H541.32V451.05Zm3.18,3.18H538.13v92.45H217.75Zm0,92.45v1.6H538.13v-1.6Z" transform="translate(-52.53 -296.34)" style="fill:#4183d7"/><path d="M541.87,550.42H214V450.49H541.87Zm-326.75-1.11H540.76V451.6H215.12Zm323.56-.48H217.2V453.68H538.68Zm-320.37-1.11H537.58v-.48H218.31Zm0-1.59H537.58V454.79H218.31Z" transform="translate(-52.53 -296.34)" style="fill:#fff"/><rect x="163.63" y="156.3" width="323.56" height="95.63" style="fill:#4183d7"/><path d="M540.28,548.83H215.61V452.09H540.28Zm-323.57-1.11H539.17V453.19H216.71Z" transform="translate(-52.53 -296.34)" style="fill:#fff"/><rect x="487.19" y="156.3" width="323.56" height="95.63" style="fill:#4183d7"/><path d="M863.84,548.83H539.17V452.09H863.84Zm-323.56-1.11H862.73V453.19H540.28Z" transform="translate(-52.53 -296.34)" style="fill:#fff"/><path d="M541.32,546.68v1.6H861.69v-1.6Zm-3.19-95.63v98.82H864.88V451.05Zm3.19,3.18H861.69v92.45H541.32Zm0,92.45v1.6H861.69v-1.6Z" transform="translate(-52.53 -296.34)" style="fill:#4183d7"/><path d="M865.43,550.42H537.58V450.49H865.43Zm-326.75-1.11H864.33V451.6H538.68Zm323.57-.48H540.76V453.68H862.25Zm-320.38-1.11H861.14v-.48H541.87Zm0-1.59H861.14V454.79H541.87Z" transform="translate(-52.53 -296.34)" style="fill:#fff"/><path d="M861.69,451.05v98.82h3.19V451.05Z" transform="translate(-52.53 -296.34)" style="fill:#4183d7"/><path d="M865.43,550.42h-4.29V450.49h4.29Zm-3.18-1.11h2.08V451.6h-2.08Z" transform="translate(-52.53 -296.34)" style="fill:#fff"/><rect x="1.84" y="251.94" width="323.56" height="95.63" style="fill:#4183d7"/><path d="M378.5,644.46H53.82V547.72H378.5Zm-323.57-1.1H377.39V548.83H54.93Z" transform="translate(-52.53 -296.34)" style="fill:#fff"/><path d="M52.78,546.68V645.5H379.54V546.68Zm323.57,95.64H56V549.87H376.35Z" transform="translate(-52.53 -296.34)" style="fill:#4183d7;stroke:#fff;stroke-miterlimit:10;stroke-width:0.5px"/><rect x="325.41" y="251.94" width="323.56" height="95.63" style="fill:#4183d7"/><path d="M702.06,644.46H377.39V547.72H702.06Zm-323.56-1.1H701V548.83H378.5Z" transform="translate(-52.53 -296.34)" style="fill:#fff"/><path d="M379.54,548.28v1.59H699.91v-1.59Zm-3.19-1.6V645.5H703.1V546.68Zm323.56,95.64H379.54V549.87H699.91Zm-320.37-94v1.59H699.91v-1.59Z" transform="translate(-52.53 -296.34)" style="fill:#4183d7"/><path d="M703.65,646.06H375.79V546.13H703.65ZM376.9,645H702.55V547.24H376.9Zm323.56-2.08H379V547.72H700.46Zm-320.37-1.11H699.36V550.42H380.09Zm0-92.45H699.36v-.48H380.09Z" transform="translate(-52.53 -296.34)" style="fill:#fff"/><rect x="648.97" y="251.94" width="323.56" height="95.63" style="fill:#4183d7"/><path d="M1025.62,644.46H701V547.72h324.67Zm-323.56-1.1h322.45V548.83H702.06Z" transform="translate(-52.53 -296.34)" style="fill:#fff"/><path d="M703.1,548.28v1.59h320.37v-1.59Zm-3.19-1.6V645.5h326.75V546.68Zm323.56,95.64H703.1V549.87h320.37Zm-320.37-94v1.59h320.37v-1.59Z" transform="translate(-52.53 -296.34)" style="fill:#4183d7"/><path d="M1027.22,646.06H699.36V546.13h327.86ZM700.46,645h325.65V547.24H700.46ZM1024,642.87H702.55V547.72H1024Zm-320.38-1.11h319.27V550.42H703.65Zm0-92.45h319.27v-.48H703.65Z" transform="translate(-52.53 -296.34)" style="fill:#fff"/><path d="M1023.47,546.68V645.5h3.19V546.68Z" transform="translate(-52.53 -296.34)" style="fill:#4183d7"/><path d="M1027.22,646.06h-4.3V546.13h4.3ZM1024,645h2.08V547.24H1024Z" transform="translate(-52.53 -296.34)" style="fill:#fff"/></svg>