<svg id="3e428326-e360-4c80-89fe-c1e029919ca6" data-name="Layer 1" xmlns="http://www.w3.org/2000/svg" viewBox="0 0 512 512"><defs><style>.\31 2794711-418a-43ba-a8b2-a165ae7cfe11{fill:#fff;}.\31 9e8085a-b5a2-4068-bcca-587f41434423{fill:#4183d7;stroke:#fff;stroke-miterlimit:10;}</style></defs><title>logotipo</title><path d="M151,233v36H50v.5H151.5V233Z"/><path class="12794711-418a-43ba-a8b2-a165ae7cfe11" d="M151,232.5V269H49.5v1H152V232.5Z"/><path class="19e8085a-b5a2-4068-bcca-587f41434423" d="M97.92,170l-.25,0L81.29,215.27H73.06l-16.29-45.1-.25,0L57.69,197v9.62l6.55,1.26v7.35H38.92v-7.35l6.51-1.26V162.78l-6.51-1.26v-7.39H61.43L77,199.19h.25L93,154.13h22.59v7.39L109,162.78v43.88l6.55,1.26v7.35H90.24v-7.35l6.51-1.26V197Z"/><path class="19e8085a-b5a2-4068-bcca-587f41434423" d="M119.88,161.52v-7.39H145.2v7.39l-6.55,1.26v43.88l6.55,1.26v7.35H119.88v-7.35l6.55-1.26V162.78Z"/><path class="19e8085a-b5a2-4068-bcca-587f41434423" d="M212.35,154.13v7.39l-6.55,1.26v52.49H193.58l-24.69-41.15-.25,0v32.5l6.55,1.26v7.35H149.86v-7.35l6.51-1.26V162.78l-6.51-1.26v-7.39h18.77l24.69,41.15.25,0V162.78L187,161.52v-7.39h25.32Z"/><path class="19e8085a-b5a2-4068-bcca-587f41434423" d="M216.25,161.52v-7.39h25.32v7.39L235,162.78v43.88l6.55,1.26v7.35H216.25v-7.35l6.55-1.26V162.78Z"/><path class="19e8085a-b5a2-4068-bcca-587f41434423" d="M245.61,207.93l4.37-.63,18.6-53.16h12.56l18.48,53.16,4.37.63v7.35H283.15v-7.35l4.24-.76-2.69-8.4H264.88l-2.69,8.4,4.24.76v7.35H245.61Zm22.17-18.18h14l-6.89-21.54h-.25Z"/><path class="19e8085a-b5a2-4068-bcca-587f41434423" d="M335.47,154.13q10.41,0,16.33,4.77t5.92,13.16a13.26,13.26,0,0,1-2.48,8,17.32,17.32,0,0,1-7.26,5.5q5.42,1.6,7.79,5.31a16.8,16.8,0,0,1,2.37,9.22v3.11a5.3,5.3,0,0,0,.8,3.13,3.55,3.55,0,0,0,2.65,1.32l1.51.21v7.39h-6.34q-6,0-8.44-3.23a13.51,13.51,0,0,1-2.44-8.36V200.2a9.84,9.84,0,0,0-2.37-7,9.1,9.1,0,0,0-6.7-2.67h-10v16.13l6.55,1.26v7.35H308v-7.35l6.51-1.26V162.78L308,161.52v-7.39h27.46Zm-8.69,27h8.48q5.12,0,7.68-2.18a7.82,7.82,0,0,0,2.56-6.3A8.72,8.72,0,0,0,343,166q-2.54-2.46-7.5-2.46h-8.69Z"/><path class="19e8085a-b5a2-4068-bcca-587f41434423" d="M418.87,154.13v16.29h-9.41l-.5-6.84H397.7v43.08l6.55,1.26v7.35H378.89v-7.35l6.55-1.26V163.58H374.23l-.5,6.84h-9.36V154.13Z"/><path class="19e8085a-b5a2-4068-bcca-587f41434423" d="M462.33,188.4h-20.7v17.47h19.74l.55-7.31h9.32v16.71H422.86v-7.35l6.51-1.26V162.78l-6.51-1.26v-7.39h48.29v16.75h-9.41l-.55-7.31H441.63V179h20.7Z"/><path class="19e8085a-b5a2-4068-bcca-587f41434423" d="M59.24,359.06a7.37,7.37,0,0,1-3.12,1.31,20.9,20.9,0,0,1-4,.37,13.17,13.17,0,0,1-4.84-.88,10.57,10.57,0,0,1-3.94-2.69,12.93,12.93,0,0,1-2.67-4.61,20.2,20.2,0,0,1-1-6.66,19,19,0,0,1,1.09-6.83,13.05,13.05,0,0,1,2.87-4.59,11.07,11.07,0,0,1,4-2.6,12.93,12.93,0,0,1,4.51-.82,24.62,24.62,0,0,1,4,.27,12.86,12.86,0,0,1,2.67.72l-.82,3a12.85,12.85,0,0,0-5.62-1,9.38,9.38,0,0,0-3.32.62,7.64,7.64,0,0,0-2.93,2,10.19,10.19,0,0,0-2.07,3.65,17.08,17.08,0,0,0-.78,5.54,16.36,16.36,0,0,0,.74,5.17,10.64,10.64,0,0,0,2,3.69,8.28,8.28,0,0,0,3,2.21,9.62,9.62,0,0,0,3.79.74,12.48,12.48,0,0,0,3.22-.37,8.9,8.9,0,0,0,2.32-.94Z"/><path class="19e8085a-b5a2-4068-bcca-587f41434423" d="M62,345.9q0-7.17,3-11t8.65-3.83A12,12,0,0,1,79,332.13a9.86,9.86,0,0,1,3.67,3,13.18,13.18,0,0,1,2.15,4.67,24.6,24.6,0,0,1,.7,6.09q0,7.17-3.05,11t-8.71,3.83a11.74,11.74,0,0,1-5.19-1.07,9.88,9.88,0,0,1-3.65-3A13.14,13.14,0,0,1,62.73,352,24.57,24.57,0,0,1,62,345.9Zm3.61,0a20.85,20.85,0,0,0,.47,4.51,12.23,12.23,0,0,0,1.46,3.75,7.73,7.73,0,0,0,2.52,2.58,6.69,6.69,0,0,0,3.63,1,7.07,7.07,0,0,0,6-2.89q2.17-2.89,2.17-8.92a21,21,0,0,0-.47-4.49,12,12,0,0,0-1.48-3.77,7.93,7.93,0,0,0-2.54-2.58,6.78,6.78,0,0,0-3.67-1A7,7,0,0,0,67.79,337Q65.64,339.87,65.64,345.9Z"/><path class="19e8085a-b5a2-4068-bcca-587f41434423" d="M96.43,341.47l-2.21-4.14h-.16l.41,4.14v18.78h-3.2V331.1h1.8l13.73,19.15,2.13,3.94h.21l-.45-3.94v-18.7h3.2V360.7h-1.8Z"/><path class="19e8085a-b5a2-4068-bcca-587f41434423" d="M131.81,353a3.93,3.93,0,0,0-1-2.81,10.28,10.28,0,0,0-2.56-1.93,33.1,33.1,0,0,0-3.34-1.58,18,18,0,0,1-3.34-1.78,9.4,9.4,0,0,1-2.56-2.58,6.92,6.92,0,0,1-1-3.92,6.61,6.61,0,0,1,2.34-5.33,10,10,0,0,1,6.64-2,25.77,25.77,0,0,1,4.55.37,12.18,12.18,0,0,1,3.2.94l-1,3a13.36,13.36,0,0,0-2.77-.89,18.24,18.24,0,0,0-4.12-.42,5.93,5.93,0,0,0-4.06,1.21,3.81,3.81,0,0,0-.33,5.52,10.49,10.49,0,0,0,2.56,1.91q1.54.84,3.34,1.66a20.39,20.39,0,0,1,3.34,1.91,10.08,10.08,0,0,1,2.56,2.6,6.59,6.59,0,0,1,1,3.77,8.1,8.1,0,0,1-.66,3.32,7,7,0,0,1-1.93,2.54,8.94,8.94,0,0,1-3.08,1.64,13.51,13.51,0,0,1-4.1.57,22.78,22.78,0,0,1-5.08-.47,13.79,13.79,0,0,1-3.12-1l1.15-3a13.17,13.17,0,0,0,2.79,1,15.9,15.9,0,0,0,4.14.5,11.6,11.6,0,0,0,2.54-.27,5.8,5.8,0,0,0,2.05-.86,4.51,4.51,0,0,0,1.37-1.5A4.25,4.25,0,0,0,131.81,353Z"/><path class="19e8085a-b5a2-4068-bcca-587f41434423" d="M159.16,334.59h-8.94v25.67h-3.4V334.59h-8.94v-3h21.28Z"/><path class="19e8085a-b5a2-4068-bcca-587f41434423" d="M163.38,331.84q1.56-.28,3.59-.45t3.71-.16a15.37,15.37,0,0,1,3.59.41,8.32,8.32,0,0,1,3,1.35,6.88,6.88,0,0,1,2.07,2.46,9,9,0,0,1-1.07,9.14,8.91,8.91,0,0,1-4.67,2.79l2,1.52,7.13,11.36h-4l-7.91-12.38-4-.62v13h-3.4Zm7.38,2.34h-1.11q-.57,0-1.11,0l-1,.08a4.16,4.16,0,0,0-.76.12V345H170a7.53,7.53,0,0,0,4.67-1.39,5.1,5.1,0,0,0,1.85-4.35,4.8,4.8,0,0,0-1.52-3.65A5.9,5.9,0,0,0,170.76,334.18Z"/><path class="19e8085a-b5a2-4068-bcca-587f41434423" d="M204.26,331.55h3.28V350.7a13.25,13.25,0,0,1-.68,4.47,8,8,0,0,1-1.93,3.1,7.69,7.69,0,0,1-3,1.78,12.53,12.53,0,0,1-3.9.57q-5.08,0-7.67-2.3t-2.58-7v-19.8h3.4v18.21a13.47,13.47,0,0,0,.43,3.67,5.85,5.85,0,0,0,1.29,2.42,4.9,4.9,0,0,0,2.15,1.33,10,10,0,0,0,3,.41q3.32,0,4.76-1.82t1.43-6Z"/><path class="19e8085a-b5a2-4068-bcca-587f41434423" d="M232.87,359.06a6.82,6.82,0,0,1-2.62,1.19,18.46,18.46,0,0,1-3.4.45l-.7,1.31a4.83,4.83,0,0,1,2.48,1.07,2.68,2.68,0,0,1,.76,2,3.24,3.24,0,0,1-1.31,2.64,5.79,5.79,0,0,1-3.69,1q-.45,0-.9,0t-.94-.12l.37-1.6a2.76,2.76,0,0,0,.45,0h.41a4.83,4.83,0,0,0,1.41-.16,2.29,2.29,0,0,0,.78-.39.93.93,0,0,0,.33-.51,2.56,2.56,0,0,0,.06-.53q0-1.15-3.53-1.52l1.72-3.28a12.3,12.3,0,0,1-4.43-1.13,10.37,10.37,0,0,1-3.57-2.77,13,13,0,0,1-2.38-4.51,21,21,0,0,1-.86-6.35,19,19,0,0,1,1.09-6.83,13.05,13.05,0,0,1,2.87-4.59,11.07,11.07,0,0,1,4-2.6,12.93,12.93,0,0,1,4.51-.82,24.62,24.62,0,0,1,4,.27,12.86,12.86,0,0,1,2.67.72l-.82,3a12.85,12.85,0,0,0-5.62-1,9.43,9.43,0,0,0-3.32.61,7.63,7.63,0,0,0-2.93,2,10.16,10.16,0,0,0-2.07,3.64,17,17,0,0,0-.78,5.53,16.28,16.28,0,0,0,.74,5.16,10.58,10.58,0,0,0,2,3.68,8.26,8.26,0,0,0,3,2.21,9.62,9.62,0,0,0,3.79.74,12.87,12.87,0,0,0,3.22-.36,9.12,9.12,0,0,0,2.32-.91Z"/><path class="19e8085a-b5a2-4068-bcca-587f41434423" d="M250.4,352.3H239.87l-2.86,8h-3.4l10.86-29.15H246l10.91,29.15h-3.61Zm-11.58-24.23a7.78,7.78,0,0,1,2.36-1.78,5.2,5.2,0,0,1,2.07-.47,5.72,5.72,0,0,1,1.52.21,14.82,14.82,0,0,1,1.41.47q.68.27,1.33.47a4.25,4.25,0,0,0,1.27.21,3.09,3.09,0,0,0,2.05-.86l1,1.76a7,7,0,0,1-2.09,1.41,5,5,0,0,1-1.84.39,5.2,5.2,0,0,1-1.48-.21q-.7-.21-1.37-.47t-1.33-.47a4.38,4.38,0,0,0-1.31-.21,3.34,3.34,0,0,0-1.29.27,4.35,4.35,0,0,0-1.33,1ZM241,349.35h8.4l-3.18-8.73-1-4.35h0l-1,4.43Z"/><path class="19e8085a-b5a2-4068-bcca-587f41434423" d="M258.54,345.9q0-7.17,3-11t8.65-3.83a12,12,0,0,1,5.25,1.07,9.86,9.86,0,0,1,3.67,3,13.18,13.18,0,0,1,2.15,4.67,24.6,24.6,0,0,1,.7,6.09q0,7.17-3.05,11t-8.71,3.83a11.74,11.74,0,0,1-5.19-1.07,9.87,9.87,0,0,1-3.65-3,13.13,13.13,0,0,1-2.15-4.67A24.6,24.6,0,0,1,258.54,345.9Zm3.61,0a20.78,20.78,0,0,0,.47,4.51,12.22,12.22,0,0,0,1.46,3.75,7.73,7.73,0,0,0,2.52,2.58,6.69,6.69,0,0,0,3.63,1,7.07,7.07,0,0,0,6-2.89q2.17-2.89,2.17-8.92a21,21,0,0,0-.47-4.49,12,12,0,0,0-1.48-3.77,7.92,7.92,0,0,0-2.54-2.58,6.78,6.78,0,0,0-3.67-1A7,7,0,0,0,264.3,337Q262.15,339.87,262.15,345.9Z"/><path class="19e8085a-b5a2-4068-bcca-587f41434423" d="M317.09,359.06a7.36,7.36,0,0,1-3.12,1.31,20.91,20.91,0,0,1-4,.37,13.16,13.16,0,0,1-4.84-.88,10.56,10.56,0,0,1-3.94-2.69,12.91,12.91,0,0,1-2.67-4.61,20.19,20.19,0,0,1-1-6.66,19,19,0,0,1,1.09-6.83,13,13,0,0,1,2.87-4.59,11.06,11.06,0,0,1,4-2.6,12.93,12.93,0,0,1,4.51-.82,24.62,24.62,0,0,1,4,.27,12.88,12.88,0,0,1,2.67.72l-.82,3a12.85,12.85,0,0,0-5.62-1,9.39,9.39,0,0,0-3.32.62,7.64,7.64,0,0,0-2.93,2,10.19,10.19,0,0,0-2.07,3.65,17.08,17.08,0,0,0-.78,5.54,16.39,16.39,0,0,0,.74,5.17,10.64,10.64,0,0,0,2,3.69,8.27,8.27,0,0,0,3,2.21,9.62,9.62,0,0,0,3.79.74,12.49,12.49,0,0,0,3.22-.37,8.9,8.9,0,0,0,2.32-.94Z"/><path class="19e8085a-b5a2-4068-bcca-587f41434423" d="M322.91,331.55h3.4v28.7h-3.4Z"/><path class="19e8085a-b5a2-4068-bcca-587f41434423" d="M341.52,351.27l1,4.35h0l1.07-4.43,6.93-19.64h3.4L343.08,360.7h-1.52l-11.07-29.15h3.73Z"/><path class="19e8085a-b5a2-4068-bcca-587f41434423" d="M358.13,331.55h3.4v28.7h-3.4Z"/><path class="19e8085a-b5a2-4068-bcca-587f41434423" d="M386.25,360.25h-17v-28.7h3.4v25.67h13.57Z"/><path class="19e8085a-b5a2-4068-bcca-587f41434423" d="M389,358.49a2.09,2.09,0,0,1,.66-1.6,2.36,2.36,0,0,1,1.68-.61,2.64,2.64,0,0,1,2.07.9,3.84,3.84,0,0,1,.8,2.63,7.42,7.42,0,0,1-.41,2.58,6.57,6.57,0,0,1-1.07,1.91,6.45,6.45,0,0,1-1.44,1.31,6.31,6.31,0,0,1-1.56.76l-1-1.6a4.24,4.24,0,0,0,2.19-1.78,4.74,4.74,0,0,0,.72-2.44,2.21,2.21,0,0,1-.7.12,1.86,1.86,0,0,1-1.37-.55A2.19,2.19,0,0,1,389,358.49Z"/><path class="19e8085a-b5a2-4068-bcca-587f41434423" d="M424.42,360.25h-17v-28.7h3.4v25.67h13.57Z"/><path class="19e8085a-b5a2-4068-bcca-587f41434423" d="M428.65,331.55q.78-.12,1.74-.18t2-.08l2,0,1.87,0a15.24,15.24,0,0,1,6,1.07,11.07,11.07,0,0,1,4.16,3,12.36,12.36,0,0,1,2.44,4.57,21.48,21.48,0,0,1,0,11.46,13.47,13.47,0,0,1-2.4,4.76,11.8,11.8,0,0,1-4.26,3.32,14.67,14.67,0,0,1-6.35,1.25l-1.7,0q-1,0-2.15-.08l-2-.1a10,10,0,0,1-1.35-.12Zm7.75,2.71h-1.17q-.64,0-1.25,0l-1.13.08-.8.08v23a5.79,5.79,0,0,0,.78.06l1.19,0,1.19,0,.78,0a10.61,10.61,0,0,0,4.82-1,8.3,8.3,0,0,0,3.12-2.64,10.68,10.68,0,0,0,1.66-3.81,19.87,19.87,0,0,0,.49-4.45,18.57,18.57,0,0,0-.45-4,10.62,10.62,0,0,0-1.56-3.67,8.59,8.59,0,0,0-3-2.69A9.51,9.51,0,0,0,436.4,334.26Z"/><path class="19e8085a-b5a2-4068-bcca-587f41434423" d="M468.06,352.3H457.54l-2.85,8h-3.4l10.87-29.15h1.56l10.91,29.15H471Zm-9.42-3H467l-3.18-8.73-1-4.35h0l-1,4.43Z"/><path class="19e8085a-b5a2-4068-bcca-587f41434423" d="M111.1,238.77v44h1.42v-44Z"/><path class="19e8085a-b5a2-4068-bcca-587f41434423" d="M112.52,281.39v.71H255.29v-.71Zm-1.42-42.62v44H256.71v-44Zm1.42,1.42H255.29v41.2H112.52Zm0,41.2v.71H255.29v-.71Z"/><rect class="19e8085a-b5a2-4068-bcca-587f41434423" x="111.81" y="239.48" width="144.19" height="42.62"/><rect class="19e8085a-b5a2-4068-bcca-587f41434423" x="256" y="239.48" width="144.19" height="42.62"/><path class="19e8085a-b5a2-4068-bcca-587f41434423" d="M256.71,281.39v.71H399.48v-.71Zm-1.42-42.62v44H400.9v-44Zm1.42,1.42H399.48v41.2H256.71Zm0,41.2v.71H399.48v-.71Z"/><path class="19e8085a-b5a2-4068-bcca-587f41434423" d="M399.48,238.77v44h1.42v-44Z"/><rect class="19e8085a-b5a2-4068-bcca-587f41434423" x="39.71" y="282.1" width="144.19" height="42.62"/><path class="19e8085a-b5a2-4068-bcca-587f41434423" d="M39,281.39v44H184.61v-44ZM183.19,324H40.42v-41.2H183.19Z"/><rect class="19e8085a-b5a2-4068-bcca-587f41434423" x="183.9" y="282.1" width="144.19" height="42.62"/><path class="19e8085a-b5a2-4068-bcca-587f41434423" d="M184.61,282.1v.71H327.39v-.71Zm-1.42-.71v44H328.81v-44ZM327.39,324H184.61v-41.2H327.39ZM184.61,282.1v.71H327.39v-.71Z"/><rect class="19e8085a-b5a2-4068-bcca-587f41434423" x="328.1" y="282.1" width="144.19" height="42.62"/><path class="19e8085a-b5a2-4068-bcca-587f41434423" d="M328.81,282.1v.71H471.58v-.71Zm-1.42-.71v44H473v-44ZM471.58,324H328.81v-41.2H471.58ZM328.81,282.1v.71H471.58v-.71Z"/><path class="19e8085a-b5a2-4068-bcca-587f41434423" d="M471.58,281.39v44H473v-44Z"/></svg>