<svg xmlns="http://www.w3.org/2000/svg" viewBox="0 0 148.44 108.86"><defs><style>.cls-1{fill:#311e69;}.cls-2{fill:#ad263d;}.cls-3{fill:#f46822;}.cls-4{fill:#c63f20;}.cls-5{fill:#ff9d3b;}.cls-6{fill:#ff6161;}.cls-7{fill:#614cd4;}.cls-8{fill:#ffd140;}.cls-9{fill:#1e1240;}.cls-10{fill:#fff;}.cls-11{fill:#e8e8e8;}.cls-12{fill:#ffb03b;}.cls-13{fill:#ff9147;}.cls-14{fill:#ffcc80;}.cls-15{fill:#a399ff;}.cls-16{fill:#7da3ab;}.cls-17{fill:#7098a1;}.cls-18{fill:#c5dbe0;}.cls-19{fill:#f0f8fa;}.cls-20{fill:#ffc285;}</style></defs><title>Operarios</title><g id="Layer_2" data-name="Layer 2"><g id="Layer_1-2" data-name="Layer 1"><path class="cls-1" d="M32.72,23.83H26.4a1,1,0,0,1-.88-.53h0a1,1,0,0,1,0-.93h0a1,1,0,0,1,.88-.53h6.32a1,1,0,0,1,1,1h0A1,1,0,0,1,32.72,23.83Z"/><path class="cls-2" d="M30.09,20.1s-2.95.67-3.08,2,.38.2.38.2a2,2,0,0,0,.29,1.56,1.36,1.36,0,0,0,1.57.17c0-.17.31-1.85.84-2s1.11-.12,1-.58S31.23,20.05,30.09,20.1Z"/><path class="cls-2" d="M48.27,6.37c-1.1-.48-3.15,2.61-3.75,6a7.63,7.63,0,0,1-2.23,4.43,7.22,7.22,0,0,1-3.59,1.56c-1.18.19-8.7.6-9.14,2.44-.48,2.05,8.69,4.17,16.08-.2C49.88,18.05,51.13,7.62,48.27,6.37Z"/><path class="cls-1" d="M48.27,6.37c-1.1-.48-3.15,2.61-3.75,6a7.82,7.82,0,0,1-2,4.26,7.34,7.34,0,0,0,3.35,3.84C49.91,17.72,51.08,7.6,48.27,6.37Z"/><path class="cls-3" d="M53,19.39c-1.36-1.28-7,1.17-7,1.17S44,26.5,43,31a27.5,27.5,0,0,0-.55,3.16c-.4,4.3-.34,18.49,1.81,19.58,2.43,1.23,3.56-.22,3.71-.84,1-3.81.86-12.9,0-15.36-.18-.56,1.29-3.45,2.06-5C50.66,31.38,55.81,22.06,53,19.39Z"/><path class="cls-4" d="M52.9,26.26c-1.18.11-3.29.53-4,2.15-1,2.3-4.18,4.79-3.36,7.28S48,38.33,46.9,40.4s-2.09,3-1.38,5.16-.59,6.51.62,8.27c.07.1.14.22.21.34A1.93,1.93,0,0,0,48,52.88c1-3.81.86-12.9,0-15.36-.18-.56,1.29-3.45,2.06-5A50.06,50.06,0,0,0,52.9,26.26Z"/><path class="cls-3" d="M59.36,38.69s.5-9.37-.49-14.56h0c0-.2-.49-3.79-.59-5.14a14.81,14.81,0,0,1-11.9-.29s-.55,1.67-.64,2.24c-.22,1.31,1.79,1.74,4.64,1.87.72,3.9,2.16,12.52,2.52,16.93S53.64,53.39,56,53.83c2.67.49,4.1-.49,4.22-1.12C60.74,50.05,59.36,38.69,59.36,38.69Z"/><path class="cls-3" d="M59.36,38.69s.5-9.37-.49-14.56h0c0-.2-.49-3.79-.59-5.14a14.81,14.81,0,0,1-11.9-.29s-.55,1.67-.64,2.24c-.22,1.31,1.79,1.74,4.64,1.87.72,3.9,2.16,12.52,2.52,16.93S53.64,53.39,56,53.83c2.67.49,4.1-.49,4.22-1.12C60.74,50.05,59.36,38.69,59.36,38.69Z"/><path class="cls-4" d="M60.24,52.71c.5-2.66-.88-14-.88-14s.5-9.37-.49-14.56h0c0-.2-.49-3.79-.59-5.14a13.52,13.52,0,0,1-3.79,1,7.18,7.18,0,0,0,0,3.35,29.59,29.59,0,0,1,2,8.52c0,2.75,2,8.51.72,10.51s-1.06,2.19-1.41,4.66c-.23,1.63-1.54,1.08-2.09,1.79.44,2.65,1.11,4.77,2.23,5C58.69,54.32,60.12,53.34,60.24,52.71Z"/><path class="cls-5" d="M45.74,20.94c.2-1.19,1.23-3.29,1.19-5.62C46.86,11,45.59,7,48.53,5.94c3.93-1.42,11.44-.05,10.8,4.68-.25,1.85-1.15,2.56-1.21,4.76,0,1.52.35,6,.38,6.36.13,1.82-3.07,1.71-4.89,1.72C49,23.5,45.42,22.79,45.74,20.94Z"/><path class="cls-1" d="M45.75,21.09c-.16.52-.43,1.38-.74,2.44,1.74.37,6.57,2.41,9.47.23C55.91,22.68,48.39,21.3,45.75,21.09Z"/><path class="cls-3" d="M53.64,5.52a13.13,13.13,0,0,1,.17,4c-.33,1.26-1.35,3.55-1,6A70.21,70.21,0,0,1,53,23.46h.57c1.82,0,5,.1,4.89-1.72,0-.4-.43-4.84-.38-6.36.06-2.2,1-2.91,1.21-4.76C59.74,7.6,56.83,6,53.64,5.52Z"/><path class="cls-6" d="M56.52,8.09c-2.67,1.56-1.65,9.7-3.36,11.26-1.2,1.1-8.79-.46-10.08,1.16s7.13,4.77,11.81,3.12,5-13,4.38-14.54A1.76,1.76,0,0,0,56.52,8.09Z"/><path class="cls-2" d="M59.4,14.06l-3.8,4.73a2.6,2.6,0,0,1-.46,2.54,3,3,0,0,1-2.79.94c-1.25-.09-2.89-.53-4.31-.54s-4.2-1.16-4.61-.27a.84.84,0,0,0,0,.17c1.66,1.58,7.78,3.32,11.51,2C57.78,22.61,59,17.89,59.4,14.06Z"/><path class="cls-7" d="M59.27,9.09a1.76,1.76,0,0,0-2.75-1c-2.05,1.19-1.93,6.25-2.53,9.25a5.05,5.05,0,0,0,4.77,2.07C60.16,15.46,59.71,10.11,59.27,9.09Z"/><path class="cls-1" d="M58.76,19.41c1.4-3.95,1-9.3.51-10.32-.51-1.18-1.29-1.45-2-1.29a7.77,7.77,0,0,0,.44,1.7,2.53,2.53,0,0,1,0,2.77c-.63,1.49-1,2.32-.82,3.29s-1.18,2-1.27,2.94c0,.09,0,.19,0,.29A6.09,6.09,0,0,0,58.76,19.41Z"/><path class="cls-8" d="M48.49,49.58c.08-.89.14-1.84.17-2.81a14.46,14.46,0,0,1-6.1.32c.08.91.18,1.77.29,2.56A17.12,17.12,0,0,0,48.49,49.58Z"/><path class="cls-8" d="M60.09,45.82a21.9,21.9,0,0,1-6.58,1c.1.87.22,1.73.37,2.53a27.88,27.88,0,0,0,6.39-.78C60.23,47.7,60.16,46.76,60.09,45.82Z"/><path class="cls-3" d="M45.65,49.85a24.3,24.3,0,0,0,2.84-.27h0l.06-.66v0c.05-.68.08-1.4.11-2.12h0a10.62,10.62,0,0,1-2.91.49C45.76,48.07,45.7,49,45.65,49.85Z"/><path class="cls-9" d="M46.93,54.84a13.76,13.76,0,0,1-.32-1.73,1.56,1.56,0,0,0-1.15-1c-.34-.09-1.86-.32-2.06-.05s.81,1.72.52,2.19c-.13.2-2.4,1.32-2.4,2.31,0,.45,5,.44,5.77,0C47.71,56.31,47.35,55.39,46.93,54.84Z"/><path class="cls-7" d="M54.64,6.32c-.55-.8-2-1-3.65-.51s-.44,5-.44,5S55.2,7.13,54.64,6.32Z"/><path class="cls-1" d="M52.4,2s1.06,2.2.06,2.59-2.12-2-1.68-2.4S52.4,2,52.4,2Z"/><path class="cls-6" d="M52.09,3.14,53.73,6c.12.37-1.23,1.52-2,1.23a17.48,17.48,0,0,1-.91-2.87Z"/><path class="cls-1" d="M50.87,4.44c.06.24.24.92.42,1.55A1.88,1.88,0,0,0,52,5.36,1.9,1.9,0,0,0,52.24,4S51.38,4.25,50.87,4.44Z"/><path class="cls-6" d="M51.43,2.51l.83,1.41a1,1,0,0,1-.43,1.32,2.77,2.77,0,0,1-1.18.31c-.45,0-.76-.33-.89-.89a5.3,5.3,0,0,1,0-1.85C49.84,1.93,50.82,1.64,51.43,2.51Z"/><path class="cls-10" d="M50.73,4s-.85,0-.86.22c0,0,0,.11.24.11A.77.77,0,0,0,50.73,4Z"/><path class="cls-2" d="M50.39,5c.46-.2,1,.45,1.7-.43a1.29,1.29,0,0,0,.15-.69l0,0a1,1,0,0,1-.43,1.32,2.77,2.77,0,0,1-1.18.31A.72.72,0,0,1,50,5.22,2.25,2.25,0,0,0,50.39,5Z"/><polygon class="cls-11" points="51.69 2.38 52.86 2.7 52.87 3.18 51.39 2.62 51.69 2.38"/><path class="cls-1" d="M51.25,2.4a2.68,2.68,0,0,0,.1.83c.1.2.4,0,.42-.31S51.54,2.3,51.25,2.4Z"/><path class="cls-6" d="M51.66,3.19a1.59,1.59,0,0,0,.06-.3c0-.19.1-.47.37-.3s.22,1.26-.26,1.29S51.58,3.43,51.66,3.19Z"/><path class="cls-12" d="M49.17,1.94l0-.25A1.51,1.51,0,0,1,50.32.38c.12,0,.21-.27.35-.32.63-.2.83.17,1,.19.63.08.79.32,1,1.08s0,.89,0,.89a8.21,8.21,0,0,1-2.32.53C49.55,2.75,49.1,2.41,49.17,1.94Z"/><path class="cls-13" d="M52.71,1.33c-.2-.76-.36-1-1-1.08l-.1,0A1.54,1.54,0,0,0,51,.74a4.5,4.5,0,0,0-.36,1.55c0,.09.24.24.49.38a10.48,10.48,0,0,0,1.57-.45S52.89,2.07,52.71,1.33Z"/><path class="cls-14" d="M49.26,2.22c-.11-.13-.33.84.44.9a2.53,2.53,0,0,0,2.23-.63S49.79,2.84,49.26,2.22Z"/><path class="cls-3" d="M60.09,45.82a18.13,18.13,0,0,1-4.16.87c0,.12,0,.24,0,.37-.23,1.63-1.54,1.08-2.09,1.79l.09.51a27.88,27.88,0,0,0,6.39-.78C60.23,47.7,60.16,46.76,60.09,45.82Z"/><path class="cls-9" d="M58.31,54.84A15.84,15.84,0,0,1,58,53.11a1.56,1.56,0,0,0-1.15-1c-.34-.09-1.86-.32-2.06-.05s.81,1.72.52,2.19c-.13.2-2.4,1.32-2.4,2.31,0,.45,5,.44,5.77,0C59.09,56.31,58.73,55.39,58.31,54.84Z"/><polygon class="cls-7" points="34.58 53.71 34.58 47.14 32.93 47.14 32.93 53.71 32.49 54.35 32.49 58.42 33.75 58.42 35.02 58.42 35.02 54.35 34.58 53.71"/><polygon class="cls-1" points="32.93 50.33 34.58 50.64 34.58 47.14 32.93 47.14 32.93 50.33"/><path class="cls-15" d="M36.36,44.38h0V34.21H31.15V44.38h0a.39.39,0,0,0-.39.4v.49a.39.39,0,0,0,.39.4h0A1.87,1.87,0,0,0,33,47.48H34.5a1.85,1.85,0,0,0,1.85-1.81h0a.4.4,0,0,0,.39-.4v-.49A.4.4,0,0,0,36.36,44.38Z"/><path class="cls-7" d="M36.36,45.67a.4.4,0,0,0,.39-.4v-.49a.4.4,0,0,0-.39-.4V34.21H31.15v1.37s3.09,1.45,3.21,3.17,0,3.66,0,4.52v.07a1.32,1.32,0,0,0,1.31,1.26h0v.88H34.28a.55.55,0,0,0-.54.66,3.9,3.9,0,0,1,0,1.34h.75a1.85,1.85,0,0,0,1.85-1.81Z"/><path class="cls-8" d="M31.15,34.31s-3.43-7.62-.22-14.45A1.6,1.6,0,0,1,32.36,19h5.77a2.35,2.35,0,0,1,2.35,2.35V27a6,6,0,0,1-1.3,3.73l-2.83,3.57Z"/><path class="cls-5" d="M38.13,19H37a4.55,4.55,0,0,0-1,1.82s-2.21,5.31-.75,13.54h1.14l2.83-3.57A6,6,0,0,0,40.48,27V21.3A2.35,2.35,0,0,0,38.13,19Z"/><path class="cls-15" d="M37.78,27.37h0a1.45,1.45,0,0,1-1.44-1.45V22.21a1.45,1.45,0,0,1,1.44-1.44h0a1.44,1.44,0,0,1,1.44,1.44v3.71A1.44,1.44,0,0,1,37.78,27.37Z"/><path class="cls-7" d="M38.19,27.37h0a1.45,1.45,0,0,1-1.44-1.45V22.21a1.45,1.45,0,0,1,1.44-1.44h0a1.45,1.45,0,0,1,1.45,1.44v3.71A1.45,1.45,0,0,1,38.19,27.37Z"/><path class="cls-1" d="M45,23.83H38.71a1,1,0,0,1-.88-.53h0a1,1,0,0,1,0-.93h0a1,1,0,0,1,.88-.53H45a1,1,0,0,1,1,1h0A1,1,0,0,1,45,23.83Z"/><path class="cls-1" d="M31.79,20.17l.48-1a1.16,1.16,0,0,1,.25-.36l.28-.29a.63.63,0,0,1,.45-.18h3.49a.63.63,0,0,1,.63.62h0a1.3,1.3,0,0,0-.57.59l-.46,1a.42.42,0,0,1-.38.24H32.18A.43.43,0,0,1,31.79,20.17Z"/><path class="cls-6" d="M44.15,20.3a3.54,3.54,0,0,0-1.93,0c-.8.34-2.31,1.73-1,3.32.42.52.66-1.06,2.87-1.54C45,21.93,44.15,20.3,44.15,20.3Z"/><path class="cls-16" d="M95.74,106.39A8.06,8.06,0,0,0,99.83,92.6c-4.89-4.64-10.7-9.37-14.54-9.87-7.74-1-8.89,0-8.89,0S66.93,64.5,53.16,63.07s-29,18.06-29,18.06S3.23,92.62.08,100.65C-2.57,107.38,64.89,111.9,95.74,106.39Z"/><path class="cls-17" d="M85.29,82.73c-7.74-1-8.89,0-8.89,0S66.93,64.5,53.16,63.07a17.49,17.49,0,0,0-7.77,1.12c4.68,2.15,10.41,5.39,9,7.84-2.3,4,11.86,9.38,14.73,12.44s9.18,0,9.18,0,11.67,9.75,0,10.14-29.27-5-29.27-5-2.68,1.15-12,2.3c-6.86.84-16.26-3.54-20.83-6C9.89,90.05,1.93,95.94.08,100.65c-2.65,6.73,64.81,11.25,95.66,5.74A8.06,8.06,0,0,0,99.83,92.6C94.94,88,89.13,83.23,85.29,82.73Z"/><path class="cls-7" d="M111.86,40.1s-2.54-18.24-.55-20.76,7.13,14.21,7,19.05S111.86,40.1,111.86,40.1Z"/><path class="cls-1" d="M114.81,41c1.69.25,3.48-.08,3.53-2.64.08-4.2-3.77-17.32-6.09-19.1-.11,1.51-.17,4.72,1,7,1.53,3.08,1.85,4,1.75,7.74C114.9,36.57,114.86,38.92,114.81,41Z"/><path class="cls-3" d="M114.59,40.55s-3.52,15.3-3.69,24.1c-.13,7.06,2.53,20.4,6.41,21.19s4.73-7.5,1.94-22.21c-1-5.07,9.94-24,4.35-28.86C121.29,32.76,114.59,40.55,114.59,40.55Z"/><path class="cls-4" d="M119.45,46c-1.62,3.93-4.53,9.06-3.86,12.47s-1.58,8.85-.3,13c1.19,3.83,3.67,12.09,4.17,13.6,1.92-2.45,2-10-.21-21.39-.74-3.91,5.59-16.1,5.94-23.68C124.45,37.69,120.64,43.12,119.45,46Z"/><path class="cls-1" d="M113.57,83.29c.86,3.64,2,6.21,1.75,6.49s-5.65,2.61-5.76,3.19c-.18,1,10,1.57,11.72.73.92-.44.15-2.63-.14-4-.07-.31.25-4,.13-7.2-1.4-1.36-3.37-1.55-5-1.59C114.44,80.82,113.56,81.66,113.57,83.29Z"/><path class="cls-3" d="M132.94,62.7s5.49-26.88-.82-29.74S121,36,121,36s2.64,23,4.08,30.59c1,5.51,5.31,21.49,5,21.88s5.67,1.06,5.37-.25c-.08-.35.4-10.3-.34-17.75A29.78,29.78,0,0,0,132.94,62.7Z"/><path class="cls-4" d="M135.19,70.49a29.78,29.78,0,0,0-2.25-7.79s4.24-20.79,1-27.75c-1.6,4.42-5.93,16.9-5.51,21,.52,5-2.25,3.27,0,9.43s3.06,8.83,3.29,13.68a60,60,0,0,0,1.05,10c1.45.07,2.93-.08,2.78-.75C135.45,87.89,135.93,77.94,135.19,70.49Z"/><path class="cls-6" d="M118.1,39.59c-.87-5.43-5.11-3.4-5.77-1.76-1.74,4.36,1.54,13.52,3.32,19.23.71,2.28,1.48,3.79,2.24,3.55,1.3-.42,2-2.11,2.42-4.38C121.27,50.57,118.39,41.42,118.1,39.59Z"/><path class="cls-1" d="M132.74,33.34l-10.84,5a16.73,16.73,0,0,0,6.47.95,21.13,21.13,0,0,0,6.4-1.45C134.41,35.81,133.77,34.18,132.74,33.34Z"/><path class="cls-5" d="M134.06,34.75c1.66-7.45-1.49-23.81-9.32-24.69-5-.57-16.26,6.38-13.13,13.54.82,1.87,3.63,2.87,4.77,5,.7,1.27-.55,5.06-.4,6.66.28,3,4.63,3.85,7.58,3.39C131.09,37.44,133.4,37.74,134.06,34.75Z"/><path class="cls-3" d="M129,37.83c3.35-.5,4.63-1,5.1-3.08,1.34-6-.44-17.76-5.28-22.59-1,.58-2.07,1.26-2.07,1.26s-.1,7.58,1.7,11.4.84,8.6.58,12.62Z"/><path class="cls-7" d="M97.2,85.86l2.12,1.76,43.73-52.73a1.37,1.37,0,0,0-.17-1.93h0a1.37,1.37,0,0,0-1.95.17Z"/><path class="cls-6" d="M116.56,59.43a16.51,16.51,0,0,0-.3,3.8c.24.74-.4,2,0,2.1s1.35-1.39,1.44-2.41,1-1.69,1-2.74S116.66,58.78,116.56,59.43Z"/><path class="cls-6" d="M119.19,65.05a1.63,1.63,0,0,1-1,.2c-.35,0-.69-.22-.52-.77.55-1.7,2-1.79,2.08-2.52s.1-1.4.79-1.36S121.35,63.8,119.19,65.05Z"/><path class="cls-6" d="M124.45,12.55a1.93,1.93,0,0,1,1.88-2.47c4.56.05,14.63.79,20.75,5.94,3.66,3.07-.49,20.09-7.07,18.07-2.49-.76,1.09-14.47,1.09-14.47s-11.7-.49-14.82-3.56A8.17,8.17,0,0,1,124.45,12.55Z"/><path class="cls-1" d="M128.33,84.39c.8,1.83,2,5.15,1.8,5.43s-5.59,2.74-5.68,3.32c-.17,1,10,1.34,11.73.46.9-.46.09-2.63-.24-4-.07-.31.91-3.29.86-4.61a12.9,12.9,0,0,0-6.47-2.8C128.51,82.15,128.28,82.77,128.33,84.39Z"/><path class="cls-2" d="M147.08,16a17.69,17.69,0,0,0-2.92-2l.76,2.79s2.63,3.92,1.51,6.41-3.82,6.86-3.82,6.86A7.68,7.68,0,0,0,141.08,34a1.8,1.8,0,0,0,0,.22C147,34.23,150.53,18.92,147.08,16Z"/><path class="cls-6" d="M139.06,32.79c-.87.91-2.17,2.54-1.9,4a.35.35,0,0,0,.61.16l.78-.93s1.1.58.45,3.31a.63.63,0,0,0,.67.79,2,2,0,0,0,1.37-.83c1-1.32,2.14-5.09,1.25-6.31a2.19,2.19,0,0,0-.76-.65A2.13,2.13,0,0,0,139.06,32.79Z"/><path class="cls-1" d="M131.68,16.55l-5-.83s2.34,4.3,6.44,4.89A27.82,27.82,0,0,0,131.68,16.55Z"/><path class="cls-18" d="M105.83,88a59.09,59.09,0,0,1-6.6-3.68c-.16-.13-.36-.3-.58-.5h0a30.5,30.5,0,0,1-4.72-2.15,2.12,2.12,0,0,0-2.62.45C87.49,86.42,83.16,94,89.1,97.75c7.92,5,15-4.16,17.27-7.72A1.38,1.38,0,0,0,105.83,88Z"/><path class="cls-16" d="M97.83,86.27s-7.17,7-7.09,9.32S97,90.82,97.83,86.27Z"/><path class="cls-16" d="M84.09,99.86h19.33a1.1,1.1,0,0,0,.58-2c-2.18-1.35-4.94-2.82-6.12-2.43-2.08.69-3.08,1.39-4.08,1.23s-2.46-1.93-5-2S83.63,98,84.09,99.86Z"/><path class="cls-7" d="M116.18,13.45s-1.85.77-1.59,2.27,4.22,7,4.22,7,3-10.29,1.77-11S116.18,13.45,116.18,13.45Z"/><path class="cls-7" d="M145.9,15.11c-6.17-4.33-15.29-5-19.57-5a1.93,1.93,0,0,0-1.88,2.47,8.17,8.17,0,0,0,1.83,3.51c3.12,3.07,14.82,3.56,14.82,3.56S144.79,18.2,145.9,15.11Z"/><path class="cls-1" d="M124.59,11.13a4.07,4.07,0,0,0,2.76.67c2.28-.08,2.7-.79,6.06,0a13.91,13.91,0,0,1,5.06,2A7,7,0,0,0,141.25,15c1.74.4,1.2-1.26,2.61.44.37.45.72.92,1.06,1.37a6.25,6.25,0,0,0,1-1.71c-6.17-4.33-15.29-5-19.57-5A1.93,1.93,0,0,0,124.59,11.13Z"/><path class="cls-1" d="M116.23,6.37s2.92,2.94,1.54,4.13-4.53-2.11-4-2.92S116.23,6.37,116.23,6.37Z"/><path class="cls-6" d="M116.71,8.76l3,3.81c.22.62-2.54,3.55-3.81,3.11-.37-.13-.5-.76-.46-1.51l.38-4.12Z"/><path class="cls-1" d="M115.71,10.88l1.53-.88a3.14,3.14,0,0,1-.35,2.29,3,3,0,0,1-1.42,1.28Z"/><path class="cls-6" d="M114.94,7.67l2.11,1.79a1.69,1.69,0,0,1,0,2.36A4.67,4.67,0,0,1,115.37,13c-.69.32-1.39-.1-1.91-.94a9.18,9.18,0,0,1-1.1-2.93C112.07,7.62,113.48,6.6,114.94,7.67Z"/><path class="cls-10" d="M114.63,10.42s-1.35.5-1.25.82c0,0,.06.18.44,0A1.31,1.31,0,0,0,114.63,10.42Z"/><path class="cls-2" d="M114.66,12.26c.63-.59,1.84.17,2.49-1.65A2.13,2.13,0,0,0,117,9.42l0,0a1.69,1.69,0,0,1,0,2.36A4.67,4.67,0,0,1,115.37,13a1.18,1.18,0,0,1-1.23-.17C114.28,12.74,114.47,12.44,114.66,12.26Z"/><path class="cls-11" d="M115.32,7l1.74.08a.39.39,0,0,1,.35.26l.14.57-2.61-.07Z"/><path class="cls-6" d="M115.87,8.52a2.18,2.18,0,0,0,0-.51c0-.33,0-.82.53-.6.72.3.72,2-.08,2.22C115.75,9.76,115.81,9,115.87,8.52Z"/><path class="cls-12" d="M111,8a3.29,3.29,0,0,0-.09-.43A2.6,2.6,0,0,1,112,4.87c.18-.15.19-.55.4-.71.89-.68,1.4-.19,1.77-.27,1.06-.24,1.46.06,2.19,1.18s.55,1.41.55,1.41a14.3,14.3,0,0,1-3.42,2.13C112.06,9.09,111.15,8.81,111,8Z"/><path class="cls-13" d="M116.33,5.07c-.73-1.12-1.13-1.42-2.19-1.18H114A2.6,2.6,0,0,0,113.32,5a8.06,8.06,0,0,0,.3,2.69c0,.14.51.25,1,.33a17.8,17.8,0,0,0,2.27-1.58S117,6.15,116.33,5.07Z"/><path class="cls-14" d="M111.29,8.4c-.24-.14-.06,1.53,1.22,1.21,2.7-.7,3.22-2.26,3.22-2.26S112.49,9.1,111.29,8.4Z"/><path class="cls-19" d="M134.33,26.93c-1.19.67-4.45,2.39-7.19,2.58l.37,3.49s4.29-.22,7-2.25A33.55,33.55,0,0,0,134.33,26.93Z"/><path class="cls-20" d="M129.43,29.07a26.78,26.78,0,0,1,0,3.69,12.46,12.46,0,0,0,5.1-2V29.69c0-.22,0-.44,0-.66a2,2,0,0,1,0-.25c0-.25,0-.5,0-.75a.76.76,0,0,1,0-.15c0-.3,0-.6-.08-.91v0A25.42,25.42,0,0,1,129.43,29.07Z"/><path class="cls-2" d="M118.34,55.71c.12,1.28.3,2.88.47,4.31a7.33,7.33,0,0,0,1.5-3.79c1-5.66-1.92-14.81-2.21-16.64-.6-3.72-2.79-3.94-4.31-3.17a4.66,4.66,0,0,0,.35,1.93,55.75,55.75,0,0,1,3.24,10.7C117.75,51.85,118.06,52.66,118.34,55.71Z"/><path class="cls-8" d="M135.53,75.83a79.7,79.7,0,0,1-8.18.46c.28,1.13.55,2.25.82,3.34a58.88,58.88,0,0,0,7.43-.5C135.59,78.06,135.56,77,135.53,75.83Z"/><path class="cls-3" d="M135.57,77.51v0c0-.54,0-1.09,0-1.64h0c-1.24.16-2.69.27-4.07.34.11.89.19,1.82.24,2.85,0,.16,0,.33,0,.49,1.31-.1,2.67-.24,3.88-.38Z"/><path class="cls-8" d="M112.05,75.23A40,40,0,0,0,113.3,80a56.27,56.27,0,0,0,7.54-.25,41.11,41.11,0,0,0-.07-5A41.9,41.9,0,0,1,112.05,75.23Z"/><path class="cls-3" d="M120.88,77.34c0-.83,0-1.72-.11-2.66a29.85,29.85,0,0,1-4.32.51c.47,1.54,1,3.2,1.44,4.72,1.09,0,2.12-.13,3-.21h0c0-.35,0-.71,0-1.09v-.06q0-.55,0-1.17Z"/></g></g></svg>