<?xml version="1.0" encoding="utf-8"?>
<!-- Generator: Adobe Illustrator 21.0.0, SVG Export Plug-In . SVG Version: 6.00 Build 0)  -->
<svg version="1.1" xmlns="http://www.w3.org/2000/svg" xmlns:xlink="http://www.w3.org/1999/xlink" x="0px" y="0px"
	 viewBox="0 0 1980 1920" style="enable-background:new 0 0 1980 1920;" xml:space="preserve">
<style type="text/css">
	.st0{display:none;fill:#FFFFFF;}
	.st1{fill:#4183D7;}
	.st2{opacity:0.4;fill:#4183D7;}
	.st3{display:none;}
	.st4{display:inline;fill:#4183D7;}
	.st5{display:inline;}
	.st6{fill:#FFFFFF;}
	.st7{opacity:0.4;fill:#7F8C8D;}
</style>
<g id="Camada_1">
	<rect id="XMLID_1_" class="st0" width="1980" height="1920"/>
	<g id="XMLID_3_">
		<g id="XMLID_2_">
			<polygon id="XMLID_5225_" class="st1" points="1659.4,913 990.3,913 653.8,461.6 1322.9,461.6 			"/>
			<path id="XMLID_691_" class="st2" d="M1544.6,759l-221.7-297.3H653.8L774,622.8c68.1-12.8,200.9-15.7,432.1,55.4
				C1371.9,729.3,1474.7,754.1,1544.6,759z"/>
			<polygon id="XMLID_692_" class="st1" points="634.2,492.4 320.6,913 413,913 680.8,553.7 			"/>
		</g>
		<g id="XMLID_4_">
			<path id="XMLID_5_" class="st1" d="M402.7,983l49.7,163.7L501.8,983h52.4v225.7h-40V1147l4-106.5l-52.2,168.2h-27.4l-52.1-168
				l4,106.3v61.7h-39.9V983H402.7z"/>
			<path id="XMLID_7_" class="st1" d="M621.6,1208.7h-25.5V983h25.5V1208.7z"/>
			<path id="XMLID_9_" class="st1" d="M817,1208.7h-25.7l-97.4-173.9v173.9h-25.7V983h25.7l97.7,174.7V983H817V1208.7z"/>
			<path id="XMLID_11_" class="st1" d="M889.8,1208.7h-25.5V983h25.5V1208.7z"/>
			<path id="XMLID_13_" class="st1" d="M1107.9,1162.2H1038l-13.3,46.5h-42.4l72.1-225.7h37l72.5,225.7h-42.4L1107.9,1162.2z
				 M1048.8,1124.5h48.4l-24.3-84.5L1048.8,1124.5z"/>
			<path id="XMLID_16_" class="st1" d="M1258,1117.4h-45.5v91.3h-25.7V983h64.1c21.8,0,38.6,5.8,50.3,17.4
				c11.7,11.6,17.6,28.4,17.6,50.5c0,14.1-3.3,26.3-9.8,36.7c-6.5,10.4-15.6,18.2-27.2,23.4l45.5,95.8v1.9H1300L1258,1117.4z
				 M1212.5,1093.1h39.2c12.7,0,22.8-3.8,30.2-11.5c7.5-7.7,11.2-17.9,11.2-30.7c0-14-3.6-24.7-10.7-32.1
				c-7.1-7.5-17.4-11.2-30.9-11.3h-39.1V1093.1z"/>
			<path id="XMLID_19_" class="st1" d="M1477.8,1007.3h-62.2v201.3h-25.4v-201.3h-62.1V983h149.7V1007.3z"/>
			<path id="XMLID_21_" class="st1" d="M1615.9,1104.4H1532v80h97.4v24.3h-123V983h121.6v24.3H1532v72.7h83.9V1104.4z"/>
		</g>
	</g>
</g>
<g id="Layer_2" class="st3">
</g>
</svg>
