<svg xmlns="http://www.w3.org/2000/svg" viewBox="0 0 1980 1920"><defs><style>.d958ac36-686a-497e-a4f2-c9561a1e619f{isolation:isolate;}.\37 c40b4d5-cc1c-415c-8bfc-235ef5a033a8,.\38 df232ea-7a0a-4d26-b40c-eb44c4a30a65{fill:#4183d7;}.\37 c40b4d5-cc1c-415c-8bfc-235ef5a033a8{opacity:0.4;mix-blend-mode:screen;}.\30 850a0e3-93fc-46dd-bbe2-668da367ea2d{fill:none;}.\30 5538d2c-a9f9-4b25-8e54-e7c2bf0d7be9{fill:#366db3;}</style></defs><title>logotipo</title><g class="d958ac36-686a-497e-a4f2-c9561a1e619f"><g id="3b1b42d7-8a00-4e19-abc0-a48c45039207" data-name="Camada 1"><g id="91fef01a-570e-48bc-a21a-6c179e45351e" data-name="&lt;Group&gt;"><polygon id="404ab891-60d5-47a9-95c4-8de4c8a07a1e" data-name="&lt;Path&gt;" class="8df232ea-7a0a-4d26-b40c-eb44c4a30a65" points="1659.43 1069.84 990.29 1069.84 653.77 618.5 1322.95 618.5 1659.43 1069.84"/><path id="b5c09833-3976-4ef4-b929-e2aab82a1b5e" data-name="&lt;Path&gt;" class="7c40b4d5-cc1c-415c-8bfc-235ef5a033a8" d="M1544.61,915.83,1322.95,618.5H653.77L774,779.7C842.12,766.89,974.89,764,1206,835.12,1371.92,886.15,1474.65,910.93,1544.61,915.83Z"/><polygon id="abb634ed-d38d-4b26-9a79-b998de43ee6e" data-name="&lt;Path&gt;" class="8df232ea-7a0a-4d26-b40c-eb44c4a30a65" points="634.18 649.22 320.57 1069.84 412.98 1069.84 680.85 710.55 634.18 649.22"/></g><path class="0850a0e3-93fc-46dd-bbe2-668da367ea2d" d="M1252.54,1124.34q-8.77-8-25.68-8-6.58,0-13,.31a48.74,48.74,0,0,0-9.87,1.25v63.58h18.17q17.85,0,28.5-8.14t10.65-26.93Q1261.31,1132.33,1252.54,1124.34Z"/><polygon class="0850a0e3-93fc-46dd-bbe2-668da367ea2d" points="1047.15 1134.5 1045.59 1134.5 1039.04 1169.13 1028.93 1199.86 1023.13 1217.5 1069.93 1217.5 1064.05 1199.86 1053.7 1168.82 1047.15 1134.5"/><polygon class="8df232ea-7a0a-4d26-b40c-eb44c4a30a65" points="455.27 1180.57 448.28 1199.5 484.06 1199.5 449.67 1259.75 496.11 1178.4 509.51 1143.5 511.68 1143.5 507 1186.69 507 1199.5 550 1199.5 550 1081.5 510.98 1081.5 455.27 1180.57"/><polygon class="8df232ea-7a0a-4d26-b40c-eb44c4a30a65" points="433.89 1181.19 375.22 1081.5 336 1081.5 336 1199.5 377 1199.5 377 1186.38 370.69 1143.5 372.45 1143.5 386.25 1178.09 399.16 1199.5 441.49 1199.5 433.89 1181.19"/><rect class="8df232ea-7a0a-4d26-b40c-eb44c4a30a65" x="591" y="1081.5" width="43" height="118"/><polygon class="8df232ea-7a0a-4d26-b40c-eb44c4a30a65" points="789.72 1195.71 707.16 1079.5 676 1079.5 676 1199.5 717 1199.5 717 1185.74 711.95 1151.5 714.38 1151.5 731.56 1185.62 741.5 1199.5 791.6 1199.5 789.72 1195.71"/><polygon class="8df232ea-7a0a-4d26-b40c-eb44c4a30a65" points="804 1195.81 809.05 1229.05 804.56 1199.5 845 1199.5 845 1081.5 804 1081.5 804 1195.81"/><rect class="8df232ea-7a0a-4d26-b40c-eb44c4a30a65" x="886" y="1081.5" width="43" height="118"/><polygon class="8df232ea-7a0a-4d26-b40c-eb44c4a30a65" points="1039.08 1168.94 1045.6 1134.5 1047.15 1134.5 1053.66 1168.63 1063.95 1199.5 1105.99 1199.5 1063.1 1079.5 1031.53 1079.5 988.63 1199.5 1029.03 1199.5 1039.08 1168.94"/><path class="8df232ea-7a0a-4d26-b40c-eb44c4a30a65" d="M1294.08,1183.32q12.55-16.91,12.55-43.85,0-18.16-7.06-30.22a52,52,0,0,0-18.83-18.95,82.92,82.92,0,0,0-26.68-9.71,162.69,162.69,0,0,0-30.29-2.82q-6.59,0-14.44.31t-16.16.94q-8.32.63-16.64,1.72t-15.54,2.35v116.4h115.58A63.38,63.38,0,0,0,1294.08,1183.32Zm-43.41-10q-10.65,8.15-28.5,8.14H1204v-63.58a48.74,48.74,0,0,1,9.87-1.25q6.41-.31,13-.31,16.91,0,25.68,8t8.77,22.08Q1261.31,1165.21,1250.67,1173.35Z"/><path class="8df232ea-7a0a-4d26-b40c-eb44c4a30a65" d="M1276.58,1199.86a66.64,66.64,0,0,1-7.18,3.87A66.14,66.14,0,0,0,1276.58,1199.86Z"/><polygon class="8df232ea-7a0a-4d26-b40c-eb44c4a30a65" points="1319 1119.5 1383 1119.5 1383 1199.5 1426 1199.5 1426 1119.5 1490 1119.5 1490 1081.5 1319 1081.5 1319 1119.5"/><polygon class="8df232ea-7a0a-4d26-b40c-eb44c4a30a65" points="1634 1170.5 1555 1170.5 1555 1119.5 1642 1119.5 1642 1081.5 1512 1081.5 1512 1199.5 1634 1199.5 1634 1170.5"/><rect class="05538d2c-a9f9-4b25-8e54-e7c2bf0d7be9" x="336" y="1199.5" width="41" height="101"/><rect class="05538d2c-a9f9-4b25-8e54-e7c2bf0d7be9" x="507" y="1199.5" width="43" height="101"/><polygon class="05538d2c-a9f9-4b25-8e54-e7c2bf0d7be9" points="448.45 1199.5 445.88 1206.5 444.55 1206.5 441.64 1199.5 398.91 1199.5 435.46 1260.5 449.35 1260.5 484.17 1199.5 448.45 1199.5"/><rect class="05538d2c-a9f9-4b25-8e54-e7c2bf0d7be9" x="591" y="1199.5" width="43" height="101"/><rect class="05538d2c-a9f9-4b25-8e54-e7c2bf0d7be9" x="676" y="1199.5" width="41" height="101"/><polygon class="05538d2c-a9f9-4b25-8e54-e7c2bf0d7be9" points="808.61 1229.5 806.16 1229.5 791.3 1199.5 741.14 1199.5 813.64 1301.5 845 1301.5 845 1199.5 804.07 1199.5 808.61 1229.5"/><polygon class="05538d2c-a9f9-4b25-8e54-e7c2bf0d7be9" points="741.5 1199.86 813.75 1301.5 741.5 1199.86 741.5 1199.86"/><rect class="05538d2c-a9f9-4b25-8e54-e7c2bf0d7be9" x="886" y="1199.5" width="43" height="101"/><polygon class="05538d2c-a9f9-4b25-8e54-e7c2bf0d7be9" points="1064.41 1199.5 1070.41 1217.5 1022.65 1217.5 1028.57 1199.5 988.52 1199.5 952.42 1300.5 995 1300.5 1011.76 1251.5 1079.72 1251.5 1088.58 1276 1097.43 1300.5 1142.2 1300.5 1106.1 1199.5 1064.41 1199.5"/><path class="05538d2c-a9f9-4b25-8e54-e7c2bf0d7be9" d="M1260.5,1206.83h0c.8-.25,1.6-.52,2.38-.79l.9-.33,1.4-.52,1.12-.45,1.07-.44,1.28-.56.75-.35a66.57,66.57,0,0,0,7.18-3.88H1161v101h43v-90.21l22.6,4.09,49.91,86.12h49.59l-50.22-83.92Z"/><rect class="05538d2c-a9f9-4b25-8e54-e7c2bf0d7be9" x="1383" y="1199.5" width="43" height="101"/><polygon class="05538d2c-a9f9-4b25-8e54-e7c2bf0d7be9" points="1555 1262.5 1555 1208.5 1634 1208.5 1634 1199.5 1512 1199.5 1512 1300.5 1644 1300.5 1644 1262.5 1555 1262.5"/></g></g></svg>