<?xml version="1.0" encoding="utf-8"?>
<!-- Generator: Adobe Illustrator 19.0.0, SVG Export Plug-In . SVG Version: 6.00 Build 0)  -->
<svg version="1.1" id="Camada_1" xmlns="http://www.w3.org/2000/svg" xmlns:xlink="http://www.w3.org/1999/xlink" x="0px" y="0px"
	 viewBox="0 0 960 560" style="enable-background:new 0 0 960 560;" xml:space="preserve">
<style type="text/css">
	.st0{fill:#5D1800;stroke:#534741;stroke-width:6;stroke-miterlimit:10;}
	.st1{fill:#5D1800;}
	.st2{fill:#FFFFFF;}
</style>
<symbol  id="murro_de_tijolos" viewBox="-348.6 -79.1 697.2 158.2">
	<polygon id="XMLID_48_" class="st0" points="-207.4,76.1 -69.1,76.1 -69.1,27.1 -207.4,27.1 	"/>
	<polygon id="XMLID_47_" class="st0" points="-69.1,76.1 69.1,76.1 69.1,27.1 -69.1,27.1 	"/>
	<polygon id="XMLID_46_" class="st0" points="69.1,76.1 207.4,76.1 207.4,27.1 69.1,27.1 	"/>
	<polygon id="XMLID_45_" class="st0" points="-276.5,27.1 -138.2,27.1 -138.2,-21.9 -276.5,-21.9 	"/>
	<polygon id="XMLID_44_" class="st0" points="-138.2,27.1 0,27.1 0,-21.9 -138.2,-21.9 	"/>
	<polygon id="XMLID_43_" class="st0" points="0,27.1 138.2,27.1 138.2,-21.9 0,-21.9 	"/>
	<polygon id="XMLID_38_" class="st0" points="138.2,27.1 276.5,27.1 276.5,-21.9 138.2,-21.9 	"/>
	<polygon id="XMLID_37_" class="st0" points="-345.6,-27.1 -207.4,-27.1 -207.4,-76.1 -345.6,-76.1 	"/>
	<polygon id="XMLID_36_" class="st0" points="-207.4,-27.1 -69.1,-27.1 -69.1,-76.1 -207.4,-76.1 	"/>
	<polygon id="XMLID_19_" class="st0" points="-69.1,-27.1 69.1,-27.1 69.1,-76.1 -69.1,-76.1 	"/>
	<polygon id="XMLID_18_" class="st0" points="69.1,-27.1 207.4,-27.1 207.4,-76.1 69.1,-76.1 	"/>
	<polygon id="XMLID_17_" class="st0" points="207.4,-27.1 345.6,-27.1 345.6,-76.1 207.4,-76.1 	"/>
</symbol>
<g id="XMLID_1_">
	
		<use xlink:href="#murro_de_tijolos"  width="697.2" height="158.2" id="XMLID_2_" x="-348.6" y="-79.1" transform="matrix(1.1323 0 0 -1.1323 479.9999 347.7475)" style="overflow:visible;"/>
	<g id="XMLID_3_">
		<g id="XMLID_4_">
			<path id="XMLID_5_" class="st1" d="M323.5,198.8h-14.7l-2.5-2.5l0-19.5l0.8-17.2l-13.6,37.6l-2.4,1.6h-10.1l-2.4-1.6l-13.6-37.5
				l0.8,17.3v19.4l-2.5,2.5h-14.6l-2.5-2.5v-71.1l2.5-2.5h19.1l2.4,1.7l15.9,44.9l15.8-44.9l2.4-1.7h19.2l2.5,2.5v71.1L323.5,198.8z
				 M311.3,193.8h9.7v-66.1h-15l-17.6,49.9l-4.7,0l-17.7-49.9h-14.9v66.1h9.6v-16.9l-1.5-33.4l4.8-1l18.5,51.3h6.6l18.6-51.3l4.8,1
				l-1.5,33.5V193.8z"/>
			<path id="XMLID_8_" class="st1" d="M351.9,198.8h-14.6l-2.5-2.5v-71.1l2.5-2.5h14.6l2.5,2.5v71.1L351.9,198.8z M339.8,193.8h9.6
				v-66.1h-9.6V193.8z"/>
			<path id="XMLID_11_" class="st1" d="M423.3,198.8h-14.6l-2.1-1.2l-23.9-39.2v37.9l-2.5,2.5h-14.6l-2.5-2.5v-71.1l2.5-2.5h14.6
				l2.1,1.2l23.9,39.3v-38l2.5-2.5h14.6l2.5,2.5v71.1L423.3,198.8z M410.1,193.8h10.7v-66.1h-9.6v44.4l-4.6,1.3l-27.8-45.7H368v66.1
				h9.6v-44.3l4.6-1.3L410.1,193.8z"/>
			<path id="XMLID_14_" class="st1" d="M451.7,198.8H437l-2.5-2.5v-71.1l2.5-2.5h14.6l2.5,2.5v71.1L451.7,198.8z M439.5,193.8h9.6
				v-66.1h-9.6V193.8z"/>
		</g>
		<g id="XMLID_21_">
			<g id="XMLID_22_">
				<path id="XMLID_23_" class="st1" d="M513.2,181.6h-25.7l-4.9,14.6h-15.6l26.5-71.1h13.6l26.6,71.1h-15.6L513.2,181.6z
					 M491.5,169.8h17.8l-8.9-26.6L491.5,169.8z"/>
				<path id="XMLID_26_" class="st2" d="M533.7,198.8h-15.6l-2.4-1.7l-4.4-12.9h-22.1l-4.3,12.9l-2.4,1.7h-15.6l-2.3-3.4l26.5-71.1
					l2.3-1.6h13.6l2.3,1.6l26.6,71.1L533.7,198.8z M519.9,193.8h10.2l-24.7-66.1h-10.1l-24.6,66.1h10.2l4.3-12.9l2.4-1.7h25.7
					l2.4,1.7L519.9,193.8z M509.3,172.3h-17.8l-2.4-3.3l8.8-26.6l4.7,0l8.9,26.6L509.3,172.3z M494.9,167.3h10.8l-5.4-16.2
					L494.9,167.3z"/>
			</g>
			<g id="XMLID_31_">
				<path id="XMLID_32_" class="st1" d="M566.7,170.3H555v26h-14.6v-71.1h26.4c4.1,0,7.8,0.5,11,1.4c3.3,0.9,6,2.3,8.3,4.1
					s4,4,5.2,6.7c1.2,2.7,1.8,5.8,1.8,9.3c0,2.6-0.3,4.9-0.9,7c-0.6,2.1-1.4,3.9-2.5,5.5c-1.1,1.6-2.4,3-4,4.2
					c-1.6,1.2-3.3,2.2-5.3,3.1l15.4,29.1v0.7H580L566.7,170.3z M555,158.4h11.8c1.9,0,3.6-0.3,5.1-0.8c1.4-0.5,2.7-1.2,3.6-2.1
					c1-0.9,1.7-2,2.2-3.3c0.5-1.3,0.7-2.7,0.7-4.3c0-3.4-1-6-2.9-7.9c-1.9-1.9-4.8-2.9-8.8-2.9H555V158.4z"/>
				<path id="XMLID_35_" class="st2" d="M595.7,198.8H580l-2.2-1.4l-12.6-24.7h-7.6v23.5l-2.5,2.5h-14.6l-2.5-2.5v-71.1l2.5-2.5
					h26.4c4.3,0,8.3,0.5,11.7,1.5c3.6,1,6.6,2.5,9.1,4.6c2.5,2,4.5,4.6,5.9,7.6c1.3,3,2,6.5,2,10.3c0,2.8-0.3,5.4-1,7.7
					c-0.7,2.3-1.6,4.4-2.9,6.3c-1.3,1.8-2.8,3.4-4.5,4.8c-1,0.8-2.2,1.6-3.4,2.2l14.2,26.8l0.3,1.2v0.7L595.7,198.8z M581.5,193.8
					h10.4l-13.8-26.1l1.2-3.4c1.8-0.8,3.4-1.7,4.8-2.8c1.3-1,2.5-2.3,3.5-3.7c0.9-1.4,1.7-3,2.2-4.8c0.5-1.8,0.8-4,0.8-6.3
					c0-3.1-0.5-5.9-1.6-8.2c-1-2.3-2.5-4.2-4.5-5.8c-2-1.6-4.5-2.8-7.4-3.6c-3-0.9-6.5-1.3-10.3-1.3h-23.9v66.1h9.6v-23.5l2.5-2.5
					h11.7l2.2,1.4L581.5,193.8z M566.8,160.9H555l-2.5-2.5v-21.3l2.5-2.5h11.8c4.6,0,8.2,1.2,10.5,3.6c2.4,2.4,3.6,5.7,3.6,9.7
					c0,1.9-0.3,3.6-0.9,5.2c-0.6,1.6-1.5,3-2.8,4.2c-1.2,1.2-2.7,2.1-4.5,2.7C571,160.6,569,160.9,566.8,160.9z M557.5,155.9h9.3
					c1.6,0,3.1-0.2,4.2-0.6c1.1-0.4,2-0.9,2.7-1.6c0.7-0.7,1.2-1.5,1.6-2.4c0.4-1,0.6-2.2,0.6-3.4c0-2.7-0.7-4.7-2.1-6.1
					c-1.4-1.4-3.8-2.1-7-2.1h-9.3V155.9z"/>
			</g>
			<g id="XMLID_49_">
				<path id="XMLID_50_" class="st1" d="M655.3,137.1h-21.8v59.2h-14.6v-59.2h-21.5v-11.9h57.9V137.1z"/>
				<path id="XMLID_52_" class="st2" d="M633.5,198.8h-14.6l-2.5-2.5v-56.7h-19l-2.5-2.5v-11.9l2.5-2.5h57.9l2.5,2.5v11.9l-2.5,2.5
					H636v56.7L633.5,198.8z M621.3,193.8h9.6v-56.7l2.5-2.5h19.3v-6.9h-52.9v6.9h19l2.5,2.5V193.8z"/>
			</g>
			<g id="XMLID_55_">
				<path id="XMLID_56_" class="st1" d="M706.4,165.5h-28.1v19h33v11.8h-47.7v-71.1h47.6v11.9h-32.9V154h28.1V165.5z"/>
				<path id="XMLID_58_" class="st2" d="M711.3,198.8h-47.7l-2.5-2.5v-71.1l2.5-2.5h47.6l2.5,2.5v11.9l-2.5,2.5h-30.4v11.9h25.6
					l2.5,2.5v11.5l-2.5,2.5h-25.6v14h30.5l2.5,2.5v11.8L711.3,198.8z M666.1,193.8h42.7V187h-30.5l-2.5-2.5v-19l2.5-2.5h25.6v-6.5
					h-25.6l-2.5-2.5v-16.9l2.5-2.5h30.4v-6.9h-42.6V193.8z"/>
			</g>
		</g>
	</g>
</g>
</svg>
