<svg xmlns="http://www.w3.org/2000/svg" viewBox="0 0 174.19 49.84"><title>logotipo</title><g style="isolation:isolate"><g id="Layer_1" data-name="Layer 1"><g id="_Group_" data-name="&lt;Group&gt;"><g id="_Group_2" data-name="&lt;Group&gt;"><polygon id="_Path_" data-name="&lt;Path&gt;" points="69.73 22.57 36.27 22.57 19.45 0 52.91 0 69.73 22.57" style="fill:#444"/><path id="_Path_2" data-name="&lt;Path&gt;" d="M76.9,89.95,65.81,75.08H32.35l6,8.06c3.41-.64,10-.79,21.6,2.77C68.26,88.46,73.4,89.7,76.9,89.95Z" transform="translate(-12.91 -75.08)" style="fill:#444;opacity:0.4;mix-blend-mode:screen"/><polygon id="_Path_3" data-name="&lt;Path&gt;" points="18.47 1.54 2.79 22.57 7.41 22.57 20.8 4.6 18.47 1.54" style="fill:#444"/></g><path id="_Path_4" data-name="&lt;Path&gt;" d="M83.87,118.91a41.32,41.32,0,0,1-9,3.5,67,67,0,0,1-9,1.81,85.65,85.65,0,0,1-18.13.4A116.41,116.41,0,0,1,30,121.43q-8.69-2.2-17.13-5.22C18.66,117.76,24.46,119,30.3,120a114.6,114.6,0,0,0,17.54,1.67,81.8,81.8,0,0,0,17.32-1.88,62.71,62.71,0,0,0,8.29-2.42,37.67,37.67,0,0,0,7.47-3.62l.12-.08a2.75,2.75,0,0,1,3.94.95,3.16,3.16,0,0,1-.9,4.2Z" transform="translate(-12.91 -75.08)" style="fill:#444"/><g id="_Group_3" data-name="&lt;Group&gt;"><path id="_Compound_Path_" data-name="&lt;Compound Path&gt;" d="M19.8,101.15l2.49,8.18,2.47-8.18h2.62v11.28h-2v-3.08l.2-5.32L23,112.43H21.59L19,104l.2,5.32v3.08h-2V101.15Z" transform="translate(-12.91 -75.08)" style="fill:#444"/><path id="_Compound_Path_2" data-name="&lt;Compound Path&gt;" d="M30.75,112.43H29.47V101.15h1.28Z" transform="translate(-12.91 -75.08)" style="fill:#444"/><path id="_Compound_Path_3" data-name="&lt;Compound Path&gt;" d="M40.52,112.43H39.23l-4.87-8.69v8.69H33.08V101.15h1.28l4.89,8.73v-8.73h1.27Z" transform="translate(-12.91 -75.08)" style="fill:#444"/><path id="_Compound_Path_4" data-name="&lt;Compound Path&gt;" d="M44.15,112.43H42.88V101.15h1.28Z" transform="translate(-12.91 -75.08)" style="fill:#444"/><path id="_Compound_Path_5" data-name="&lt;Compound Path&gt;" d="M55.06,110.11h-3.5l-.66,2.32H48.78l3.6-11.28h1.85l3.62,11.28H55.73Zm-3-1.88h2.42L53.31,104Z" transform="translate(-12.91 -75.08)" style="fill:#444"/><path id="_Compound_Path_6" data-name="&lt;Compound Path&gt;" d="M62.57,107.87H60.29v4.56H59V101.15h3.2a3.43,3.43,0,0,1,2.52.87,3.91,3.91,0,0,1,.39,4.36,3,3,0,0,1-1.36,1.17L66,112.34v.09H64.67Zm-2.27-1.22h2a2,2,0,0,0,1.51-.57,2.1,2.1,0,0,0,.56-1.54,2.23,2.23,0,0,0-.54-1.61,2.06,2.06,0,0,0-1.55-.57h-2Z" transform="translate(-12.91 -75.08)" style="fill:#444"/><path id="_Compound_Path_7" data-name="&lt;Compound Path&gt;" d="M73.55,102.37H70.44v10.07H69.17V102.37h-3.1v-1.22h7.48Z" transform="translate(-12.91 -75.08)" style="fill:#444"/><path id="_Compound_Path_8" data-name="&lt;Compound Path&gt;" d="M80.46,107.22H76.26v4h4.87v1.22H75V101.15h6.08v1.22H76.26V106h4.19Z" transform="translate(-12.91 -75.08)" style="fill:#444"/></g></g><text transform="translate(125.79 14.02)" style="font-size:12px;fill:#444;font-family:RobotoCondensed-Bold, Roboto Condensed;font-weight:700">MiniA<tspan x="28.22" y="0" style="letter-spacing:0.0244140625em">r</tspan><tspan x="32.49" y="0">te</tspan><tspan x="-6.48" y="14.4">Construção</tspan><tspan x="-1.22" y="28.8">Civil, Lda</tspan></text></g></g></svg>