<svg xmlns="http://www.w3.org/2000/svg" viewBox="0 0 1980 1920"><defs><style>.\36 4c10099-0eeb-405f-8a85-00c236682ed7{isolation:isolate;}.ae252902-be5b-44b5-a735-77894d4d9f10{fill:#fff;}.f1f29a9e-7ac3-4188-ad7b-986e37c8bd91{fill:#7f8c8d;opacity:0.4;mix-blend-mode:screen;}</style></defs><title>logo</title><g class="64c10099-0eeb-405f-8a85-00c236682ed7"><g id="bfb41224-571f-46b2-bb53-f4592cb7083d" data-name="Layer 2"><polygon id="71ac84f7-e7ce-48ac-9a78-4c21e6c26dde" data-name="&lt;Path&gt;" class="ae252902-be5b-44b5-a735-77894d4d9f10" points="1659.43 912.98 990.29 912.98 653.77 461.64 1322.95 461.64 1659.43 912.98"/><path id="5ef6b76d-f652-4b38-8c2b-05e23a96637c" data-name="&lt;Path&gt;" class="f1f29a9e-7ac3-4188-ad7b-986e37c8bd91" d="M1544.61,759,1322.95,461.64H653.77L774,622.85C842.12,610,974.89,607.14,1206,678.26,1371.92,729.29,1474.65,754.07,1544.61,759Z"/><polygon id="1ee8c89a-30f6-48fb-a8b2-64e1463c5cfa" data-name="&lt;Path&gt;" class="ae252902-be5b-44b5-a735-77894d4d9f10" points="634.18 492.36 320.57 912.98 412.98 912.98 680.85 553.69 634.18 492.36"/><g id="867e9987-adfa-4ef3-90ec-fcd794638c32" data-name="&lt;Group&gt;"><path id="6f39ed05-31fe-4275-91bc-14539da8eb07" data-name="&lt;Compound Path&gt;" class="ae252902-be5b-44b5-a735-77894d4d9f10" d="M402.66,983l49.72,163.67L501.83,983h52.38v225.66h-40V1147l4-106.48-52.25,168.16H438.55l-52.11-168,4,106.32v61.69H350.54V983Z"/><path id="b9d1f044-053e-4263-a2b9-94adeb339121" data-name="&lt;Compound Path&gt;" class="ae252902-be5b-44b5-a735-77894d4d9f10" d="M621.61,1208.67H596.09V983h25.53Z"/><path id="c84ef684-b13d-4af5-8354-33565a673609" data-name="&lt;Compound Path&gt;" class="ae252902-be5b-44b5-a735-77894d4d9f10" d="M817,1208.67H791.38l-97.45-173.9v173.9H668.28V983h25.66l97.71,174.67V983H817Z"/><path id="9ff99144-10b9-407a-af0f-0a73b1114997" data-name="&lt;Compound Path&gt;" class="ae252902-be5b-44b5-a735-77894d4d9f10" d="M889.76,1208.67H864.24V983h25.53Z"/><path id="97614c9d-2aac-4bf7-8b59-8ff1d697035f" data-name="&lt;Compound Path&gt;" class="ae252902-be5b-44b5-a735-77894d4d9f10" d="M1107.92,1162.18H1038l-13.29,46.5H982.29L1054.34,983h37l72.45,225.66h-42.41Zm-59.16-37.66h48.39L1072.82,1040Z"/><path id="071db161-ca9c-4c9d-802f-1ed216763772" data-name="&lt;Compound Path&gt;" class="ae252902-be5b-44b5-a735-77894d4d9f10" d="M1258,1117.39h-45.47v91.29h-25.66V983H1251q32.7,0,50.32,17.36t17.62,50.53q0,21.08-9.77,36.73a60,60,0,0,1-27.19,23.4l45.47,95.78v1.86H1300Zm-45.47-24.33h39.22q19,0,30.24-11.49t11.23-30.75q0-21-10.7-32.14t-30.91-11.34h-39.09Z"/><path id="c2157cf3-4e42-43ea-89f1-654a606d83f5" data-name="&lt;Compound Path&gt;" class="ae252902-be5b-44b5-a735-77894d4d9f10" d="M1477.77,1007.35h-62.22v201.33h-25.39V1007.35h-62.08V983h149.69Z"/><path id="e35faa01-fa81-4ebd-a477-f936353d1c4b" data-name="&lt;Compound Path&gt;" class="ae252902-be5b-44b5-a735-77894d4d9f10" d="M1615.9,1104.37H1532v80h97.45v24.33h-123V983h121.64v24.33H1532V1080h83.89Z"/></g></g></g></svg>