<svg xmlns="http://www.w3.org/2000/svg" viewBox="0 0 441 222.94"><defs><style>.\33 a584e67-501c-4777-a6b1-4211090ed4a4,.b9df97f2-54c3-412d-b814-a3c2c81700fe{fill:#4183d7;}.b9df97f2-54c3-412d-b814-a3c2c81700fe{stroke:#fff;stroke-miterlimit:10;}</style></defs><title>Asset 3</title><g id="4c5f94e4-9d42-4503-831d-0d1300a66269" data-name="Layer 2"><g id="ed4856be-513a-4418-a7f7-21448b9bb7e0" data-name="original blue logo"><path class="3a584e67-501c-4777-a6b1-4211090ed4a4" d="M63.34,15.92l-.25-.05L46.72,61.14H38.48L22.19,16l-.25,0,1.18,26.84v9.61l6.55,1.26v7.35H4.35V53.79l6.5-1.26V8.65L4.35,7.39V0h22.5L42.43,45.06h.25L58.39,0H81V7.39L74.43,8.65V52.53L81,53.79v7.35H55.66V53.79l6.51-1.26V42.92Z"/><path class="3a584e67-501c-4777-a6b1-4211090ed4a4" d="M85.31,7.39V0h25.32V7.39l-6.55,1.26V52.53l6.55,1.26v7.35H85.31V53.79l6.55-1.26V8.65Z"/><path class="3a584e67-501c-4777-a6b1-4211090ed4a4" d="M177.77,0V7.39l-6.55,1.26V61.14H159L134.31,20l-.25,0v32.5l6.55,1.26v7.35H115.29V53.79l6.51-1.26V8.65l-6.51-1.26V0h18.77l24.69,41.15.25,0V8.65l-6.55-1.26V0h25.32Z"/><path class="3a584e67-501c-4777-a6b1-4211090ed4a4" d="M181.68,7.39V0H207V7.39l-6.55,1.26V52.53L207,53.79v7.35H181.68V53.79l6.55-1.26V8.65Z"/><path class="3a584e67-501c-4777-a6b1-4211090ed4a4" d="M211,53.79l4.37-.63L234,0h12.56L265,53.16l4.37.63v7.35H248.57V53.79l4.24-.75-2.68-8.4H230.31L227.62,53l4.24.75v7.35H211ZM233.2,35.61h14l-6.89-21.54h-.25Z"/><path class="3a584e67-501c-4777-a6b1-4211090ed4a4" d="M300.89,0q10.42,0,16.34,4.77t5.92,13.16a13.27,13.27,0,0,1-2.48,8,17.28,17.28,0,0,1-7.26,5.5q5.41,1.61,7.79,5.31A16.82,16.82,0,0,1,323.57,46v3.11a5.32,5.32,0,0,0,.8,3.13A3.55,3.55,0,0,0,327,53.54l1.51.21v7.39h-6.34q-6,0-8.44-3.23a13.55,13.55,0,0,1-2.43-8.36V46.07a9.88,9.88,0,0,0-2.37-7,9.12,9.12,0,0,0-6.7-2.66h-10V52.53l6.55,1.26v7.35H273.43V53.79l6.51-1.26V8.65l-6.51-1.26V0h27.46ZM292.2,27h8.48q5.13,0,7.69-2.18a7.82,7.82,0,0,0,2.56-6.3,8.75,8.75,0,0,0-2.54-6.58q-2.53-2.45-7.5-2.45H292.2Z"/><path class="3a584e67-501c-4777-a6b1-4211090ed4a4" d="M384.29,0V16.29h-9.41l-.5-6.84H363.13V52.53l6.55,1.26v7.35H344.31V53.79l6.55-1.26V9.45H339.65l-.5,6.84h-9.37V0Z"/><path class="3a584e67-501c-4777-a6b1-4211090ed4a4" d="M427.75,34.27h-20.7V51.73h19.74l.54-7.3h9.32V61.14H388.28V53.79l6.51-1.26V8.65l-6.51-1.26V0h48.29V16.75h-9.41l-.54-7.3H407.05V24.82h20.7Z"/><path class="3a584e67-501c-4777-a6b1-4211090ed4a4" d="M22,212.92a9,9,0,0,1-3.43,1.37,21.37,21.37,0,0,1-4.26.42,15.45,15.45,0,0,1-5-.82,10.83,10.83,0,0,1-4.18-2.65,13,13,0,0,1-2.87-4.74,20.51,20.51,0,0,1-1.08-7.08,19.15,19.15,0,0,1,1.2-7.25,13.26,13.26,0,0,1,3.11-4.7,11.43,11.43,0,0,1,4.26-2.56,14.9,14.9,0,0,1,4.71-.78,22.37,22.37,0,0,1,4.26.34,16.15,16.15,0,0,1,2.88.79l-1.14,4.88a8.14,8.14,0,0,0-2.29-.68,20.84,20.84,0,0,0-3.21-.21,7,7,0,0,0-5.61,2.49q-2.11,2.47-2.12,7.7a15.7,15.7,0,0,0,.51,4.14,8.74,8.74,0,0,0,1.53,3.2,7.17,7.17,0,0,0,2.56,2.07,8.13,8.13,0,0,0,3.55.73,11.28,11.28,0,0,0,3.19-.38,9.29,9.29,0,0,0,2.27-1Z"/><path class="3a584e67-501c-4777-a6b1-4211090ed4a4" d="M23,199.42q0-7.35,3.23-11.32t9.24-4a12.92,12.92,0,0,1,5.5,1.09,10.46,10.46,0,0,1,3.91,3.11,13.72,13.72,0,0,1,2.31,4.83,24.31,24.31,0,0,1,.75,6.26q0,7.35-3.25,11.32t-9.22,4a13,13,0,0,1-5.54-1.1,10.12,10.12,0,0,1-3.89-3.1,14,14,0,0,1-2.29-4.83A24.36,24.36,0,0,1,23,199.42Zm6,0a20.76,20.76,0,0,0,.38,4.09,10.52,10.52,0,0,0,1.16,3.22,6,6,0,0,0,2,2.1,5.42,5.42,0,0,0,2.9.75,5.48,5.48,0,0,0,4.75-2.39q1.68-2.4,1.68-7.77a20.84,20.84,0,0,0-.36-4,11.44,11.44,0,0,0-1.11-3.24,5.91,5.91,0,0,0-2-2.16,5.4,5.4,0,0,0-3-.78,5.43,5.43,0,0,0-4.75,2.46Q29,194.17,29,199.42Z"/><path class="3a584e67-501c-4777-a6b1-4211090ed4a4" d="M59.16,198.79l-2.31-4.62h-.21l.67,4.62v15.33H51.85V184.51h4.2l11.13,15.66,2.23,4.5h.21l-.68-4.5V184.72H74.4v29.61H70.2Z"/><path class="3a584e67-501c-4777-a6b1-4211090ed4a4" d="M91.92,206.22a2.73,2.73,0,0,0-1-2.18,11.11,11.11,0,0,0-2.48-1.54c-1-.46-2.07-.93-3.23-1.42A16.16,16.16,0,0,1,82,199.27a9.05,9.05,0,0,1-2.48-2.67,7.6,7.6,0,0,1-1-4.07,9,9,0,0,1,.71-3.72,7,7,0,0,1,2-2.62,8.85,8.85,0,0,1,3.13-1.56,15.23,15.23,0,0,1,4-.5,25.58,25.58,0,0,1,4.83.44A12.47,12.47,0,0,1,97,185.85l-1.81,4.83a10,10,0,0,0-2.77-1.07,15.81,15.81,0,0,0-4-.48,5,5,0,0,0-3.08.8,2.52,2.52,0,0,0-1.08,2.14,2.64,2.64,0,0,0,1,2.1,11.36,11.36,0,0,0,2.48,1.55c1,.48,2.07,1,3.23,1.47A17.7,17.7,0,0,1,94.21,199a9.37,9.37,0,0,1,2.48,2.65,7.28,7.28,0,0,1,1,3.92,9.87,9.87,0,0,1-.77,4.06,7.75,7.75,0,0,1-2.19,2.83,9.11,9.11,0,0,1-3.4,1.68,16.75,16.75,0,0,1-4.39.55,23.41,23.41,0,0,1-5.54-.59,16.74,16.74,0,0,1-3.53-1.18L79.7,208a9.35,9.35,0,0,0,1.19.54,15.38,15.38,0,0,0,1.66.55,18.27,18.27,0,0,0,2,.42,13.29,13.29,0,0,0,2.12.17,7.43,7.43,0,0,0,3.92-.86A2.9,2.9,0,0,0,91.92,206.22Z"/><path class="3a584e67-501c-4777-a6b1-4211090ed4a4" d="M122.16,189.84h-8.57v24.28h-5.75V189.84H99.23v-5.12h22.93Z"/><path class="3a584e67-501c-4777-a6b1-4211090ed4a4" d="M124.93,185c.64-.11,1.34-.21,2.08-.31s1.48-.18,2.23-.23,1.46-.1,2.16-.13,1.34,0,1.93,0a21.05,21.05,0,0,1,4,.38A10.93,10.93,0,0,1,141,186a6.9,6.9,0,0,1,2.52,2.54,7.93,7.93,0,0,1,.95,4,9.62,9.62,0,0,1-1.68,5.88,8.68,8.68,0,0,1-4.5,3.15l2.06,1.3L147,214.12h-6.63l-6.68-11.51-3-.55v12.06h-5.75Zm8.82,4.41c-.59,0-1.17,0-1.74,0a7,7,0,0,0-1.33.17v8.53h2.44a6.17,6.17,0,0,0,3.82-1.09,4.29,4.29,0,0,0,1.43-3.62,3.79,3.79,0,0,0-1.18-3A5,5,0,0,0,133.75,189.42Z"/><path class="3a584e67-501c-4777-a6b1-4211090ed4a4" d="M166,184.72h5.46v19a14.42,14.42,0,0,1-.75,4.92,9.43,9.43,0,0,1-2.1,3.4,8.08,8.08,0,0,1-3.28,2,13.62,13.62,0,0,1-4.24.63q-11.18,0-11.17-10.2v-19.7h5.75v18.56a11.62,11.62,0,0,0,.32,2.92,4.57,4.57,0,0,0,1,1.93,3.76,3.76,0,0,0,1.68,1.05,8,8,0,0,0,2.36.32,4.62,4.62,0,0,0,3.82-1.47c.78-1,1.17-2.56,1.17-4.75Z"/><path class="3a584e67-501c-4777-a6b1-4211090ed4a4" d="M196,212.9a8,8,0,0,1-2.76,1.22,19.25,19.25,0,0,1-3.5.54l-.67,1.26a5.39,5.39,0,0,1,2.7.91,2.61,2.61,0,0,1,1,2.24,2.91,2.91,0,0,1-.48,1.68A3.84,3.84,0,0,1,191,222a7.1,7.1,0,0,1-2,.74,11.69,11.69,0,0,1-2.43.25,15.75,15.75,0,0,1-2.69-.25l.38-2a3.44,3.44,0,0,0,.54,0h.46a3.57,3.57,0,0,0,2.06-.38,1.1,1.1,0,0,0,.46-.88c0-.78-1.2-1.23-3.61-1.34l2.1-3.53A13.68,13.68,0,0,1,182,213.3a10.41,10.41,0,0,1-3.53-2.84,13.63,13.63,0,0,1-2.38-4.57,21.76,21.76,0,0,1-.86-6.47,19.15,19.15,0,0,1,1.2-7.25,13.13,13.13,0,0,1,3.11-4.7,11.43,11.43,0,0,1,4.26-2.56,14.9,14.9,0,0,1,4.71-.78,22.37,22.37,0,0,1,4.26.34,16.15,16.15,0,0,1,2.88.79l-1.14,4.88a8.24,8.24,0,0,0-2.29-.68,20.84,20.84,0,0,0-3.21-.21,7,7,0,0,0-5.61,2.48c-1.41,1.65-2.12,4.22-2.12,7.69a15.62,15.62,0,0,0,.51,4.13,8.74,8.74,0,0,0,1.53,3.2,6.93,6.93,0,0,0,2.56,2.05,8.13,8.13,0,0,0,3.55.74,11.66,11.66,0,0,0,3.19-.38,9.46,9.46,0,0,0,2.27-1Z"/><path class="3a584e67-501c-4777-a6b1-4211090ed4a4" d="M212,207.61h-9l-2.23,6.51H195l10.58-29.61h4.24l10.59,29.61h-6.05Zm-12.27-27.09a8.22,8.22,0,0,1,2.59-2,6.07,6.07,0,0,1,2.45-.54,7.33,7.33,0,0,1,1.85.23c.62.15,1.21.32,1.79.5l1.7.51a6.17,6.17,0,0,0,1.59.23,4,4,0,0,0,1.3-.21,3.11,3.11,0,0,0,1.22-.8l1.05,2.81a7.49,7.49,0,0,1-2.29,1.54,5.91,5.91,0,0,1-2.16.44A7.5,7.5,0,0,1,209,183c-.58-.16-1.17-.33-1.74-.53s-1.14-.37-1.7-.53a6.36,6.36,0,0,0-1.64-.23,4.12,4.12,0,0,0-1.57.32,4.62,4.62,0,0,0-1.58,1.15ZM204.48,203h6.3l-2.19-6.55-.88-4.62h-.21l-.88,4.66Z"/><path class="3a584e67-501c-4777-a6b1-4211090ed4a4" d="M220.52,199.42q0-7.35,3.24-11.32t9.24-4a12.92,12.92,0,0,1,5.5,1.09,10.42,10.42,0,0,1,3.9,3.11,13.39,13.39,0,0,1,2.31,4.83,23.86,23.86,0,0,1,.76,6.26q0,7.35-3.26,11.32t-9.21,4a13.05,13.05,0,0,1-5.55-1.1,10.09,10.09,0,0,1-3.88-3.1,13.69,13.69,0,0,1-2.29-4.83A23.92,23.92,0,0,1,220.52,199.42Zm6,0a20,20,0,0,0,.38,4.09,10.52,10.52,0,0,0,1.15,3.22,5.94,5.94,0,0,0,2,2.1,5.92,5.92,0,0,0,7.64-1.64q1.68-2.4,1.68-7.77a20.84,20.84,0,0,0-.36-4,10.85,10.85,0,0,0-1.11-3.24,5.8,5.8,0,0,0-2-2.16,5.91,5.91,0,0,0-7.73,1.68Q226.57,194.17,226.57,199.42Z"/><path class="3a584e67-501c-4777-a6b1-4211090ed4a4" d="M278.61,212.92a9,9,0,0,1-3.42,1.37,21.55,21.55,0,0,1-4.27.42,15.45,15.45,0,0,1-5-.82,10.83,10.83,0,0,1-4.18-2.65,13,13,0,0,1-2.87-4.74,20.53,20.53,0,0,1-1.07-7.08,19.36,19.36,0,0,1,1.19-7.25,13.26,13.26,0,0,1,3.11-4.7,11.51,11.51,0,0,1,4.26-2.56,14.9,14.9,0,0,1,4.71-.78,22.37,22.37,0,0,1,4.26.34,16.15,16.15,0,0,1,2.88.79l-1.14,4.88a8.17,8.17,0,0,0-2.28-.68,21.07,21.07,0,0,0-3.22-.21,7,7,0,0,0-5.61,2.49q-2.12,2.47-2.12,7.7a15.7,15.7,0,0,0,.51,4.14,8.74,8.74,0,0,0,1.53,3.2,7.17,7.17,0,0,0,2.56,2.07,8.13,8.13,0,0,0,3.55.73,11.24,11.24,0,0,0,3.19-.38,9.29,9.29,0,0,0,2.27-1Z"/><path class="3a584e67-501c-4777-a6b1-4211090ed4a4" d="M282.56,184.72h5.75v29.4h-5.75Z"/><path class="3a584e67-501c-4777-a6b1-4211090ed4a4" d="M303.39,202l.75,5h.21l.84-5,5.63-17.22h6.05L306,214.33h-4.12l-11-29.61h6.68Z"/><path class="3a584e67-501c-4777-a6b1-4211090ed4a4" d="M319.39,184.72h5.75v29.4h-5.75Z"/><path class="3a584e67-501c-4777-a6b1-4211090ed4a4" d="M349.17,214.12H330.56v-29.4h5.75V209h12.86Z"/><path class="3a584e67-501c-4777-a6b1-4211090ed4a4" d="M351.18,211.43a2.89,2.89,0,0,1,.95-2.27,3.37,3.37,0,0,1,2.33-.84,3.44,3.44,0,0,1,2.77,1.18,4.62,4.62,0,0,1,1,3.11,8.2,8.2,0,0,1-.59,3.25,7.64,7.64,0,0,1-1.45,2.27,7.25,7.25,0,0,1-1.85,1.43,10.18,10.18,0,0,1-1.78.77l-1.6-2.26a4.9,4.9,0,0,0,2-1.52,4,4,0,0,0,.92-2.22,2.33,2.33,0,0,1-1.83-.59A2.86,2.86,0,0,1,351.18,211.43Z"/><path class="3a584e67-501c-4777-a6b1-4211090ed4a4" d="M388.44,214.12H369.83v-29.4h5.75V209h12.86Z"/><path class="3a584e67-501c-4777-a6b1-4211090ed4a4" d="M391.21,184.72c.59-.09,1.25-.16,2-.21s1.51-.1,2.29-.13l2.29-.06,2,0a18.13,18.13,0,0,1,6.67,1.09,11.37,11.37,0,0,1,4.5,3.07,12.18,12.18,0,0,1,2.52,4.7,21.42,21.42,0,0,1,.8,6,22,22,0,0,1-.76,5.75,12.82,12.82,0,0,1-2.52,4.91,12.66,12.66,0,0,1-4.64,3.45,17.22,17.22,0,0,1-7.12,1.3c-.45,0-1,0-1.79,0s-1.51-.06-2.3-.11l-2.29-.12a16.4,16.4,0,0,1-1.64-.15Zm9,4.7c-.62,0-1.24,0-1.87,0a11,11,0,0,0-1.41.13v19.7a2.87,2.87,0,0,0,.57.06l.86,0,.88.05.63,0a8.43,8.43,0,0,0,4.05-.87,6.86,6.86,0,0,0,2.57-2.28,9.22,9.22,0,0,0,1.32-3.3,19.53,19.53,0,0,0,.38-3.84,17.82,17.82,0,0,0-.34-3.47,8.71,8.71,0,0,0-1.24-3.13,7.06,7.06,0,0,0-2.45-2.27A8,8,0,0,0,400.24,189.42Z"/><path class="3a584e67-501c-4777-a6b1-4211090ed4a4" d="M431.48,207.61h-9l-2.23,6.51h-5.75l10.58-29.61h4.24l10.59,29.61h-6.05ZM423.93,203h6.3L428,196.44l-.88-4.62H427l-.88,4.66Z"/><path class="b9df97f2-54c3-412d-b814-a3c2c81700fe" d="M73.59,75.58v44.65H75V75.58Z"/><path class="b9df97f2-54c3-412d-b814-a3c2c81700fe" d="M75,118.79v.72H219.78v-.72ZM73.59,75.58v44.65H221.22V75.58ZM75,77H219.78v41.77H75Zm0,41.77v.72H219.78v-.72Z"/><rect class="b9df97f2-54c3-412d-b814-a3c2c81700fe" x="74.31" y="76.3" width="146.19" height="43.21"/><rect class="b9df97f2-54c3-412d-b814-a3c2c81700fe" x="220.5" y="76.3" width="146.19" height="43.21"/><path class="b9df97f2-54c3-412d-b814-a3c2c81700fe" d="M221.22,118.79v.72H366v-.72Zm-1.44-43.21v44.65H367.41V75.58ZM221.22,77H366v41.77H221.22Zm0,41.77v.72H366v-.72Z"/><path class="b9df97f2-54c3-412d-b814-a3c2c81700fe" d="M366,75.58v44.65h1.44V75.58Z"/><rect class="b9df97f2-54c3-412d-b814-a3c2c81700fe" x="1.22" y="119.51" width="146.19" height="43.21"/><path class="b9df97f2-54c3-412d-b814-a3c2c81700fe" d="M.5,118.79v44.65H148.13V118.79ZM146.69,162H1.94V120.23H146.69Z"/><rect class="b9df97f2-54c3-412d-b814-a3c2c81700fe" x="147.41" y="119.51" width="146.19" height="43.21"/><path class="b9df97f2-54c3-412d-b814-a3c2c81700fe" d="M148.13,119.51v.72H292.87v-.72Zm-1.44-.72v44.65H294.31V118.79ZM292.87,162H148.13V120.23H292.87ZM148.13,119.51v.72H292.87v-.72Z"/><rect class="b9df97f2-54c3-412d-b814-a3c2c81700fe" x="293.59" y="119.51" width="146.19" height="43.21"/><path class="b9df97f2-54c3-412d-b814-a3c2c81700fe" d="M294.31,119.51v.72H439.06v-.72Zm-1.44-.72v44.65H440.5V118.79ZM439.06,162H294.31V120.23H439.06ZM294.31,119.51v.72H439.06v-.72Z"/><path class="b9df97f2-54c3-412d-b814-a3c2c81700fe" d="M439.06,118.79v44.65h1.44V118.79Z"/></g></g></svg>