<svg xmlns="http://www.w3.org/2000/svg" viewBox="0 0 439.86 229.59"><defs><style>.\32 a9c4c23-870b-4e19-bf1a-0b79329cf87b{font-size:86px;font-family:RobotoSlab-Bold, Roboto Slab;font-weight:700;}.\32 a9c4c23-870b-4e19-bf1a-0b79329cf87b,.\38 491170b-cb56-459f-a436-159f4588d18a,.d688352a-bafd-4cb1-9c2b-573eae4c2827{fill:#4183d7;stroke:#fff;stroke-miterlimit:10;}.cf105dcf-0d72-403b-87ec-673be804afcb{letter-spacing:-0.02em;}.\38 491170b-cb56-459f-a436-159f4588d18a{font-size:41px;font-family:PTSans-Regular, PT Sans;}.\38 e4a46d0-e01f-4e58-b43f-1e4b266081f0{letter-spacing:-0.03em;}.ebf686e3-c082-413c-9512-28e7c158a3b0{letter-spacing:-0.03em;}.\36 d084fd4-7ab6-4603-826a-5331650603f3{letter-spacing:-0.02em;}.aab2a8ef-52c5-4595-9cb2-6789c9ee7d04{letter-spacing:0em;}.ef1a7c37-8ed9-4112-bcc8-be84755878f5{letter-spacing:-0.08em;}.f382f799-420f-4f74-a8be-8880c333d14b{letter-spacing:-0.03em;}.c0401c17-ec17-4768-9e09-c54643f3a5c9{letter-spacing:-0.04em;}</style></defs><title>Asset 2</title><g id="4d718b3e-00bc-4cf4-852d-ec44b4de983f" data-name="Layer 2"><g id="2f8409d9-5aec-4f4b-8d4b-8b5db55fec52" data-name="Layer 1"><text class="2a9c4c23-870b-4e19-bf1a-0b79329cf87b" transform="translate(0.5 74.07)">MINIA<tspan class="cf105dcf-0d72-403b-87ec-673be804afcb" x="269.09" y="0">R</tspan><tspan x="326.11" y="0">TE</tspan></text><text class="8491170b-cb56-459f-a436-159f4588d18a" transform="translate(1.32 219.05)"><tspan class="8e4a46d0-e01f-4e58-b43f-1e4b266081f0">C</tspan><tspan x="22.35" y="0">ONSTRU</tspan><tspan class="ebf686e3-c082-413c-9512-28e7c158a3b0" x="173.63" y="0">Ç</tspan><tspan class="6d084fd4-7ab6-4603-826a-5331650603f3" x="195.9" y="0">Ã</tspan><tspan class="aab2a8ef-52c5-4595-9cb2-6789c9ee7d04" x="218.86" y="0">O CIVIL</tspan><tspan class="ef1a7c37-8ed9-4112-bcc8-be84755878f5" x="349.6" y="0">,</tspan><tspan x="355.63" y="0" xml:space="preserve"> L</tspan><tspan class="f382f799-420f-4f74-a8be-8880c333d14b" x="387.77" y="0">D</tspan><tspan class="c0401c17-ec17-4768-9e09-c54643f3a5c9" x="413.56" y="0">A</tspan></text><path class="d688352a-bafd-4cb1-9c2b-573eae4c2827" d="M75,97.57v44h1.42v-44Z"/><path class="d688352a-bafd-4cb1-9c2b-573eae4c2827" d="M76.45,140.19v.71H219.22v-.71ZM75,97.57v44H220.64v-44ZM76.45,99H219.22v41.2H76.45Zm0,41.2v.71H219.22v-.71Z"/><rect class="d688352a-bafd-4cb1-9c2b-573eae4c2827" x="75.74" y="98.28" width="144.19" height="42.62"/><rect class="d688352a-bafd-4cb1-9c2b-573eae4c2827" x="219.93" y="98.28" width="144.19" height="42.62"/><path class="d688352a-bafd-4cb1-9c2b-573eae4c2827" d="M220.64,140.19v.71H363.41v-.71Zm-1.42-42.62v44H364.83v-44ZM220.64,99H363.41v41.2H220.64Zm0,41.2v.71H363.41v-.71Z"/><path class="d688352a-bafd-4cb1-9c2b-573eae4c2827" d="M363.41,97.57v44h1.42v-44Z"/><rect class="d688352a-bafd-4cb1-9c2b-573eae4c2827" x="3.64" y="140.9" width="144.19" height="42.62"/><path class="d688352a-bafd-4cb1-9c2b-573eae4c2827" d="M2.93,140.19v44H148.54v-44Zm144.19,42.62H4.35v-41.2H147.12Z"/><rect class="d688352a-bafd-4cb1-9c2b-573eae4c2827" x="147.83" y="140.9" width="144.19" height="42.62"/><path class="d688352a-bafd-4cb1-9c2b-573eae4c2827" d="M148.54,140.9v.71H291.32v-.71Zm-1.42-.71v44H292.74v-44Zm144.2,42.62H148.54v-41.2H291.32ZM148.54,140.9v.71H291.32v-.71Z"/><rect class="d688352a-bafd-4cb1-9c2b-573eae4c2827" x="292.03" y="140.9" width="144.19" height="42.62"/><path class="d688352a-bafd-4cb1-9c2b-573eae4c2827" d="M292.74,140.9v.71H435.51v-.71Zm-1.42-.71v44H436.93v-44Zm144.19,42.62H292.74v-41.2H435.51ZM292.74,140.9v.71H435.51v-.71Z"/><path class="d688352a-bafd-4cb1-9c2b-573eae4c2827" d="M435.51,140.19v44h1.42v-44Z"/></g></g></svg>