<svg xmlns="http://www.w3.org/2000/svg" viewBox="0 0 436.91 215.65"><title>logotipominiartewhite</title><g id="f03a39eb-0d41-4da3-b912-66da59bc93eb" data-name="Layer 2"><g id="b13a8894-2ddb-4370-91fc-aaeca3b758f2" data-name="Layer 2"><path d="M61.85,28.84l-.25,0L45.22,74.07H37L20.7,29l-.25,0,1.17,26.84v9.61l6.55,1.26v7.35H2.85V66.72l6.51-1.26V21.58L2.85,20.32V12.93H25.36L40.94,58h.25L56.9,12.93H79.49v7.39l-6.55,1.26V65.46l6.55,1.26v7.35H54.17V66.72l6.5-1.26V55.85Z" transform="translate(-2.35 -12.43)" style="fill:#fff;stroke:#fff;stroke-miterlimit:10"/><path d="M83.81,20.32V12.93h25.32v7.39l-6.55,1.26V65.46l6.55,1.26v7.35H83.81V66.72l6.55-1.26V21.58Z" transform="translate(-2.35 -12.43)" style="fill:#fff;stroke:#fff;stroke-miterlimit:10"/><path d="M176.28,12.93v7.39l-6.55,1.26V74.07H157.51L132.82,32.92l-.25,0v32.5l6.55,1.26v7.35H113.79V66.72l6.51-1.26V21.58l-6.51-1.26V12.93h18.78l24.69,41.15.25,0V21.58L151,20.32V12.93h25.32Z" transform="translate(-2.35 -12.43)" style="fill:#fff;stroke:#fff;stroke-miterlimit:10"/><path d="M180.18,20.32V12.93h25.33v7.39L199,21.58V65.46l6.55,1.26v7.35H180.18V66.72l6.56-1.26V21.58Z" transform="translate(-2.35 -12.43)" style="fill:#fff;stroke:#fff;stroke-miterlimit:10"/><path d="M209.54,66.72l4.36-.63,18.61-53.16h12.55l18.48,53.16,4.37.63v7.35H247.08V66.72l4.24-.75-2.69-8.4H228.81L226.12,66l4.25.75v7.35H209.54Zm22.17-18.18h14L238.85,27h-.25Z" transform="translate(-2.35 -12.43)" style="fill:#fff;stroke:#fff;stroke-miterlimit:10"/><path d="M299.4,12.93q10.41,0,16.34,4.77t5.92,13.16a13.27,13.27,0,0,1-2.48,8,17.25,17.25,0,0,1-7.27,5.5q5.43,1.6,7.79,5.31a16.74,16.74,0,0,1,2.38,9.22V62a5.33,5.33,0,0,0,.79,3.13,3.59,3.59,0,0,0,2.65,1.32l1.51.21v7.39h-6.34c-4,0-6.82-1.08-8.44-3.23a13.55,13.55,0,0,1-2.44-8.36V59a9.88,9.88,0,0,0-2.37-7,9.09,9.09,0,0,0-6.7-2.66h-10V65.46l6.55,1.26v7.35H271.94V66.72l6.51-1.26V21.58l-6.51-1.26V12.93H299.4Zm-8.69,27h8.48q5.13,0,7.69-2.18a7.86,7.86,0,0,0,2.56-6.3,8.75,8.75,0,0,0-2.54-6.58q-2.55-2.45-7.5-2.45h-8.69Z" transform="translate(-2.35 -12.43)" style="fill:#fff;stroke:#fff;stroke-miterlimit:10"/><path d="M382.8,12.93V29.22h-9.41l-.5-6.84H361.63V65.46l6.55,1.26v7.35H342.82V66.72l6.55-1.26V22.38H338.16l-.5,6.84h-9.37V12.93Z" transform="translate(-2.35 -12.43)" style="fill:#fff;stroke:#fff;stroke-miterlimit:10"/><path d="M426.26,47.2h-20.7V64.66h19.73l.55-7.3h9.32V74.07H386.79V66.72l6.5-1.26V21.58l-6.5-1.26V12.93h48.29V29.68h-9.41l-.54-7.3H405.56V37.75h20.7Z" transform="translate(-2.35 -12.43)" style="fill:#fff;stroke:#fff;stroke-miterlimit:10"/><path d="M23.17,217.86a7.42,7.42,0,0,1-3.11,1.31,20.64,20.64,0,0,1-4,.37,13.13,13.13,0,0,1-4.84-.88A10.58,10.58,0,0,1,7.26,216a12.84,12.84,0,0,1-2.66-4.61,20.05,20.05,0,0,1-1-6.66,19.07,19.07,0,0,1,1.09-6.83,13,13,0,0,1,2.87-4.59,10.92,10.92,0,0,1,4-2.6,12.79,12.79,0,0,1,4.51-.82,25.69,25.69,0,0,1,4,.26,13.19,13.19,0,0,1,2.66.72l-.82,3a12.94,12.94,0,0,0-5.62-1,9.41,9.41,0,0,0-3.32.61,7.74,7.74,0,0,0-2.93,2A10.25,10.25,0,0,0,8,199.16a17.12,17.12,0,0,0-.78,5.54A16.33,16.33,0,0,0,8,209.86a10.54,10.54,0,0,0,2,3.69,8.21,8.21,0,0,0,3,2.22,9.72,9.72,0,0,0,3.8.74,12.79,12.79,0,0,0,3.22-.37,8.82,8.82,0,0,0,2.31-.95Z" transform="translate(-2.35 -12.43)" style="fill:#fff;stroke:#fff;stroke-miterlimit:10"/><path d="M26,204.7q0-7.17,3-11t8.66-3.83a12,12,0,0,1,5.24,1.06,9.8,9.8,0,0,1,3.67,3,13,13,0,0,1,2.15,4.67,24.38,24.38,0,0,1,.7,6.09q0,7.17-3,11t-8.71,3.83a11.75,11.75,0,0,1-5.19-1.07,9.87,9.87,0,0,1-3.65-3,13.13,13.13,0,0,1-2.15-4.67A24.38,24.38,0,0,1,26,204.7Zm3.61,0a21.15,21.15,0,0,0,.47,4.51A12.08,12.08,0,0,0,31.5,213,7.59,7.59,0,0,0,34,215.54a6.69,6.69,0,0,0,3.63,1,7.09,7.09,0,0,0,6-2.89q2.17-2.9,2.17-8.92a20.53,20.53,0,0,0-.47-4.49,11.78,11.78,0,0,0-1.47-3.77,8,8,0,0,0-2.55-2.59,6.75,6.75,0,0,0-3.66-1,7,7,0,0,0-5.93,2.89Q29.58,198.68,29.57,204.7Z" transform="translate(-2.35 -12.43)" style="fill:#fff;stroke:#fff;stroke-miterlimit:10"/><path d="M60.36,200.27l-2.22-4.14H58l.41,4.14v18.78h-3.2V189.9H57L70.73,209,72.86,213h.21L72.62,209V190.35h3.2V219.5H74Z" transform="translate(-2.35 -12.43)" style="fill:#fff;stroke:#fff;stroke-miterlimit:10"/><path d="M95.74,211.75a4,4,0,0,0-1-2.81A10.67,10.67,0,0,0,92.15,207a32.45,32.45,0,0,0-3.34-1.57,18.7,18.7,0,0,1-3.34-1.79,9.38,9.38,0,0,1-2.56-2.58,6.89,6.89,0,0,1-1-3.92,6.61,6.61,0,0,1,2.34-5.33q2.34-2,6.64-2a26.32,26.32,0,0,1,4.55.36,12.32,12.32,0,0,1,3.2.95l-1,3a13.27,13.27,0,0,0-2.77-.89,18.45,18.45,0,0,0-4.12-.42,5.9,5.9,0,0,0-4.06,1.21,3.82,3.82,0,0,0-.33,5.51,10.3,10.3,0,0,0,2.56,1.91c1,.56,2.14,1.11,3.35,1.66a20.55,20.55,0,0,1,3.34,1.91,10,10,0,0,1,2.56,2.6,6.61,6.61,0,0,1,1,3.77,8,8,0,0,1-.65,3.32,7,7,0,0,1-1.93,2.55A9.1,9.1,0,0,1,93.49,219a13.63,13.63,0,0,1-4.1.57,23.13,23.13,0,0,1-5.09-.47,13.57,13.57,0,0,1-3.11-1l1.14-3a14,14,0,0,0,2.79,1,16,16,0,0,0,4.14.5,11.53,11.53,0,0,0,2.55-.27,6,6,0,0,0,2-.86,4.57,4.57,0,0,0,1.37-1.5A4.25,4.25,0,0,0,95.74,211.75Z" transform="translate(-2.35 -12.43)" style="fill:#fff;stroke:#fff;stroke-miterlimit:10"/><path d="M123.09,193.38h-8.94v25.67h-3.4V193.38h-8.94v-3h21.28Z" transform="translate(-2.35 -12.43)" style="fill:#fff;stroke:#fff;stroke-miterlimit:10"/><path d="M127.31,190.63c1-.19,2.23-.34,3.59-.45s2.59-.16,3.71-.16a15.49,15.49,0,0,1,3.59.41,8.25,8.25,0,0,1,3,1.35,6.92,6.92,0,0,1,2.07,2.46,9,9,0,0,1-1.07,9.15,8.87,8.87,0,0,1-4.67,2.78l2,1.52,7.13,11.36h-4l-7.91-12.38-4-.62v13h-3.4Zm7.38,2.34h-1.11c-.38,0-.75,0-1.1,0l-1,.08a3.94,3.94,0,0,0-.76.13V203.8h3.2a7.49,7.49,0,0,0,4.67-1.4,5.07,5.07,0,0,0,1.85-4.34,4.8,4.8,0,0,0-1.52-3.65A5.88,5.88,0,0,0,134.69,193Z" transform="translate(-2.35 -12.43)" style="fill:#fff;stroke:#fff;stroke-miterlimit:10"/><path d="M168.19,190.35h3.28V209.5a13.2,13.2,0,0,1-.68,4.46,7.91,7.91,0,0,1-1.93,3.1,7.6,7.6,0,0,1-3,1.78,12.31,12.31,0,0,1-3.89.58q-5.09,0-7.67-2.3t-2.58-7v-19.8h3.4v18.2a13.34,13.34,0,0,0,.43,3.67,5.88,5.88,0,0,0,1.29,2.42A4.9,4.9,0,0,0,159,216a9.81,9.81,0,0,0,3,.41q3.31,0,4.75-1.82t1.44-6Z" transform="translate(-2.35 -12.43)" style="fill:#fff;stroke:#fff;stroke-miterlimit:10"/><path d="M196.8,217.86a6.8,6.8,0,0,1-2.62,1.19,19.29,19.29,0,0,1-3.4.45l-.7,1.31a4.74,4.74,0,0,1,2.48,1.07,2.65,2.65,0,0,1,.76,2,3.26,3.26,0,0,1-1.31,2.64,5.79,5.79,0,0,1-3.69,1.05c-.3,0-.6,0-.9,0s-.62-.07-.95-.13l.37-1.6a2.57,2.57,0,0,0,.45,0h.41a4.86,4.86,0,0,0,1.42-.16,2.36,2.36,0,0,0,.78-.39.94.94,0,0,0,.32-.51,2.11,2.11,0,0,0,.07-.54c0-.76-1.18-1.27-3.53-1.51l1.72-3.28a12.43,12.43,0,0,1-4.43-1.13,10.33,10.33,0,0,1-3.56-2.77,13,13,0,0,1-2.38-4.51,21.11,21.11,0,0,1-.86-6.35,19.08,19.08,0,0,1,1.08-6.83,13.27,13.27,0,0,1,2.87-4.59,11,11,0,0,1,4-2.6,12.84,12.84,0,0,1,4.51-.82,25.69,25.69,0,0,1,4,.26,12.83,12.83,0,0,1,2.66.72l-.81,3a13,13,0,0,0-5.62-1,9.37,9.37,0,0,0-3.32.61,7.56,7.56,0,0,0-2.93,2,10.06,10.06,0,0,0-2.08,3.64,17.35,17.35,0,0,0-.77,5.53,16.33,16.33,0,0,0,.73,5.15,10.71,10.71,0,0,0,2,3.69,8.33,8.33,0,0,0,3,2.21,9.63,9.63,0,0,0,3.79.73,12.85,12.85,0,0,0,3.22-.35,9.27,9.27,0,0,0,2.32-.92Z" transform="translate(-2.35 -12.43)" style="fill:#fff;stroke:#fff;stroke-miterlimit:10"/><path d="M214.33,211.09H203.8l-2.85,8h-3.41l10.87-29.15H210l10.9,29.15h-3.61Zm-11.58-24.23a7.75,7.75,0,0,1,2.36-1.78,5.24,5.24,0,0,1,2.07-.47,5.85,5.85,0,0,1,1.51.2c.5.14,1,.3,1.42.47s.89.34,1.33.48a4.47,4.47,0,0,0,1.27.2,3.1,3.1,0,0,0,2-.86l1,1.76a7,7,0,0,1-2.09,1.42,5.08,5.08,0,0,1-1.85.39,5,5,0,0,1-1.47-.21A13.18,13.18,0,0,1,209,188c-.45-.18-.89-.33-1.33-.47a4.32,4.32,0,0,0-1.31-.21,3.25,3.25,0,0,0-1.29.27,4.44,4.44,0,0,0-1.34,1Zm2.15,21.28h8.41l-3.19-8.73-1-4.35h0l-1,4.43Z" transform="translate(-2.35 -12.43)" style="fill:#fff;stroke:#fff;stroke-miterlimit:10"/><path d="M222.47,204.7q0-7.17,3-11t8.66-3.83a12,12,0,0,1,5.24,1.06,9.8,9.8,0,0,1,3.67,3,13.16,13.16,0,0,1,2.16,4.67,24.87,24.87,0,0,1,.69,6.09q0,7.17-3,11t-8.71,3.83a11.75,11.75,0,0,1-5.19-1.07,9.87,9.87,0,0,1-3.65-3,13.13,13.13,0,0,1-2.15-4.67A24.38,24.38,0,0,1,222.47,204.7Zm3.61,0a21.15,21.15,0,0,0,.47,4.51A12.08,12.08,0,0,0,228,213a7.59,7.59,0,0,0,2.52,2.58,6.69,6.69,0,0,0,3.63,1,7.09,7.09,0,0,0,6-2.89q2.18-2.9,2.17-8.92a20.53,20.53,0,0,0-.47-4.49,11.78,11.78,0,0,0-1.47-3.77,8.06,8.06,0,0,0-2.54-2.59,6.81,6.81,0,0,0-3.67-1,7,7,0,0,0-5.93,2.89Q226.09,198.68,226.08,204.7Z" transform="translate(-2.35 -12.43)" style="fill:#fff;stroke:#fff;stroke-miterlimit:10"/><path d="M281,217.86a7.4,7.4,0,0,1-3.12,1.31,20.64,20.64,0,0,1-4,.37,13.07,13.07,0,0,1-4.83-.88,10.5,10.5,0,0,1-3.94-2.69,12.84,12.84,0,0,1-2.66-4.61,20.05,20.05,0,0,1-1-6.66,18.85,18.85,0,0,1,1.09-6.83,13,13,0,0,1,2.87-4.59,10.92,10.92,0,0,1,4-2.6,12.74,12.74,0,0,1,4.5-.82,25.6,25.6,0,0,1,4,.26,13.11,13.11,0,0,1,2.67.72l-.82,3a13,13,0,0,0-5.62-1,9.37,9.37,0,0,0-3.32.61,7.74,7.74,0,0,0-2.93,2,10.25,10.25,0,0,0-2.07,3.65,17.12,17.12,0,0,0-.78,5.54,16.33,16.33,0,0,0,.74,5.16,10.54,10.54,0,0,0,2,3.69,8.21,8.21,0,0,0,3,2.22,9.67,9.67,0,0,0,3.79.74,12.73,12.73,0,0,0,3.22-.37,8.76,8.76,0,0,0,2.32-.95Z" transform="translate(-2.35 -12.43)" style="fill:#fff;stroke:#fff;stroke-miterlimit:10"/><path d="M286.84,190.35h3.4v28.7h-3.4Z" transform="translate(-2.35 -12.43)" style="fill:#fff;stroke:#fff;stroke-miterlimit:10"/><path d="M305.45,210.07l1,4.35h0l1.06-4.43,6.93-19.64h3.41L307,219.5h-1.52l-11.07-29.15h3.74Z" transform="translate(-2.35 -12.43)" style="fill:#fff;stroke:#fff;stroke-miterlimit:10"/><path d="M322.06,190.35h3.4v28.7h-3.4Z" transform="translate(-2.35 -12.43)" style="fill:#fff;stroke:#fff;stroke-miterlimit:10"/><path d="M350.18,219.05h-17v-28.7h3.4V216h13.57Z" transform="translate(-2.35 -12.43)" style="fill:#fff;stroke:#fff;stroke-miterlimit:10"/><path d="M352.93,217.29a2.08,2.08,0,0,1,.66-1.6,2.34,2.34,0,0,1,1.68-.62,2.66,2.66,0,0,1,2.07.9,3.86,3.86,0,0,1,.8,2.63,7.51,7.51,0,0,1-.41,2.58,6.77,6.77,0,0,1-1.07,1.91,6.49,6.49,0,0,1-1.43,1.31,6.59,6.59,0,0,1-1.56.76l-1-1.6a4.26,4.26,0,0,0,2.2-1.79,4.76,4.76,0,0,0,.71-2.44,2,2,0,0,1-.69.13,1.88,1.88,0,0,1-1.38-.56A2.15,2.15,0,0,1,352.93,217.29Z" transform="translate(-2.35 -12.43)" style="fill:#fff;stroke:#fff;stroke-miterlimit:10"/><path d="M388.35,219.05h-17v-28.7h3.4V216h13.57Z" transform="translate(-2.35 -12.43)" style="fill:#fff;stroke:#fff;stroke-miterlimit:10"/><path d="M392.58,190.35c.52-.08,1.1-.15,1.74-.19s1.31-.06,2-.08l2.05,0,1.87,0a15.25,15.25,0,0,1,6,1.07,11,11,0,0,1,4.16,3,12.31,12.31,0,0,1,2.44,4.57,21.44,21.44,0,0,1,0,11.46,13.28,13.28,0,0,1-2.4,4.76,11.84,11.84,0,0,1-4.26,3.32,14.75,14.75,0,0,1-6.36,1.25l-1.7,0c-.69,0-1.41,0-2.15-.09l-2.05-.1a11.37,11.37,0,0,1-1.35-.12Zm7.75,2.7h-1.17c-.43,0-.84,0-1.25,0l-1.13.09c-.34,0-.61,0-.8.08v23a5.05,5.05,0,0,0,.78.06l1.19,0,1.19,0c.38,0,.64,0,.78,0a10.65,10.65,0,0,0,4.81-1,8.34,8.34,0,0,0,3.12-2.65,10.6,10.6,0,0,0,1.66-3.81,19.77,19.77,0,0,0,.49-4.45,18.67,18.67,0,0,0-.45-4,10.51,10.51,0,0,0-1.56-3.66,8.49,8.49,0,0,0-3-2.69A9.46,9.46,0,0,0,400.33,193.05Z" transform="translate(-2.35 -12.43)" style="fill:#fff;stroke:#fff;stroke-miterlimit:10"/><path d="M432,211.09H421.47l-2.86,8h-3.4l10.86-29.15h1.56l10.91,29.15h-3.61Zm-9.42-3H431l-3.18-8.73-1-4.35h0l-1,4.43Z" transform="translate(-2.35 -12.43)" style="fill:#fff;stroke:#fff;stroke-miterlimit:10"/><path d="M75,97.57v44h1.42v-44Z" transform="translate(-2.35 -12.43)" style="fill:#fff;stroke:#4183d7;stroke-miterlimit:10"/><path d="M76.45,140.19v.71H219.22v-.71ZM75,97.57v44H220.64v-44ZM76.45,99H219.22v41.2H76.45Zm0,41.2v.71H219.22v-.71Z" transform="translate(-2.35 -12.43)" style="fill:#fff;stroke:#4183d7;stroke-miterlimit:10"/><rect x="73.39" y="85.85" width="144.19" height="42.62" style="fill:#fff;stroke:#4183d7;stroke-miterlimit:10"/><rect x="217.58" y="85.85" width="144.19" height="42.62" style="fill:#fff;stroke:#4183d7;stroke-miterlimit:10"/><path d="M220.64,140.19v.71H363.41v-.71Zm-1.42-42.62v44H364.83v-44ZM220.64,99H363.41v41.2H220.64Zm0,41.2v.71H363.41v-.71Z" transform="translate(-2.35 -12.43)" style="fill:#fff;stroke:#4183d7;stroke-miterlimit:10"/><path d="M363.41,97.57v44h1.42v-44Z" transform="translate(-2.35 -12.43)" style="fill:#fff;stroke:#4183d7;stroke-miterlimit:10"/><rect x="1.29" y="128.47" width="144.19" height="42.62" style="fill:#fff;stroke:#4183d7;stroke-miterlimit:10"/><path d="M2.93,140.19v44H148.54v-44Zm144.19,42.62H4.35v-41.2H147.12Z" transform="translate(-2.35 -12.43)" style="fill:#fff;stroke:#4183d7;stroke-miterlimit:10"/><rect x="145.48" y="128.47" width="144.19" height="42.62" style="fill:#fff;stroke:#4183d7;stroke-miterlimit:10"/><path d="M148.54,140.9v.71H291.32v-.71Zm-1.42-.71v44H292.74v-44Zm144.2,42.62H148.54v-41.2H291.32ZM148.54,140.9v.71H291.32v-.71Z" transform="translate(-2.35 -12.43)" style="fill:#fff;stroke:#4183d7;stroke-miterlimit:10"/><rect x="289.68" y="128.47" width="144.19" height="42.62" style="fill:#fff;stroke:#4183d7;stroke-miterlimit:10"/><path d="M292.74,140.9v.71H435.51v-.71Zm-1.42-.71v44H436.93v-44Zm144.19,42.62H292.74v-41.2H435.51ZM292.74,140.9v.71H435.51v-.71Z" transform="translate(-2.35 -12.43)" style="fill:#fff;stroke:#4183d7;stroke-miterlimit:10"/><path d="M435.51,140.19v44h1.42v-44Z" transform="translate(-2.35 -12.43)" style="fill:#fff;stroke:#4183d7;stroke-miterlimit:10"/></g></g></svg>