<svg xmlns="http://www.w3.org/2000/svg" viewBox="0 0 441.25 220.17"><title>logotipominiartewhite</title><g id="ba2e395d-2dd8-437b-879e-4573725248a7" data-name="Layer 2"><g id="bc9c9b3e-1ec6-4fef-bfb8-e8aab84b05ba" data-name="Layer 2"><path d="M74.31,14.8l-.24,0L58.84,56.88H51.18L36,14.92l-.24,0,1.1,25v8.95L43,50v6.84H19.43V50l6.05-1.17V8.05L19.43,6.88V0H40.36l14.5,41.91h.23L69.7,0h21V6.88L84.62,8.05V48.87L90.71,50v6.84H67.16V50l6-1.17V39.92Z" style="fill:#fff"/><path d="M94.74,6.88V0h23.55V6.88L112.2,8.05V48.87L118.29,50v6.84H94.74V50l6.09-1.17V8.05Z" style="fill:#fff"/><path d="M180.75,0V6.88l-6.09,1.17V56.88H163.29l-23-38.29-.23,0V48.87L146.18,50v6.84H122.63V50l6.05-1.17V8.05l-6.05-1.17V0h17.46l23,38.28.23,0V8.05L157.2,6.88V0h23.55Z" style="fill:#fff"/><path d="M184.39,6.88V0h23.55V6.88l-6.09,1.17V48.87L207.94,50v6.84H184.39V50l6.09-1.17V8.05Z" style="fill:#fff"/><path d="M211.69,50l4.06-.59L233.06,0h11.68l17.19,49.45L266,50v6.84H246.61V50l3.95-.7-2.5-7.82H229.62l-2.5,7.82,3.95.7v6.84H211.69Zm20.63-16.91h13l-6.4-20h-.24Z" style="fill:#fff"/><path d="M295.29,0Q305,0,310.48,4.43T316,16.68a12.32,12.32,0,0,1-2.31,7.46,16.08,16.08,0,0,1-6.75,5.12q5,1.48,7.24,4.94a15.62,15.62,0,0,1,2.21,8.57v2.89a5,5,0,0,0,.74,2.91,3.33,3.33,0,0,0,2.46,1.23L321,50v6.88h-5.9c-3.72,0-6.34-1-7.85-3A12.6,12.6,0,0,1,305,46.09V42.85a9.14,9.14,0,0,0-2.2-6.5,8.47,8.47,0,0,0-6.23-2.48H287.2v15L293.29,50v6.84H269.74V50l6.05-1.17V8.05l-6.05-1.17V0h25.55ZM287.2,25.08h7.89q4.77,0,7.15-2a7.28,7.28,0,0,0,2.38-5.86,8.16,8.16,0,0,0-2.36-6.12q-2.37-2.28-7-2.28H287.2Z" style="fill:#fff"/><path d="M372.86,0V15.16h-8.75l-.47-6.37H353.18V48.87L359.27,50v6.84H335.68V50l6.09-1.17V8.79H331.34l-.47,6.37h-8.71V0Z" style="fill:#fff"/><path d="M413.29,31.88H394V48.13h18.35l.51-6.8h8.67V56.88h-45V50l6.06-1.17V8.05l-6.06-1.17V0H421.5V15.59h-8.75l-.51-6.8H394v14.3h19.25Z" style="fill:#fff"/><path d="M20.62,210.69a7.09,7.09,0,0,1-3,1.28,20.4,20.4,0,0,1-3.92.36,12.73,12.73,0,0,1-4.72-.86,10.17,10.17,0,0,1-3.84-2.62,12.61,12.61,0,0,1-2.6-4.5,19.66,19.66,0,0,1-1-6.5,18.46,18.46,0,0,1,1.06-6.66,12.83,12.83,0,0,1,2.8-4.48,10.86,10.86,0,0,1,3.9-2.54,12.67,12.67,0,0,1,4.4-.8,24.39,24.39,0,0,1,3.92.26,13.28,13.28,0,0,1,2.6.7l-.8,3a12.55,12.55,0,0,0-5.48-1,9.19,9.19,0,0,0-3.24.6,7.49,7.49,0,0,0-2.86,2,10.07,10.07,0,0,0-2,3.56,16.61,16.61,0,0,0-.76,5.4,16,16,0,0,0,.72,5,10.37,10.37,0,0,0,2,3.6,8.12,8.12,0,0,0,3,2.16,9.39,9.39,0,0,0,3.7.72,12.16,12.16,0,0,0,3.14-.36,8.45,8.45,0,0,0,2.26-.92Z" style="fill:#fff"/><path d="M24,197.85q0-7,3-10.74a10.16,10.16,0,0,1,8.44-3.74,11.72,11.72,0,0,1,5.12,1,9.58,9.58,0,0,1,3.58,2.94,12.77,12.77,0,0,1,2.1,4.56,23.76,23.76,0,0,1,.68,5.94q0,7-3,10.74t-8.5,3.74a11.4,11.4,0,0,1-5.06-1,9.66,9.66,0,0,1-3.56-2.94,13,13,0,0,1-2.1-4.56A24.12,24.12,0,0,1,24,197.85Zm3.52,0a20.69,20.69,0,0,0,.46,4.4,12,12,0,0,0,1.42,3.66,7.42,7.42,0,0,0,2.46,2.52,6.5,6.5,0,0,0,3.54.94,6.9,6.9,0,0,0,5.84-2.82c1.42-1.88,2.12-4.78,2.12-8.7a20.21,20.21,0,0,0-.46-4.38,11.64,11.64,0,0,0-1.44-3.68A7.76,7.76,0,0,0,39,187.27a6.65,6.65,0,0,0-3.58-.94,6.81,6.81,0,0,0-5.78,2.82Q27.54,192,27.54,197.85Z" style="fill:#fff"/><path d="M58.26,193.53l-2.16-4h-.16l.4,4v18.32H53.22V183.41H55l13.4,18.68,2.08,3.84h.2l-.44-3.84V183.85h3.12v28.44H71.58Z" style="fill:#fff"/><path d="M93.46,204.73a3.82,3.82,0,0,0-1-2.74,10.29,10.29,0,0,0-2.5-1.88,34.15,34.15,0,0,0-3.26-1.54,17.79,17.79,0,0,1-3.26-1.74,9.22,9.22,0,0,1-2.5-2.52,6.72,6.72,0,0,1-1-3.82,6.45,6.45,0,0,1,2.28-5.2,9.79,9.79,0,0,1,6.48-1.92,25.1,25.1,0,0,1,4.44.36,12.1,12.1,0,0,1,3.12.92l-1,3a12.85,12.85,0,0,0-2.7-.86,17.6,17.6,0,0,0-4-.42,5.82,5.82,0,0,0-4,1.18,3.63,3.63,0,0,0-1.32,2.78,3.58,3.58,0,0,0,1,2.6,10.24,10.24,0,0,0,2.5,1.86c1,.55,2.09,1.09,3.26,1.62a21.07,21.07,0,0,1,3.26,1.86,10.05,10.05,0,0,1,2.5,2.54,6.42,6.42,0,0,1,1,3.68,7.84,7.84,0,0,1-.64,3.24,6.79,6.79,0,0,1-1.88,2.48,8.62,8.62,0,0,1-3,1.6,13,13,0,0,1-4,.56,22.06,22.06,0,0,1-5-.46,12.85,12.85,0,0,1-3-1l1.12-3a12.92,12.92,0,0,0,2.72,1,15.71,15.71,0,0,0,4,.48,10.91,10.91,0,0,0,2.48-.26,5.57,5.57,0,0,0,2-.84A4.26,4.26,0,0,0,93,206.81,4.16,4.16,0,0,0,93.46,204.73Z" style="fill:#fff"/><path d="M120.82,186.81H112.1v25h-3.32v-25h-8.72v-3h20.76Z" style="fill:#fff"/><path d="M125.62,184.13c1-.18,2.18-.33,3.5-.44s2.53-.16,3.62-.16a15.26,15.26,0,0,1,3.5.4,8.2,8.2,0,0,1,2.92,1.32,6.86,6.86,0,0,1,2,2.4,8.82,8.82,0,0,1-1,8.92,8.68,8.68,0,0,1-4.56,2.72l1.92,1.48,7,11.08h-3.88l-7.72-12.08-3.92-.6v12.68h-3.32Zm7.2,2.28h-1.08c-.37,0-.73,0-1.08,0l-1,.08a4.75,4.75,0,0,0-.74.12V197h3.12a7.33,7.33,0,0,0,4.56-1.36,5,5,0,0,0,1.8-4.24,4.69,4.69,0,0,0-1.48-3.56A5.78,5.78,0,0,0,132.82,186.41Z" style="fill:#fff"/><path d="M166.18,183.85h3.2v18.68a12.9,12.9,0,0,1-.66,4.36,7.73,7.73,0,0,1-1.88,3,7.38,7.38,0,0,1-2.94,1.74,12.32,12.32,0,0,1-3.8.56c-3.31,0-5.8-.74-7.48-2.24s-2.52-3.76-2.52-6.8V183.85h3.32v17.76a13.07,13.07,0,0,0,.42,3.58,5.66,5.66,0,0,0,1.26,2.36,4.83,4.83,0,0,0,2.1,1.3,9.63,9.63,0,0,0,2.94.4q3.24,0,4.64-1.78c.93-1.18,1.4-3.14,1.4-5.86Z" style="fill:#fff"/><path d="M194.78,210.69a6.56,6.56,0,0,1-2.56,1.16,17.54,17.54,0,0,1-3.32.44l-.68,1.28a4.75,4.75,0,0,1,2.42,1,2.63,2.63,0,0,1,.74,2,3.17,3.17,0,0,1-1.28,2.58,5.63,5.63,0,0,1-3.6,1,8.64,8.64,0,0,1-.88,0c-.29,0-.6-.06-.92-.12l.36-1.56a2.39,2.39,0,0,0,.44,0h.4a4.57,4.57,0,0,0,1.38-.16A2.07,2.07,0,0,0,188,218a.89.89,0,0,0,.32-.5,2.52,2.52,0,0,0,.06-.52c0-.75-1.15-1.24-3.44-1.48l1.68-3.2a11.77,11.77,0,0,1-4.32-1.1,10.06,10.06,0,0,1-3.48-2.7,12.68,12.68,0,0,1-2.32-4.4,20.48,20.48,0,0,1-.84-6.2,18.46,18.46,0,0,1,1.06-6.66,12.83,12.83,0,0,1,2.8-4.48,10.86,10.86,0,0,1,3.9-2.54,12.67,12.67,0,0,1,4.4-.8,24.39,24.39,0,0,1,3.92.26,13.28,13.28,0,0,1,2.6.7l-.8,3a12.55,12.55,0,0,0-5.48-1,9.19,9.19,0,0,0-3.24.6,7.38,7.38,0,0,0-2.86,2,9.94,9.94,0,0,0-2,3.55,16.55,16.55,0,0,0-.76,5.39,15.85,15.85,0,0,0,.72,5,10.37,10.37,0,0,0,2,3.6,8.09,8.09,0,0,0,3,2.15,9.39,9.39,0,0,0,3.7.72,12.19,12.19,0,0,0,3.14-.35,8.8,8.8,0,0,0,2.26-.89Z" style="fill:#fff"/><path d="M212.55,204.09H202.29l-2.79,7.76h-3.32l10.6-28.44h1.52l10.64,28.44h-3.52Zm-11.29-23.64a7.71,7.71,0,0,1,2.3-1.74,5.21,5.21,0,0,1,2-.46,5.62,5.62,0,0,1,1.48.2,14,14,0,0,1,1.38.46c.44.17.87.33,1.3.46a4.28,4.28,0,0,0,1.24.2,3,3,0,0,0,2-.84l1,1.72a6.67,6.67,0,0,1-2,1.38,5,5,0,0,1-1.8.38,4.82,4.82,0,0,1-1.44-.2,13.25,13.25,0,0,1-1.34-.46c-.44-.17-.87-.32-1.3-.46a4.38,4.38,0,0,0-1.28-.2,3.27,3.27,0,0,0-1.26.26,4.39,4.39,0,0,0-1.3.94Zm2.1,20.76h8.2l-3.11-8.52-1-4.24h0l-1,4.32Z" style="fill:#fff"/><path d="M221.18,197.85q0-7,3-10.74a10.15,10.15,0,0,1,8.44-3.74,11.75,11.75,0,0,1,5.12,1,9.66,9.66,0,0,1,3.58,2.94,12.77,12.77,0,0,1,2.1,4.56,24.24,24.24,0,0,1,.68,5.94q0,7-3,10.74a10.25,10.25,0,0,1-8.5,3.74,11.37,11.37,0,0,1-5.06-1,9.58,9.58,0,0,1-3.56-2.94,12.69,12.69,0,0,1-2.1-4.56A24.12,24.12,0,0,1,221.18,197.85Zm3.52,0a20.06,20.06,0,0,0,.46,4.4,12,12,0,0,0,1.42,3.66,7.42,7.42,0,0,0,2.46,2.52,6.5,6.5,0,0,0,3.54.94,6.9,6.9,0,0,0,5.84-2.82q2.12-2.82,2.12-8.7a20.21,20.21,0,0,0-.46-4.38,11.88,11.88,0,0,0-1.44-3.68,7.76,7.76,0,0,0-2.48-2.52,6.65,6.65,0,0,0-3.58-.94,6.81,6.81,0,0,0-5.78,2.82Q224.7,192,224.7,197.85Z" style="fill:#fff"/><path d="M279.66,210.69a7.09,7.09,0,0,1-3,1.28,20.4,20.4,0,0,1-3.92.36,12.73,12.73,0,0,1-4.72-.86,10.17,10.17,0,0,1-3.84-2.62,12.61,12.61,0,0,1-2.6-4.5,19.66,19.66,0,0,1-1-6.5,18.46,18.46,0,0,1,1.06-6.66,12.83,12.83,0,0,1,2.8-4.48,10.86,10.86,0,0,1,3.9-2.54,12.67,12.67,0,0,1,4.4-.8,24.39,24.39,0,0,1,3.92.26,13.28,13.28,0,0,1,2.6.7l-.8,3a12.55,12.55,0,0,0-5.48-1,9.19,9.19,0,0,0-3.24.6,7.49,7.49,0,0,0-2.86,2,10.07,10.07,0,0,0-2,3.56,16.61,16.61,0,0,0-.76,5.4,16,16,0,0,0,.72,5,10.37,10.37,0,0,0,2,3.6,8.12,8.12,0,0,0,3,2.16,9.39,9.39,0,0,0,3.7.72,12.16,12.16,0,0,0,3.14-.36,8.45,8.45,0,0,0,2.26-.92Z" style="fill:#fff"/><path d="M286,183.85h3.32v28H286Z" style="fill:#fff"/><path d="M304.86,203.09l1,4.24h0l1-4.32,6.76-19.16H317l-10.6,28.44H304.9l-10.8-28.44h3.64Z" style="fill:#fff"/><path d="M321.74,183.85h3.32v28h-3.32Z" style="fill:#fff"/><path d="M349.86,211.85H333.3v-28h3.32v25h13.24Z" style="fill:#fff"/><path d="M353.22,210.13a2,2,0,0,1,.64-1.56,2.29,2.29,0,0,1,1.64-.6,2.61,2.61,0,0,1,2,.88,3.75,3.75,0,0,1,.78,2.56,7.4,7.4,0,0,1-.4,2.52,6.66,6.66,0,0,1-1,1.86,6.43,6.43,0,0,1-1.4,1.28,6.07,6.07,0,0,1-1.52.74l-1-1.56a4.11,4.11,0,0,0,2.14-1.74,4.67,4.67,0,0,0,.7-2.38,2.17,2.17,0,0,1-.68.12,1.81,1.81,0,0,1-1.34-.54A2.13,2.13,0,0,1,353.22,210.13Z" style="fill:#fff"/><path d="M389.14,211.85H372.58v-28h3.32v25h13.24Z" style="fill:#fff"/><path d="M393.94,183.85c.5-.08,1.07-.14,1.7-.18s1.28-.06,2-.08l2,0,1.82,0a14.94,14.94,0,0,1,5.82,1,10.91,10.91,0,0,1,4.06,2.9,12.17,12.17,0,0,1,2.38,4.46,20.94,20.94,0,0,1,0,11.18,13.27,13.27,0,0,1-2.34,4.64,11.46,11.46,0,0,1-4.16,3.24,14.25,14.25,0,0,1-6.2,1.22c-.43,0-1,0-1.66,0s-1.38,0-2.1-.08l-2-.1a9,9,0,0,1-1.32-.12Zm7.56,2.64h-1.14c-.42,0-.82,0-1.22,0l-1.1.08-.78.08v22.4a4.61,4.61,0,0,0,.76.06l1.16,0,1.16,0c.37,0,.62,0,.76,0a10.38,10.38,0,0,0,4.7-1,8.16,8.16,0,0,0,3-2.58,10.43,10.43,0,0,0,1.62-3.72,19.37,19.37,0,0,0,.48-4.34,18.37,18.37,0,0,0-.44-3.94,10.5,10.5,0,0,0-1.52-3.58,8.45,8.45,0,0,0-2.9-2.62A9.29,9.29,0,0,0,401.5,186.49Z" style="fill:#fff"/><path d="M433.07,204.09H422.8L420,211.85H416.7l10.6-28.44h1.52l10.64,28.44h-3.52Zm-9.19-2.88h8.2L429,192.69l-1-4.24h0l-1,4.32Z" style="fill:#fff"/><path d="M73.59,69.9v44.65H75V69.9Z" style="fill:#fff;stroke:#4183d7;stroke-miterlimit:10"/><path d="M75.28,114.79H73.34V69.65h1.94Zm-1.44-.5h.94V70.15h-.94Z" style="fill:#fff;stroke:#4183d7;stroke-miterlimit:10"/><path d="M75,113.11v.72H219.78v-.72ZM73.59,69.9v44.65H221.22V69.9ZM75,71.34H219.78v41.77H75Zm0,41.77v.72H219.78v-.72Z" style="fill:#fff;stroke:#4183d7;stroke-miterlimit:10"/><path d="M221.47,114.79H73.34V69.65H221.47Zm-147.63-.5H221V70.15H73.84ZM220,114.08H74.78v-43H220Zm-144.75-.5H219.53v-.22H75.28Zm0-.72H219.53V71.59H75.28Z" style="fill:#fff;stroke:#4183d7;stroke-miterlimit:10"/><rect x="74.31" y="70.62" width="146.19" height="43.21" style="fill:#fff;stroke:#4183d7;stroke-miterlimit:10"/><path d="M220.75,114.08H74.06V70.37H220.75Zm-146.19-.5H220.25V70.87H74.56Z" style="fill:#fff;stroke:#4183d7;stroke-miterlimit:10"/><rect x="220.5" y="70.62" width="146.19" height="43.21" style="fill:#fff;stroke:#4183d7;stroke-miterlimit:10"/><path d="M366.94,114.08H220.25V70.37H366.94Zm-146.19-.5H366.44V70.87H220.75Z" style="fill:#fff;stroke:#4183d7;stroke-miterlimit:10"/><path d="M221.22,113.11v.72H366v-.72ZM219.78,69.9v44.65H367.41V69.9Zm1.44,1.44H366v41.77H221.22Zm0,41.77v.72H366v-.72Z" style="fill:#fff;stroke:#4183d7;stroke-miterlimit:10"/><path d="M367.66,114.79H219.53V69.65H367.66ZM220,114.29H367.16V70.15H220Zm146.19-.21H221v-43H366.22Zm-144.75-.5H365.72v-.22H221.47Zm0-.72H365.72V71.59H221.47Z" style="fill:#fff;stroke:#4183d7;stroke-miterlimit:10"/><path d="M366,69.9v44.65h1.44V69.9Z" style="fill:#fff;stroke:#4183d7;stroke-miterlimit:10"/><path d="M367.66,114.79h-1.94V69.65h1.94Zm-1.44-.5h.94V70.15h-.94Z" style="fill:#fff;stroke:#4183d7;stroke-miterlimit:10"/><rect x="1.22" y="113.83" width="146.19" height="43.21" style="fill:#fff;stroke:#4183d7;stroke-miterlimit:10"/><path d="M147.66,157.28H1v-43.7H147.66Zm-146.19-.5H147.16v-42.7H1.47Z" style="fill:#fff;stroke:#4183d7;stroke-miterlimit:10"/><path d="M.5,113.11v44.64H148.13V113.11Zm146.19,43.2H1.94V114.55H146.69Z" style="fill:#fff;stroke:#4183d7;stroke-miterlimit:10"/><rect x="147.41" y="113.83" width="146.19" height="43.21" style="fill:#fff;stroke:#4183d7;stroke-miterlimit:10"/><path d="M293.84,157.28H147.16v-43.7H293.84Zm-146.18-.5H293.34v-42.7H147.66Z" style="fill:#fff;stroke:#4183d7;stroke-miterlimit:10"/><path d="M148.13,113.83v.72H292.87v-.72Zm-1.44-.72v44.64H294.31V113.11Zm146.18,43.2H148.13V114.55H292.87ZM148.13,113.83v.72H292.87v-.72Z" style="fill:#fff;stroke:#4183d7;stroke-miterlimit:10"/><path d="M294.56,158H146.44V112.86H294.56Zm-147.62-.5H294.06V113.36H146.94Zm146.18-.94H147.88v-43H293.12Zm-144.74-.5H292.62V114.79H148.38Zm0-41.77H292.62v-.21H148.38Z" style="fill:#fff;stroke:#4183d7;stroke-miterlimit:10"/><rect x="293.59" y="113.83" width="146.19" height="43.21" style="fill:#fff;stroke:#4183d7;stroke-miterlimit:10"/><path d="M440,157.28H293.34v-43.7H440Zm-146.19-.5H439.53v-42.7H293.84Z" style="fill:#fff;stroke:#4183d7;stroke-miterlimit:10"/><path d="M294.31,113.83v.72H439.06v-.72Zm-1.44-.72v44.64H440.5V113.11Zm146.19,43.2H294.31V114.55H439.06ZM294.31,113.83v.72H439.06v-.72Z" style="fill:#fff;stroke:#4183d7;stroke-miterlimit:10"/><path d="M440.75,158H292.62V112.86H440.75Zm-147.63-.5H440.25V113.36H293.12Zm146.19-.94H294.06v-43H439.31Zm-144.75-.5H438.81V114.79H294.56Zm0-41.77H438.81v-.21H294.56Z" style="fill:#fff;stroke:#4183d7;stroke-miterlimit:10"/><path d="M439.06,113.11v44.64h1.44V113.11Z" style="fill:#fff;stroke:#4183d7;stroke-miterlimit:10"/><path d="M440.75,158h-1.94V112.86h1.94Zm-1.44-.5h.94V113.36h-.94Z" style="fill:#fff;stroke:#4183d7;stroke-miterlimit:10"/></g></g></svg>