<svg xmlns="http://www.w3.org/2000/svg" viewBox="0 0 439.86 229.59"><defs><style>.a297f8a5-31a3-449f-8617-e793a8ad47a8{font-size:86px;font-family:RobotoSlab-Bold, Roboto Slab;font-weight:700;}.\36 6ac8a0a-fedf-4427-8878-a0ac1bb44481,.a297f8a5-31a3-449f-8617-e793a8ad47a8,.b8571aca-2e40-4316-8ca4-b633d0ea49c4{fill:#fff;stroke-miterlimit:10;}.a297f8a5-31a3-449f-8617-e793a8ad47a8,.b8571aca-2e40-4316-8ca4-b633d0ea49c4{stroke:#fff;}.\36 33e0652-42bd-4aa6-bc25-3c478ec9796e{letter-spacing:-0.02em;}.b8571aca-2e40-4316-8ca4-b633d0ea49c4{font-size:41px;font-family:PTSans-Regular, PT Sans;}.\32 dd681ac-f193-4dd1-bd07-921388f88927{letter-spacing:-0.03em;}.\33 3b171d6-ace5-46e5-a0bf-cfac0496185f{letter-spacing:-0.03em;}.\34 8e32d98-bdac-47e7-9320-5971ebde7397{letter-spacing:-0.02em;}.\33 b1b211e-343a-4669-ae0d-5506c8dbdf40{letter-spacing:0em;}.\30 b1d3d61-e954-41fe-8ec9-523771a4e757{letter-spacing:-0.08em;}.dbbd94ce-6bd2-4f9e-bed2-4caf2f27de30{letter-spacing:-0.03em;}.\30 c6ecd3f-7610-400b-85dc-75d304b7eccc{letter-spacing:-0.04em;}.\36 6ac8a0a-fedf-4427-8878-a0ac1bb44481{stroke:#4183d7;}</style></defs><title>Asset 1</title><g id="dafaa79f-8726-4390-9bdb-724448401a0d" data-name="Layer 2"><g id="63177839-052b-49b3-b96f-7c39f3543296" data-name="Layer 2"><text class="a297f8a5-31a3-449f-8617-e793a8ad47a8" transform="translate(0.5 74.07)">MINIA<tspan class="633e0652-42bd-4aa6-bc25-3c478ec9796e" x="269.09" y="0">R</tspan><tspan x="326.11" y="0">TE</tspan></text><text class="b8571aca-2e40-4316-8ca4-b633d0ea49c4" transform="translate(1.32 219.05)"><tspan class="2dd681ac-f193-4dd1-bd07-921388f88927">C</tspan><tspan x="22.35" y="0">ONSTRU</tspan><tspan class="33b171d6-ace5-46e5-a0bf-cfac0496185f" x="173.63" y="0">Ç</tspan><tspan class="48e32d98-bdac-47e7-9320-5971ebde7397" x="195.9" y="0">Ã</tspan><tspan class="3b1b211e-343a-4669-ae0d-5506c8dbdf40" x="218.86" y="0">O CIVIL</tspan><tspan class="0b1d3d61-e954-41fe-8ec9-523771a4e757" x="349.6" y="0">,</tspan><tspan x="355.63" y="0" xml:space="preserve"> L</tspan><tspan class="dbbd94ce-6bd2-4f9e-bed2-4caf2f27de30" x="387.77" y="0">D</tspan><tspan class="0c6ecd3f-7610-400b-85dc-75d304b7eccc" x="413.56" y="0">A</tspan></text><path class="66ac8a0a-fedf-4427-8878-a0ac1bb44481" d="M75,97.57v44h1.42v-44Z"/><path class="66ac8a0a-fedf-4427-8878-a0ac1bb44481" d="M76.45,140.19v.71H219.22v-.71ZM75,97.57v44H220.64v-44ZM76.45,99H219.22v41.2H76.45Zm0,41.2v.71H219.22v-.71Z"/><rect class="66ac8a0a-fedf-4427-8878-a0ac1bb44481" x="75.74" y="98.28" width="144.19" height="42.62"/><rect class="66ac8a0a-fedf-4427-8878-a0ac1bb44481" x="219.93" y="98.28" width="144.19" height="42.62"/><path class="66ac8a0a-fedf-4427-8878-a0ac1bb44481" d="M220.64,140.19v.71H363.41v-.71Zm-1.42-42.62v44H364.83v-44ZM220.64,99H363.41v41.2H220.64Zm0,41.2v.71H363.41v-.71Z"/><path class="66ac8a0a-fedf-4427-8878-a0ac1bb44481" d="M363.41,97.57v44h1.42v-44Z"/><rect class="66ac8a0a-fedf-4427-8878-a0ac1bb44481" x="3.64" y="140.9" width="144.19" height="42.62"/><path class="66ac8a0a-fedf-4427-8878-a0ac1bb44481" d="M2.93,140.19v44H148.54v-44Zm144.19,42.62H4.35v-41.2H147.12Z"/><rect class="66ac8a0a-fedf-4427-8878-a0ac1bb44481" x="147.83" y="140.9" width="144.19" height="42.62"/><path class="66ac8a0a-fedf-4427-8878-a0ac1bb44481" d="M148.54,140.9v.71H291.32v-.71Zm-1.42-.71v44H292.74v-44Zm144.2,42.62H148.54v-41.2H291.32ZM148.54,140.9v.71H291.32v-.71Z"/><rect class="66ac8a0a-fedf-4427-8878-a0ac1bb44481" x="292.03" y="140.9" width="144.19" height="42.62"/><path class="66ac8a0a-fedf-4427-8878-a0ac1bb44481" d="M292.74,140.9v.71H435.51v-.71Zm-1.42-.71v44H436.93v-44Zm144.19,42.62H292.74v-41.2H435.51ZM292.74,140.9v.71H435.51v-.71Z"/><path class="66ac8a0a-fedf-4427-8878-a0ac1bb44481" d="M435.51,140.19v44h1.42v-44Z"/></g></g></svg>